<svg width="401" height="409" viewBox="0 0 401 409" fill="none" xmlns="http://www.w3.org/2000/svg">
<path d="M201.429 54.9457C201.308 55.3486 200.875 58.7094 200.497 62.3645C196.92 95.5599 193.452 137.366 171.214 163.691C168.763 166.571 168.229 168.829 169.956 168.844C170.537 168.849 173.196 168.233 175.856 167.5C183.756 165.946 191.732 164.157 203.007 164.256C211.753 164.333 222.112 165.761 228.596 168.132C234.12 170.149 234.419 168.763 229.8 162.397C219.023 147.508 213.403 130.349 208.554 97.4104C206.588 84.3977 203.355 58.3785 203.374 56.1161C203.386 54.8379 203.104 54.2551 202.523 54.25C202.002 54.2454 201.543 54.5867 201.422 54.9382L201.429 54.9457Z" fill="#F7C873"/>
<path d="M139.761 164.73C139.685 164.98 139.425 167.027 139.192 169.251C137.001 189.5 134.873 214.987 121.237 231.044C119.737 232.801 119.402 234.179 120.467 234.188C120.82 234.192 122.455 233.817 124.084 233.368C128.929 232.419 133.819 231.33 140.735 231.391C146.1 231.438 152.458 232.309 156.429 233.755C159.814 234.989 159.998 234.138 157.165 230.257C150.556 221.178 147.105 210.709 144.128 190.62C142.926 182.683 140.941 166.82 140.953 165.439C140.96 164.66 140.787 164.306 140.434 164.303C140.118 164.3 139.829 164.511 139.754 164.723L139.761 164.73Z" fill="#F7C873"/>
<path d="M232.256 256.194C232.26 255.724 232.653 255.345 233.123 255.357C234.461 255.39 235.644 255.445 236.43 255.51C242.107 255.994 242.345 257.428 242.182 262.591C242.019 267.754 242.135 272.934 242.516 278.087C243.258 288.224 245.022 298.289 247.788 308.069C248.259 309.726 247.835 311.148 245.842 310.396C240.963 308.553 235.904 305.416 232.789 301.084C232.186 300.248 231.886 299.225 231.895 298.189L232.264 256.187L232.256 256.194Z" fill="#F7C873"/>
<path d="M233.631 201.724C233.888 201.726 234.011 201.991 234.006 202.564C233.997 203.585 235.437 215.33 236.312 221.2C238.467 236.065 240.965 243.808 245.764 250.528C247.819 253.404 247.689 254.027 245.227 253.117C242.34 252.048 237.73 251.398 233.835 251.364C233.306 251.359 232.791 251.369 232.291 251.38L232.692 205.66C232.7 205.565 232.708 205.469 232.724 205.374C232.893 203.73 233.083 202.211 233.136 202.028C233.188 201.874 233.396 201.714 233.623 201.716L233.631 201.724Z" fill="#F7C873"/>
<path d="M29.7779 319.033C34.9526 321.532 37.3011 324.454 38.5374 330.159C39.231 333.206 39.1191 336.746 38.2404 339.713C48.8414 337.823 59.6803 333.951 69.8402 330.396C80.8775 326.526 91.3577 321.652 101.457 315.761C108.114 311.874 115.559 307.818 119.289 300.718C117.581 300.96 115.596 301.868 113.813 302.323C107.979 303.8 102.159 305.35 96.3245 306.798C88.0447 308.848 79.687 310.582 71.273 312.014C63.0873 313.404 38.0805 316.043 33.8224 316.299C32.5722 316.376 25.4887 316.968 29.7851 319.048L29.7779 319.033Z" fill="#F7C873"/>
<path d="M277.2 159.336C277.2 159.336 277.251 159.336 277.288 159.311C277.325 159.286 277.362 159.249 277.407 159.192C277.489 159.08 277.586 158.91 277.683 158.703C277.825 158.383 277.969 157.968 278.09 157.509L278.205 157.03C279.355 150.754 279.816 148.514 280.506 146.124L280.816 145.08C281.635 142.205 282.282 140.578 283.74 139.399C285.013 138.37 286.908 137.68 290.077 136.8L291.513 136.409C292.884 136.03 293.894 135.692 294.543 135.364C294.868 135.203 295.105 135.047 295.246 134.891C295.387 134.741 295.44 134.59 295.404 134.438C295.376 134.287 295.253 134.134 295.041 133.975C294.829 133.809 294.522 133.642 294.126 133.469C293.431 133.16 292.456 132.83 291.195 132.466L290.638 132.31C285.571 130.941 283.223 129.634 282.262 127.759L282.175 127.576C281.995 127.171 281.716 126.235 281.396 125.003C281.077 123.77 280.715 122.248 280.354 120.656C279.732 117.87 279.133 114.888 278.827 112.956L278.716 112.199C278.614 111.246 278.458 110.551 278.264 110.095C278.163 109.867 278.061 109.702 277.945 109.594C277.828 109.486 277.711 109.434 277.579 109.433C277.365 109.431 277.181 109.543 277.039 109.744C276.898 109.944 276.814 110.234 276.812 110.568C276.804 111.4 276.387 113.71 275.798 116.366C275.285 118.694 274.645 121.287 274.038 123.4L273.781 124.274C273.425 125.469 273.018 126.556 272.599 127.422C272.18 128.283 271.748 128.935 271.333 129.252C271.156 129.415 270.838 129.608 270.41 129.818C269.981 130.035 269.443 130.27 268.838 130.511C267.776 130.936 266.493 131.379 265.189 131.771L264.628 131.936C263.059 132.389 261.702 132.85 260.743 133.245C260.264 133.443 259.88 133.622 259.614 133.771C259.481 133.846 259.385 133.914 259.318 133.971C259.289 134.002 259.259 134.027 259.244 134.046C259.229 134.071 259.222 134.09 259.222 134.102C259.221 134.14 259.243 134.191 259.294 134.248C259.345 134.305 259.41 134.369 259.505 134.432C259.695 134.567 259.966 134.714 260.31 134.875C260.991 135.19 261.921 135.538 262.947 135.869C268.571 137.532 271.475 139.121 272.662 141.2C272.974 141.707 273.319 142.549 273.67 143.611C274.021 144.673 274.384 145.956 274.725 147.334C275.321 149.748 275.856 152.47 276.173 154.85L276.297 155.847C276.399 156.775 276.553 157.64 276.716 158.285C276.802 158.607 276.888 158.866 276.974 159.056C277.018 159.151 277.061 159.221 277.097 159.272C277.126 159.31 277.156 159.329 277.178 159.342L277.2 159.342L277.2 159.336Z" fill="#F7C873"/>
<path d="M374.766 319.531C372.484 319.078 370.171 318.859 367.873 318.494C362.772 317.67 357.632 317.052 352.5 316.456C341.897 315.232 331.406 313.751 320.927 311.808C317.61 311.191 314.308 310.538 311.007 309.841C309.451 309.511 302.286 306.84 301.118 307.572L298.103 309.463C294.101 312.396 280.498 317.073 282.666 315.513C286.919 312.45 290.333 309.549 293.11 305.489C281.495 302.302 271.185 298.685 263.701 294.645C261.449 294.155 261.89 295.863 265.164 302.996C269.016 311.316 273.823 324.78 276.756 328.897C277.868 330.362 279.471 331.999 280.422 332.456C284.161 334.45 297.186 337.752 311.284 340.227C316.208 341.107 319.839 341.984 319.389 342.149C318.939 342.314 313.097 343.886 306.474 345.621C297.824 347.955 294.345 349.099 294.222 349.715C294.044 350.669 299.33 354.748 304.408 357.423C305.893 358.229 307.07 358.989 307.2 359.232C306.305 359.856 297.114 358.542 291.133 357.424C276.205 354.817 256.221 345.481 244.87 336.522C243.703 335.447 243.254 335.502 243.244 336.728C243.235 337.735 247.452 342.194 252.683 346.552C259.133 351.986 265.21 355.624 275.534 360.189C276.837 360.759 275.488 361.175 271.487 361.439C268.178 361.63 258.939 361.608 251.039 361.37C238.187 361.007 225.239 360.593 213.974 353.618C219.723 355.137 225.531 356.665 231.468 356.901C232.401 356.946 233.362 356.374 232.509 355.551C231.38 354.358 229.925 353.53 228.528 352.658C219.968 347.301 212.833 339.54 208.894 330.198C208.815 330.006 207.151 325.348 205.784 326.923C198.485 335.329 185.518 343.811 189.996 338.656C193.731 334.377 195.489 331.704 198.571 325.516C203.248 316.036 206.042 304.189 208.056 285.004C209.701 270.069 210.065 267.104 210.153 269.676C210.228 273.599 212.277 288.956 213.623 295.58C215.397 304.44 218.227 313.648 219.183 313.656C220.079 313.664 220.087 312.826 219.398 308.339C216.814 293.764 216.256 245.935 216.928 218.716L217.312 174.995C217.32 173.996 216.659 173.116 215.699 172.858C207.768 170.268 195.499 170.469 187.36 173.175C186.425 173.438 185.785 174.292 185.777 175.262C185.803 175.549 185.328 219.702 185.414 219.96C184.985 253.756 184.094 268.206 182.395 279.181C174.923 327.431 178.959 267 179.291 249.343C179.294 248.939 178.973 248.635 178.562 248.631L170.565 248.561C170.161 248.558 169.828 248.885 169.824 249.289L169.751 257.59C169.748 257.986 169.436 258.307 169.039 258.318L161.974 258.535C161.584 258.547 161.272 258.86 161.262 259.249C159.998 300.237 151.797 335.184 151.179 284.99C151.452 271.534 151.415 258.068 151.776 244.613C151.859 240.97 151.554 238.117 147.614 237.274C143.887 236.478 140.037 236.268 136.248 236.646C133.659 236.902 127.255 237.081 127.223 240.761L126.916 275.704C126.273 312.209 126.925 319.135 116.183 334.586C114.651 336.585 110.42 340.522 110.42 339.633C110.423 339.354 110.647 338.908 110.987 338.742C112.398 337.858 116.836 331.344 119.018 324.818C121.779 316.725 121.627 313.08 120.904 312.625C120.684 312.513 117.583 314.051 114.037 316.15C106.656 320.456 91.7473 328.274 88.2591 329.588C84.7704 330.96 85.0467 332.138 89.4487 334.748C91.1088 335.717 92.4902 336.604 92.8259 336.878C92.8842 336.93 92.8691 336.982 92.7883 336.974C90.9893 336.767 80.0157 334.202 78.4717 334.262C77.2957 334.252 73.6477 335.344 69.7602 336.933C57.2061 341.936 44.8352 346.162 31.242 347.292C24.8058 347.83 18.6299 346.336 14.5238 340.996C11.2244 336.706 13.2143 331.912 18.702 331.417C17.7092 333.142 17.4703 335.24 18.1448 337.12C19.6876 341.394 25.282 342.971 29.2573 341.441C32.9288 340.18 34.7722 336.164 34.0108 332.462C33.1369 327.341 29.2734 322.833 24.5802 320.75C17.0094 317.393 7.61733 319.727 4.4916 325.804C-0.765384 336.036 10.2764 350.09 20.4542 356.233C22.5857 357.912 26.434 359.966 32.0428 362.417C57.381 373.952 91.039 378.868 122.411 377.924C125.398 375.901 130.269 372.814 133.097 371.421C133.731 371.103 134.342 371.895 133.874 372.427C132.338 374.066 130.013 376.925 130.583 377.276C130.969 377.668 133.212 377.519 137.024 376.994C144.259 375.941 152.326 376.342 158.478 378.079C164.967 379.906 180.921 386.084 187.574 388.523C205.733 395.58 243.672 408.578 247.348 408.529C248.413 408.539 249.812 408.331 250.542 407.999C280.006 398.318 311.586 384.534 335.177 363.988C333.789 363.095 332.392 362.208 331.004 361.314C330.784 361.173 330.543 361.002 330.516 360.737C330.476 360.311 331.014 360.088 331.449 360.04C334.186 359.741 337.066 360.699 339.64 359.723C340.812 359.277 341.797 358.478 342.767 357.678C355.539 347.102 367.891 335.794 378.638 323.135C380.955 320.401 376.77 319.916 374.752 319.516L374.766 319.531ZM196.889 183.756C196.909 181.508 198.748 179.703 200.989 179.722C203.231 179.742 205.045 181.58 205.025 183.827L204.815 207.767C204.815 207.833 204.8 207.892 204.792 207.95L196.692 207.879C196.693 207.82 196.671 207.754 196.672 207.695L196.882 183.756L196.889 183.756ZM98.7745 365.118C82.5609 364.99 66.6535 360.957 51.3908 355.483C52.5696 354.333 54.3909 353.673 55.9472 353.062C57.024 352.638 58.0863 352.206 59.1117 351.775C68.4575 348.022 74.0885 346.271 67.4908 349.292C65.6313 350.113 62.3695 351.598 60.2885 352.534C57.9272 353.579 56.5151 354.514 56.6219 354.912C56.9521 355.811 68.9669 359.501 78.0786 361.484C82.9426 362.533 88.4274 363.198 97.669 363.786C101.709 364.049 105.75 364.29 109.79 364.583C106.104 364.984 102.435 365.15 98.7818 365.125L98.7745 365.118ZM139.382 245.621C141.631 245.641 143.43 247.478 143.411 249.719L143.205 273.195L135.069 273.124L135.274 249.647C135.294 247.4 137.133 245.601 139.374 245.621L139.382 245.621ZM145.705 345.981C144.832 344.945 148.76 343.716 149.786 343.248C153.771 341.439 157.547 339.187 161.054 336.573C168.971 330.663 176.809 321.931 180.756 312.768C181.1 312.088 181.413 311.54 181.569 311.365C181.621 311.306 181.672 311.366 181.671 311.439C181.436 325.718 172.275 339.404 161.882 348.562C161.305 349.071 160.683 349.587 159.932 349.728C159.291 349.847 158.646 349.68 158.015 349.513C154.385 348.562 150.755 347.605 147.125 346.655C146.348 346.45 145.901 346.225 145.705 345.989L145.705 345.981ZM279.829 380.774C268.742 386.164 257.499 390.885 250.305 393.114L247.718 393.965C247.57 394.015 247.416 394.014 247.27 393.961L235.483 390.229C222.407 386.03 205.827 379.831 189.415 373.024C177.47 368.049 169.653 365.181 165.12 364.128C162.325 363.486 161.486 363.596 155.866 364.884C152.522 365.685 148.845 366.71 147.747 367.097C147.378 367.226 148.357 366.273 148.438 366.193C153.559 361.433 160.513 360.591 167.073 359.289C175.003 357.713 182.926 356.137 190.856 354.561C189.582 354.814 188.11 355.881 186.929 356.444C185.66 357.057 184.383 357.663 183.098 358.254C180.25 359.574 177.365 360.827 174.372 361.792C173.362 362.121 172.681 362.673 172.676 363.29C172.669 364.076 174.345 364.929 179.927 366.998C183.949 368.546 192.102 371.755 198.071 374.158C218.952 382.686 244.305 391.695 247.392 391.722C249.354 391.739 260.424 387.524 276.176 380.779C282.366 378.144 288.94 375.293 290.799 374.523C297.491 371.673 291.692 374.979 279.822 380.752L279.829 380.774ZM356.652 325.705L352.941 329.793C348.696 334.516 343.451 339.121 338.882 342.21C337.758 342.927 338.776 341.651 341.262 339.035C347.255 332.873 351.444 327.929 351.452 326.974C351.457 326.357 349.053 325.667 341.84 324.26C327.854 321.559 327.913 321.449 342.351 322.92C347.499 323.413 353.043 324.079 354.666 324.262L356.207 324.481C356.787 324.567 357.046 325.267 356.645 325.705L356.652 325.705Z" fill="#F7C873"/>
<path d="M202.879 22.8581L210.564 0.907492C315.403 5.94778 398.787 91.483 400.855 196.607L378.142 202.826L400.645 210.696C398.825 247.342 387.151 281.361 368.241 310.181C367.935 310.649 367.396 310.901 366.845 310.837C364.944 310.622 362.998 310.407 361.001 310.176C359.899 310.049 359.336 308.81 359.955 307.89C377.857 281.409 389.325 250.201 392.083 216.498C392.133 215.86 391.763 215.254 391.163 215.014L361.126 202.798C360.511 202.551 360.519 201.669 361.138 201.432L391.392 189.738C391.989 189.508 392.376 188.909 392.331 188.269C386.304 93.5315 311.346 17.2377 216.691 9.47274C216.052 9.42306 215.445 9.79218 215.205 10.3851L210.248 22.4995L210.292 22.4999L207.828 28.4875L207.792 28.4872L202.895 40.4479C202.647 41.0628 201.772 41.0551 201.528 40.4359L196.841 28.3911L196.818 28.3909L194.461 22.3611L194.49 22.3614L189.746 10.1618C189.516 9.56477 188.916 9.18508 188.276 9.22354C93.5808 15.3059 17.334 90.1412 9.52238 184.647C9.47267 185.286 9.84255 185.892 10.4358 186.132L40.6622 198.437C41.2775 198.685 41.2698 199.559 40.6502 199.804L10.198 211.577C9.60065 211.807 9.21286 212.406 9.2587 213.046C11.4234 246.982 22.4295 278.543 40.0253 305.444C40.6344 306.368 40.0431 307.604 38.9398 307.712C36.9388 307.907 34.9817 308.096 33.0837 308.278C32.532 308.331 31.9975 308.07 31.7003 307.597C12.9282 278.016 1.72174 243.193 0.768066 205.863L24.4831 198.616L0.8782 192.194C5.26966 86.7798 91.158 2.74646 196.806 0.703491L202.879 22.8581ZM26.8685 211.555C27.7904 211.195 28.7918 211.836 28.864 212.828L28.8564 212.836C31.2007 246.413 43.1896 277.365 62.0907 302.927C62.759 303.836 62.2184 305.125 61.0999 305.262L57.5169 305.708C56.9797 305.776 56.452 305.544 56.1398 305.108C37.3595 279.173 25.3947 247.993 22.8463 214.23C22.8005 213.583 23.181 212.977 23.7858 212.747L26.8685 211.555ZM372.522 215.945C372.611 214.961 373.617 214.331 374.539 214.706L377.601 215.953C378.201 216.2 378.578 216.806 378.513 217.452L378.513 217.46C375.375 250.96 362.985 281.742 343.937 307.243C343.617 307.673 343.078 307.896 342.543 307.818C341.361 307.646 340.172 307.474 338.975 307.294C337.867 307.123 337.349 305.833 338.025 304.943C357.18 279.818 369.584 249.256 372.522 215.945ZM217.696 23.0498C304.042 31.1532 372.298 100.63 378.794 187.085C378.84 187.732 378.46 188.331 377.855 188.568L374.773 189.768C373.851 190.127 372.849 189.487 372.777 188.495C366.908 104.241 300.336 36.4691 216.181 29.0386C215.19 28.9491 214.566 27.9371 214.942 27.0221L216.196 23.962C216.444 23.3619 217.05 22.9927 217.696 23.0498ZM187.084 22.7737C187.732 22.728 188.331 23.1082 188.568 23.7127L189.769 26.7938C190.128 27.7152 189.487 28.7234 188.495 28.7882L188.502 28.7883C104.296 34.7202 36.5757 101.19 29.1132 185.216C29.0238 186.2 28.0185 186.83 27.0957 186.454L24.0343 185.208C23.4338 184.961 23.0571 184.355 23.1215 183.709C31.2501 97.4918 100.676 29.3401 187.084 22.7737Z" fill="#F7C873"/>
<path d="M121.613 99.5502L130.206 102.814C130.529 102.934 130.525 103.39 130.2 103.504L121.551 106.617C121.448 106.653 121.374 106.733 121.329 106.835L118.063 115.424C117.943 115.746 117.487 115.742 117.373 115.418L114.258 106.773C114.222 106.67 114.142 106.596 114.04 106.551L105.447 103.287C105.124 103.167 105.128 102.711 105.453 102.597L114.102 99.4843C114.205 99.4485 114.279 99.3684 114.324 99.2659L117.59 90.6775C117.71 90.3553 118.166 90.3593 118.28 90.6835L121.395 99.3279C121.43 99.4311 121.511 99.5052 121.613 99.5502Z" fill="#F7C873"/>
<path d="M311.733 206.367L316.788 208.285C317.11 208.405 317.106 208.861 316.782 208.975L311.694 210.804C311.591 210.84 311.517 210.92 311.472 211.022L309.553 216.075C309.433 216.397 308.977 216.393 308.862 216.068L307.033 210.984C306.997 210.88 306.917 210.806 306.814 210.761L301.759 208.844C301.437 208.723 301.441 208.268 301.765 208.153L306.853 206.324C306.956 206.289 307.03 206.208 307.075 206.106L308.994 201.054C309.114 200.732 309.57 200.736 309.685 201.06L311.515 206.145C311.55 206.248 311.631 206.322 311.733 206.367Z" fill="#F7C873"/>
</svg>
