<svg width="268" height="109" viewBox="0 0 268 109" fill="none" xmlns="http://www.w3.org/2000/svg">
<path d="M24.28 44.7679C21.208 44.7679 18.264 44.3626 15.448 43.5519C12.632 42.6986 10.1147 41.4186 7.89599 39.7119C5.71999 37.9626 3.99199 35.7866 2.71199 33.1839C1.43199 30.5812 0.791992 27.5092 0.791992 23.9679C0.791992 19.8719 1.51733 16.3732 2.96799 13.4719C4.46133 10.5279 6.42399 8.13858 8.85599 6.30391C11.288 4.42658 13.9547 3.06124 16.856 2.20791C19.7573 1.31191 22.616 0.863911 25.432 0.863911C26.7547 0.863911 28.1413 0.970577 29.592 1.18391C31.0427 1.39724 32.3867 1.65324 33.624 1.95191C34.8613 2.25058 35.8213 2.52791 36.504 2.78391L35.864 7.13591C33.56 6.15458 31.2773 5.30124 29.016 4.57591C26.7973 3.85058 24.3013 3.48791 21.528 3.48791C17.0053 4.51191 13.5493 6.75191 11.16 10.2079C8.77066 13.6212 7.57599 17.8666 7.57599 22.9439C7.57599 27.2106 8.34399 30.8159 9.87999 33.7599C11.4587 36.6612 13.592 38.8586 16.28 40.3519C18.968 41.8026 22.04 42.5279 25.496 42.5279C27.7573 42.5279 29.9973 42.2506 32.216 41.6959C34.4347 41.0986 36.2053 40.2239 37.528 39.0719V42.5919C36.248 43.1039 34.8187 43.5306 33.24 43.8719C31.6613 44.1706 30.0827 44.3839 28.504 44.5119C26.968 44.6826 25.56 44.7679 24.28 44.7679Z" fill="#F7C873"/>
<path d="M46.4775 43.9999L65.4855 0.60791H66.4455L85.4535 43.9999H78.4775L73.6775 32.4799H54.6695L49.9335 43.9999H46.4775ZM55.6295 30.0479H72.6535L64.2055 9.31191L55.6295 30.0479Z" fill="#F7C873"/>
<path d="M124.295 44.8959L109.447 23.7759H104.519V43.9999H98.2475V1.63191H112.071C114.845 1.63191 117.341 2.05858 119.559 2.91191C121.778 3.72258 123.527 4.93858 124.807 6.55991C126.13 8.13858 126.791 10.1012 126.791 12.4479C126.791 15.4772 125.639 17.8879 123.335 19.6799C121.031 21.4292 118.109 22.6239 114.567 23.2639L131.719 43.9999L124.295 44.8959ZM104.519 21.8559H108.615C111.73 21.8559 114.098 21.4079 115.719 20.5119C117.383 19.6159 118.535 18.4852 119.175 17.1199C119.815 15.7119 120.135 14.2612 120.135 12.7679C120.135 12.5546 120.071 12.0852 119.943 11.3599C119.858 10.5919 119.602 9.73858 119.175 8.79991C118.749 7.81858 118.045 6.90124 117.063 6.04791C116.125 5.15191 114.802 4.46924 113.095 3.99991C111.858 3.99991 110.386 4.10658 108.679 4.31991C107.015 4.53325 105.629 4.78924 104.519 5.08791V21.8559Z" fill="#F7C873"/>
<path d="M153.716 43.9999V4.70391C153.033 4.53324 152.351 4.40524 151.668 4.31991C150.985 4.23458 150.217 4.19191 149.364 4.19191L140.724 6.17591L140.34 1.63191H173.3L172.98 6.17591L164.276 4.19191C163.423 4.19191 162.655 4.23458 161.972 4.31991C161.289 4.40524 160.607 4.53324 159.924 4.70391V43.9999H153.716Z" fill="#F7C873"/>
<path d="M177.178 43.9999L196.186 0.60791H197.145L216.154 43.9999H209.178L204.378 32.4799H185.369L180.633 43.9999H177.178ZM186.329 30.0479H203.354L194.906 9.31191L186.329 30.0479Z" fill="#F7C873"/>
<path d="M4.24799 108L6.61599 65.6319H12.568L27.352 97.9519L41.496 65.6319H48.024L50.392 108H43.864L42.136 71.5839H41.88L25.752 108H24.856L9.04799 73.0559H8.79199L7.06399 108H4.24799Z" fill="#F7C873"/>
<path d="M62.915 108L81.923 64.6079H82.883L101.891 108H94.915L90.115 96.4799H71.107L66.371 108H62.915ZM72.067 94.0479H89.091L80.643 73.3119L72.067 94.0479Z" fill="#F7C873"/>
<path d="M133.211 108.768C130.224 108.768 127.323 108.363 124.507 107.552C121.734 106.699 119.216 105.419 116.955 103.712C114.736 102.005 112.966 99.8506 111.643 97.2479C110.363 94.6452 109.723 91.5732 109.723 88.0319C109.723 83.9359 110.47 80.4372 111.963 77.5359C113.499 74.5919 115.483 72.1812 117.915 70.3039C120.39 68.4266 123.056 67.0612 125.915 66.2079C128.816 65.3119 131.632 64.8639 134.363 64.8639C135.686 64.8639 137.072 64.9706 138.523 65.1839C139.974 65.3972 141.318 65.6532 142.555 65.9519C143.792 66.2506 144.752 66.5492 145.435 66.8479L144.795 71.1359C142.32 70.0692 139.931 69.1946 137.627 68.5119C135.323 67.8292 132.934 67.4879 130.459 67.4879C126.192 68.5546 122.8 70.8372 120.283 74.3359C117.766 77.7919 116.507 82.0159 116.507 87.0079C116.507 91.2746 117.275 94.8586 118.811 97.7599C120.39 100.661 122.523 102.859 125.211 104.352C127.899 105.803 130.971 106.528 134.427 106.528C135.408 106.528 136.39 106.485 137.371 106.4C138.352 106.272 139.312 106.101 140.251 105.888V89.7599H146.459V106.592C145.179 107.104 143.75 107.531 142.171 107.872C140.592 108.171 139.014 108.384 137.435 108.512C135.899 108.683 134.491 108.768 133.211 108.768Z" fill="#F7C873"/>
<path d="M163.335 108V65.6319H169.223V108H163.335Z" fill="#F7C873"/>
<path d="M206.693 108.768C203.621 108.768 200.677 108.363 197.861 107.552C195.045 106.699 192.527 105.419 190.309 103.712C188.133 101.963 186.404 99.7866 185.124 97.1839C183.844 94.5812 183.204 91.5092 183.204 87.9679C183.204 83.8719 183.93 80.3732 185.38 77.4719C186.874 74.5279 188.836 72.1386 191.268 70.3039C193.7 68.4266 196.367 67.0612 199.268 66.2079C202.17 65.3119 205.028 64.8639 207.844 64.8639C209.167 64.8639 210.554 64.9706 212.005 65.1839C213.455 65.3972 214.799 65.6532 216.036 65.9519C217.274 66.2506 218.234 66.5279 218.917 66.7839L218.277 71.1359C215.973 70.1546 213.69 69.3012 211.428 68.5759C209.21 67.8506 206.714 67.4879 203.941 67.4879C199.418 68.5119 195.962 70.7519 193.572 74.2079C191.183 77.6212 189.988 81.8666 189.988 86.9439C189.988 91.2106 190.756 94.8159 192.292 97.7599C193.871 100.661 196.005 102.859 198.693 104.352C201.381 105.803 204.452 106.528 207.908 106.528C210.17 106.528 212.41 106.251 214.628 105.696C216.847 105.099 218.618 104.224 219.941 103.072V106.592C218.661 107.104 217.231 107.531 215.652 107.872C214.074 108.171 212.495 108.384 210.917 108.512C209.381 108.683 207.973 108.768 206.693 108.768Z" fill="#F7C873"/>
<path d="M228.89 108L247.898 64.6079H248.858L267.866 108H260.89L256.09 96.4799H237.082L232.346 108H228.89ZM238.042 94.0479H255.066L246.618 73.3119L238.042 94.0479Z" fill="#F7C873"/>
</svg>
