<svg width="330" height="337" viewBox="0 0 330 337" fill="none" xmlns="http://www.w3.org/2000/svg">
<path d="M164.455 44.7414C164.358 45.0749 164.024 47.8521 163.739 50.8718C161.029 78.2982 158.47 112.831 140.315 134.722C138.314 137.117 137.889 138.984 139.314 138.984C139.793 138.984 141.982 138.457 144.171 137.832C150.678 136.492 157.245 134.958 166.547 134.958C173.763 134.958 182.319 136.062 187.685 137.972C192.257 139.597 192.494 138.451 188.637 133.23C179.638 121.017 174.878 106.895 170.64 79.7414C168.924 69.0146 166.068 47.561 166.068 45.6934C166.068 44.6383 165.831 44.1593 165.352 44.1593C164.922 44.1593 164.546 44.4443 164.449 44.7353L164.455 44.7414Z" fill="#F7C873"/>
<path d="M114.374 135.803C114.314 136.009 114.114 137.701 113.938 139.538C112.276 156.268 110.706 177.322 99.5728 190.674C98.348 192.135 98.0812 193.275 98.9604 193.275C99.2515 193.275 100.598 192.954 101.938 192.572C105.928 191.753 109.954 190.82 115.66 190.82C120.087 190.82 125.338 191.493 128.624 192.657C131.426 193.651 131.571 192.948 129.206 189.765C123.688 182.318 120.766 173.702 118.164 157.142C117.115 150.599 115.363 137.519 115.363 136.379C115.363 135.736 115.217 135.445 114.926 135.445C114.666 135.445 114.429 135.621 114.368 135.797L114.374 135.803Z" fill="#F7C873"/>
<path d="M191.345 210.63C191.345 210.242 191.667 209.927 192.055 209.933C193.158 209.951 194.135 209.987 194.783 210.036C199.471 210.394 199.677 211.576 199.58 215.839C199.483 220.102 199.616 224.377 199.968 228.627C200.653 236.989 202.181 245.285 204.534 253.337C204.934 254.702 204.595 255.878 202.945 255.272C198.907 253.786 194.711 251.233 192.109 247.68C191.606 246.994 191.351 246.152 191.351 245.297V210.624L191.345 210.63Z" fill="#F7C873"/>
<path d="M192.084 165.662C192.296 165.662 192.399 165.881 192.399 166.354C192.399 167.197 193.672 176.88 194.436 181.719C196.322 193.974 198.439 200.347 202.447 205.859C204.163 208.218 204.06 208.733 202.022 208C199.633 207.139 195.825 206.635 192.611 206.635C192.175 206.635 191.75 206.647 191.338 206.659V168.919C191.344 168.84 191.35 168.761 191.362 168.682C191.489 167.324 191.635 166.069 191.677 165.917C191.72 165.79 191.89 165.656 192.078 165.656L192.084 165.662Z" fill="#F7C873"/>
<path d="M24.7562 263.966C29.0433 265.991 31.0019 268.387 32.0631 273.086C32.6573 275.596 32.5906 278.519 31.8872 280.975C40.619 279.338 49.5327 276.063 57.8886 273.056C66.966 269.781 75.5766 265.682 83.8657 260.746C89.3292 257.49 95.4414 254.088 98.4673 248.2C97.0605 248.413 95.4293 249.177 93.9619 249.565C89.1594 250.826 84.369 252.148 79.5665 253.385C72.7509 255.137 65.8685 256.629 58.9376 257.872C52.1947 259.079 31.584 261.438 28.0731 261.68C27.0423 261.753 21.2029 262.292 24.7623 263.978L24.7562 263.966Z" fill="#F7C873"/>
<path d="M227.718 130.359C227.718 130.359 227.76 130.359 227.791 130.338C227.821 130.317 227.851 130.286 227.888 130.239C227.954 130.145 228.033 130.005 228.112 129.833C228.227 129.568 228.342 129.224 228.44 128.844L228.53 128.449C229.434 123.26 229.798 121.407 230.35 119.429L230.598 118.565C231.253 116.187 231.775 114.839 232.969 113.855C234.012 112.996 235.57 112.414 238.178 111.664L239.36 111.331C240.488 111.008 241.319 110.722 241.853 110.446C242.119 110.311 242.313 110.181 242.429 110.051C242.544 109.926 242.586 109.801 242.556 109.676C242.532 109.551 242.429 109.426 242.253 109.296C242.077 109.161 241.822 109.025 241.495 108.885C240.919 108.635 240.112 108.37 239.069 108.078L238.608 107.953C234.418 106.86 232.472 105.799 231.665 104.258L231.593 104.107C231.441 103.774 231.205 103.004 230.932 101.989C230.659 100.974 230.35 99.7198 230.04 98.4083C229.507 96.1131 228.991 93.6566 228.725 92.064L228.627 91.4395C228.537 90.6536 228.403 90.0811 228.239 89.7064C228.155 89.519 228.07 89.3837 227.973 89.2952C227.876 89.2068 227.779 89.1651 227.669 89.1651C227.494 89.1651 227.342 89.2588 227.227 89.4254C227.112 89.5919 227.045 89.8313 227.045 90.1071C227.045 90.7941 226.717 92.7042 226.251 94.9005C225.844 96.8261 225.335 98.9704 224.85 100.719L224.644 101.443C224.359 102.431 224.031 103.332 223.692 104.05C223.352 104.763 223 105.304 222.661 105.57C222.515 105.705 222.254 105.866 221.903 106.043C221.551 106.225 221.108 106.423 220.611 106.626C219.738 106.985 218.683 107.36 217.61 107.693L217.149 107.834C215.857 108.219 214.742 108.609 213.953 108.942C213.559 109.109 213.244 109.26 213.025 109.385C212.916 109.447 212.837 109.504 212.783 109.551C212.759 109.577 212.734 109.598 212.722 109.614C212.71 109.634 212.704 109.65 212.704 109.66C212.704 109.692 212.722 109.733 212.765 109.78C212.807 109.827 212.862 109.879 212.941 109.931C213.098 110.04 213.323 110.16 213.608 110.29C214.172 110.545 214.942 110.826 215.791 111.092C220.441 112.424 222.849 113.715 223.843 115.422C224.104 115.838 224.395 116.53 224.692 117.405C224.989 118.279 225.299 119.336 225.59 120.47C226.099 122.458 226.56 124.701 226.839 126.663L226.948 127.486C227.039 128.251 227.172 128.964 227.312 129.495C227.384 129.76 227.457 129.973 227.53 130.13C227.566 130.208 227.603 130.265 227.633 130.307C227.657 130.338 227.682 130.353 227.7 130.364H227.718V130.359Z" fill="#F7C873"/>
<path d="M309.369 261.879C307.483 261.522 305.573 261.358 303.675 261.073C299.461 260.43 295.216 259.957 290.978 259.502C282.222 258.569 273.557 257.422 264.898 255.894C262.157 255.409 259.428 254.894 256.699 254.342C255.414 254.081 249.483 251.929 248.525 252.541L246.051 254.124C242.771 256.574 231.583 260.533 233.36 259.229C236.847 256.671 239.642 254.251 241.904 250.88C232.299 248.333 223.767 245.422 217.564 242.142C215.702 241.754 216.078 243.161 218.831 249.024C222.069 255.864 226.132 266.943 228.582 270.32C229.509 271.521 230.843 272.861 231.632 273.231C234.73 274.85 245.5 277.481 257.148 279.422C261.217 280.113 264.218 280.81 263.849 280.95C263.479 281.089 258.67 282.429 253.219 283.909C246.1 285.898 243.238 286.868 243.141 287.377C243.001 288.166 247.391 291.495 251.6 293.666C252.831 294.32 253.807 294.939 253.916 295.139C253.182 295.661 245.591 294.642 240.649 293.763C228.315 291.719 211.761 284.158 202.332 276.845C201.361 275.965 200.992 276.014 200.992 277.027C200.992 277.857 204.502 281.508 208.85 285.067C214.211 289.506 219.25 292.465 227.799 296.158C228.879 296.619 227.769 296.972 224.47 297.219C221.742 297.401 214.12 297.449 207.601 297.31C196.996 297.104 186.311 296.855 176.967 291.179C181.721 292.392 186.523 293.611 191.423 293.763C192.193 293.793 192.981 293.314 192.272 292.641C191.332 291.665 190.125 290.991 188.967 290.282C181.866 285.922 175.924 279.567 172.607 271.884C172.54 271.727 171.134 267.895 170.018 269.204C164.057 276.196 153.421 283.29 157.078 279.003C160.128 275.444 161.559 273.225 164.057 268.095C167.847 260.236 170.066 250.437 171.588 234.586C172.838 222.247 173.116 219.797 173.207 221.919C173.298 225.157 175.099 237.818 176.258 243.276C177.786 250.576 180.187 258.156 180.975 258.156C181.715 258.156 181.715 257.465 181.115 253.766C178.877 241.754 178.071 202.279 178.428 179.806V143.715C178.428 142.89 177.877 142.169 177.082 141.962C170.521 139.883 160.401 140.137 153.706 142.429C152.936 142.654 152.415 143.363 152.415 144.164C152.439 144.4 152.366 180.849 152.439 181.062C152.33 208.961 151.699 220.894 150.377 229.966C144.562 269.847 147.455 219.936 147.6 205.359C147.6 205.026 147.333 204.777 146.994 204.777H140.396C140.063 204.777 139.79 205.05 139.79 205.383V212.235C139.79 212.563 139.535 212.83 139.208 212.842L133.381 213.072C133.059 213.084 132.805 213.345 132.799 213.666C132.053 247.508 125.54 276.414 124.667 234.987C124.794 223.878 124.667 212.763 124.867 201.654C124.91 198.646 124.637 196.294 121.38 195.627C118.3 194.996 115.123 194.851 112 195.19C109.865 195.421 104.584 195.615 104.584 198.653V227.498C104.317 257.635 104.905 263.347 96.1552 276.178C94.9061 277.839 91.4437 281.12 91.4376 280.386C91.4376 280.155 91.6196 279.786 91.8985 279.646C93.0567 278.906 96.6707 273.497 98.4231 268.095C100.642 261.394 100.491 258.387 99.8905 258.017C99.7086 257.926 97.1618 259.217 94.2512 260.976C88.1935 264.584 75.9508 271.145 73.0826 272.254C70.2145 273.413 70.451 274.383 74.1014 276.505C75.4778 277.293 76.6239 278.015 76.9028 278.239C76.9513 278.282 76.9392 278.324 76.8725 278.318C75.3869 278.161 66.3155 276.123 65.0421 276.184C64.0719 276.184 61.0703 277.111 57.8747 278.452C47.5542 282.672 37.3792 286.25 26.1734 287.28C20.8676 287.772 15.7619 286.583 12.3359 282.205C9.58295 278.688 11.1899 274.716 15.7134 274.268C14.9069 275.699 14.725 277.433 15.295 278.979C16.5987 282.496 21.2254 283.757 24.4937 282.466C27.5135 281.399 29.0052 278.07 28.3503 275.02C27.5923 270.799 24.3725 267.106 20.4856 265.421C14.2157 262.704 6.48438 264.699 3.94973 269.738C-0.313091 278.221 8.89775 289.742 17.3385 294.739C19.1091 296.109 22.2987 297.777 26.9435 299.76C47.9302 309.098 75.7325 312.912 101.607 311.905C104.056 310.214 108.052 307.63 110.375 306.46C110.896 306.193 111.406 306.842 111.024 307.285C109.768 308.649 107.87 311.026 108.343 311.311C108.665 311.632 110.514 311.493 113.655 311.032C119.616 310.11 126.274 310.383 131.361 311.772C136.728 313.233 149.935 318.218 155.441 320.182C170.473 325.876 201.865 336.33 204.897 336.263C205.776 336.263 206.928 336.082 207.528 335.803C231.765 327.598 257.718 315.992 277.031 298.862C275.879 298.135 274.721 297.413 273.569 296.685C273.387 296.57 273.187 296.431 273.162 296.212C273.126 295.861 273.569 295.673 273.926 295.63C276.182 295.363 278.565 296.133 280.681 295.309C281.646 294.933 282.452 294.266 283.246 293.599C293.706 284.776 303.815 275.353 312.589 264.826C314.481 262.552 311.025 262.183 309.357 261.867L309.369 261.879ZM161.644 151.094C161.644 149.239 163.148 147.735 164.997 147.735C166.847 147.735 168.356 149.239 168.356 151.094V170.856C168.356 170.911 168.344 170.959 168.338 171.008H161.656C161.656 170.959 161.638 170.905 161.638 170.856V151.094H161.644ZM82.0145 301.506C68.6379 301.518 55.4856 298.304 42.8548 293.896C43.819 292.938 45.3167 292.38 46.5961 291.865C47.4814 291.507 48.3546 291.143 49.1975 290.779C56.8803 287.614 61.513 286.128 56.092 288.669C54.5639 289.36 51.8837 290.609 50.1738 291.398C48.2334 292.277 47.0752 293.059 47.1661 293.387C47.4451 294.126 57.3836 297.085 64.9148 298.656C68.935 299.487 73.4647 299.996 81.0929 300.415C84.4279 300.602 87.763 300.772 91.0981 300.984C88.0601 301.342 85.0343 301.506 82.0206 301.512L82.0145 301.506ZM114.65 202.576C116.505 202.576 118.003 204.08 118.003 205.929V225.309H111.29V205.929C111.29 204.074 112.794 202.576 114.644 202.576H114.65ZM120.592 285.37C119.865 284.521 123.097 283.478 123.939 283.084C127.214 281.562 130.312 279.676 133.187 277.493C139.675 272.558 146.078 265.293 149.268 257.701C149.547 257.137 149.801 256.683 149.929 256.537C149.971 256.489 150.014 256.537 150.014 256.598C149.923 268.386 142.464 279.749 133.957 287.383C133.484 287.808 132.974 288.238 132.356 288.36C131.828 288.463 131.295 288.329 130.773 288.196C127.772 287.438 124.77 286.674 121.769 285.916C121.126 285.752 120.756 285.57 120.592 285.376V285.37ZM231.492 313.118C222.384 317.648 213.143 321.626 207.225 323.517L205.097 324.239C204.975 324.281 204.848 324.281 204.727 324.239L194.976 321.243C184.159 317.872 170.436 312.876 156.847 307.376C146.957 303.355 140.487 301.045 136.74 300.208C134.43 299.699 133.738 299.796 129.112 300.9C126.359 301.585 123.333 302.458 122.429 302.785C122.126 302.895 122.927 302.1 122.993 302.034C127.184 298.068 132.914 297.322 138.317 296.2C144.847 294.842 151.372 293.484 157.902 292.125C156.853 292.344 155.647 293.235 154.677 293.708C153.634 294.223 152.585 294.733 151.529 295.23C149.189 296.34 146.818 297.395 144.356 298.213C143.525 298.492 142.967 298.953 142.967 299.462C142.967 300.111 144.356 300.803 148.977 302.47C152.306 303.719 159.055 306.308 163.997 308.249C181.284 315.137 202.265 322.39 204.812 322.39C206.431 322.39 215.532 318.83 228.479 313.148C233.566 310.929 238.969 308.528 240.497 307.879C245.997 305.478 241.237 308.249 231.486 313.1L231.492 313.118ZM294.47 267.106L291.439 270.508C287.97 274.437 283.677 278.276 279.93 280.859C279.008 281.459 279.839 280.398 281.87 278.221C286.77 273.091 290.189 268.98 290.189 268.192C290.189 267.682 288.201 267.131 282.24 266.021C270.682 263.892 270.731 263.802 282.652 264.911C286.903 265.281 291.481 265.79 292.821 265.93L294.095 266.1C294.574 266.166 294.792 266.742 294.464 267.106H294.47Z" fill="#F7C873"/>
<path d="M165.419 18.2431L171.6 0.0687914C258.126 3.47024 327.533 73.4699 330 160.228L311.308 165.525L329.929 171.858C328.693 202.12 319.308 230.285 303.916 254.211C303.667 254.599 303.225 254.811 302.77 254.763C301.199 254.599 299.593 254.435 297.943 254.259C297.034 254.162 296.56 253.143 297.064 252.379C311.641 230.392 320.876 204.549 322.907 176.71C322.944 176.182 322.635 175.685 322.138 175.491L297.27 165.625C296.761 165.425 296.761 164.698 297.27 164.498L322.143 154.626C322.635 154.432 322.95 153.934 322.907 153.407C317.25 75.2511 254.86 12.8186 176.716 7.09444C176.189 7.05806 175.691 7.36713 175.497 7.8583L171.495 17.8938H171.532L169.543 22.8539H169.513L165.559 32.7621C165.359 33.2715 164.638 33.2715 164.431 32.7621L160.478 22.8539H160.459L158.471 17.8938H158.495L154.493 7.8583C154.299 7.36713 153.801 7.05806 153.274 7.09444C75.1969 12.8005 12.8371 75.1237 7.07657 153.189C7.04019 153.716 7.34971 154.214 7.84087 154.408L32.8657 164.346C33.3751 164.546 33.3751 165.267 32.8657 165.474L7.82881 175.412C7.33765 175.606 7.02207 176.104 7.06451 176.631C9.09589 204.628 18.4039 230.599 33.1145 252.677C33.6237 253.435 33.1448 254.459 32.2354 254.557C30.5861 254.732 28.9729 254.902 27.4084 255.066C26.9537 255.114 26.5108 254.902 26.2622 254.514C10.5618 230.233 1.06488 201.57 0.00804054 170.764L19.5198 164.611L0 159.48C2.86013 72.4365 73.1073 2.45112 160.248 0L165.419 18.2431ZM21.5813 175.273C22.3392 174.97 23.17 175.491 23.2367 176.31L23.2305 176.316C25.4074 204.015 35.5218 229.477 51.2996 250.439C51.8574 251.185 51.4208 252.252 50.4991 252.374L47.5464 252.768C47.1038 252.828 46.6667 252.64 46.406 252.282C30.7252 231.011 20.6291 205.361 18.2824 177.51C18.24 176.977 18.5495 176.473 19.0467 176.279L21.5813 175.273ZM306.766 176.394C306.833 175.582 307.657 175.054 308.421 175.358L310.956 176.364C311.453 176.564 311.768 177.062 311.72 177.595V177.601C309.373 205.276 299.374 230.775 283.845 251.961C283.584 252.319 283.141 252.507 282.699 252.446C281.723 252.313 280.74 252.179 279.752 252.04C278.836 251.907 278.4 250.845 278.951 250.106C294.572 229.228 304.583 203.912 306.766 176.394ZM177.644 18.294C248.936 24.3578 305.747 81.2116 311.732 152.527C311.774 153.061 311.465 153.558 310.968 153.758L308.433 154.771C307.676 155.074 306.845 154.553 306.778 153.734C301.327 84.2316 245.916 28.7725 176.438 23.2484C175.619 23.1817 175.097 22.3508 175.4 21.5929L176.413 19.0579C176.613 18.5607 177.111 18.2516 177.644 18.294ZM152.388 18.2878C152.922 18.2453 153.419 18.5548 153.62 19.0521L154.632 21.5866C154.935 22.3446 154.414 23.1814 153.595 23.2421H153.601C84.1773 28.7481 28.7909 84.1041 23.2425 153.516C23.1758 154.328 22.3511 154.856 21.5871 154.553L19.0525 153.546C18.5553 153.346 18.2402 152.849 18.2887 152.315C24.3707 81.0904 81.1515 24.3334 152.388 18.2878Z" fill="#F7C873"/>
<path d="M98.9309 82.1346L106.044 84.7662C106.311 84.8633 106.311 85.2392 106.044 85.3362L98.9309 87.9679C98.846 87.9982 98.7854 88.0649 98.749 88.1498L96.1174 95.2626C96.0203 95.5294 95.6444 95.5294 95.5474 95.2626L92.9157 88.1498C92.8854 88.0649 92.8187 88.0043 92.7338 87.9679L85.621 85.3362C85.3542 85.2392 85.3542 84.8633 85.621 84.7662L92.7338 82.1346C92.8187 82.1042 92.8793 82.0375 92.9157 81.9526L95.5474 74.8398C95.6444 74.573 96.0203 74.573 96.1174 74.8398L98.749 81.9526C98.7793 82.0375 98.846 82.0982 98.9309 82.1346Z" fill="#F7C873"/>
<path d="M256.549 168.93L260.733 170.477C261 170.574 261 170.95 260.733 171.047L256.549 172.593C256.464 172.623 256.404 172.69 256.367 172.775L254.821 176.959C254.724 177.226 254.348 177.226 254.251 176.959L252.705 172.775C252.674 172.69 252.608 172.629 252.523 172.593L248.339 171.047C248.072 170.95 248.072 170.574 248.339 170.477L252.523 168.93C252.608 168.9 252.668 168.833 252.705 168.748L254.251 164.564C254.348 164.298 254.724 164.298 254.821 164.564L256.367 168.748C256.398 168.833 256.464 168.894 256.549 168.93Z" fill="#F7C873"/>
</svg>
