<svg width="52" height="52" viewBox="0 0 52 52" fill="none" xmlns="http://www.w3.org/2000/svg">
<path d="M25.999 0.5C32.76 0.50714 39.2427 3.19584 44.0234 7.97656C48.6547 12.6078 51.3224 18.8359 51.4912 25.3672L51.5 26.001C51.4998 31.0441 50.0039 35.9738 47.2021 40.167C44.4003 44.3603 40.4181 47.6286 35.7588 49.5586C31.0993 51.4886 25.9719 51.9937 21.0254 51.0098C16.0789 50.0258 11.535 47.5975 7.96875 44.0312C4.40251 40.465 1.97416 35.9211 0.990234 30.9746C0.00634864 26.0281 0.51139 20.9007 2.44141 16.2412C4.37144 11.5819 7.63974 7.59974 11.833 4.79785C16.0262 1.99606 20.9559 0.500195 25.999 0.5ZM26 3.49902C20.2099 3.49903 14.6424 5.73048 10.4561 9.73047C6.26976 13.7304 3.78695 19.1906 3.52344 24.9746C3.25998 30.7587 5.23662 36.4221 9.04199 40.7861C12.8473 45.1499 18.1882 47.8788 23.9541 48.4053L24.5 48.4551V31.5H18C17.6022 31.5 17.2208 31.3418 16.9395 31.0605C16.6582 30.7792 16.5 30.3978 16.5 30C16.5 29.6022 16.6582 29.2208 16.9395 28.9395C17.2208 28.6582 17.6022 28.5 18 28.5H24.5V22C24.5 20.0109 25.2898 18.1028 26.6963 16.6963C28.1028 15.2898 30.0109 14.5 32 14.5H36C36.3978 14.5 36.7792 14.6582 37.0605 14.9395C37.3419 15.2208 37.5 15.6022 37.5 16C37.5 16.3978 37.3419 16.7792 37.0605 17.0605C36.7792 17.3418 36.3978 17.5 36 17.5H32C30.8065 17.5 29.6623 17.9744 28.8184 18.8184C27.9744 19.6623 27.5 20.8065 27.5 22V28.5H34C34.3978 28.5 34.7792 28.6582 35.0605 28.9395C35.3419 29.2208 35.5 29.6022 35.5 30C35.5 30.3978 35.3419 30.7792 35.0605 31.0605C34.7792 31.3418 34.3978 31.5 34 31.5H27.5V48.4551L28.0459 48.4053C33.8118 47.8788 39.1527 45.1499 42.958 40.7861C46.7634 36.4221 48.74 30.7587 48.4766 24.9746C48.2131 19.1906 45.7302 13.7304 41.5439 9.73047C37.3576 5.73049 31.7901 3.49902 26 3.49902Z" fill="url(#paint0_linear_5709_280)" stroke="#1D223B"/>
<defs>
<linearGradient id="paint0_linear_5709_280" x1="52" y1="25.9999" x2="0" y2="25.9999" gradientUnits="userSpaceOnUse">
<stop stop-color="#B66F1C"/>
<stop offset="1" stop-color="#F7C873"/>
</linearGradient>
</defs>
</svg>
