<svg width="60" height="54" viewBox="0 0 60 54" fill="none" xmlns="http://www.w3.org/2000/svg">
<mask id="path-1-inside-1_5709_234" fill="white">
<path d="M59.9999 23.9999C59.9995 22.4669 59.5587 20.9662 58.7299 19.6765C57.901 18.3869 56.7191 17.3625 55.3247 16.7254C53.9303 16.0883 52.3823 15.8652 50.8647 16.0827C49.3472 16.3002 47.9241 16.9492 46.7649 17.9524C42.5774 15.7274 37.5749 14.3824 32.3499 14.0699L33.6474 6.27741L38.0774 6.95741C38.3021 8.35483 39.0137 9.6278 40.0862 10.5513C41.1588 11.4749 42.5233 11.9895 43.9386 12.0043C45.3539 12.0191 46.7289 11.5331 47.8205 10.6321C48.9121 9.73118 49.65 8.47334 49.9039 7.08092C50.1578 5.6885 49.9113 4.25115 49.2079 3.02292C48.5045 1.79468 47.3896 0.854647 46.0602 0.368958C44.7307 -0.116732 43.2724 -0.116803 41.9429 0.368756C40.6134 0.854315 39.4984 1.79424 38.7949 3.02241L32.2949 2.02241C31.7749 1.94223 31.2442 2.0702 30.8179 2.37858C30.3916 2.68697 30.104 3.15092 30.0174 3.66991L28.2999 14.0399C22.8399 14.2749 17.5949 15.6349 13.2349 17.9524C11.6426 16.6073 9.58831 15.9368 7.50914 16.0835C5.42998 16.2302 3.49017 17.1826 2.1026 18.738C0.71503 20.2933 -0.0107191 22.3288 0.0798246 24.4112C0.170368 26.4936 1.07005 28.4584 2.58739 29.8874C2.19852 31.2237 2.00073 32.6082 1.99989 33.9999C1.99989 39.4824 4.99989 44.5874 10.4774 48.3724C15.7199 51.9999 22.6524 53.9999 29.9999 53.9999C37.3474 53.9999 44.2799 51.9999 49.5224 48.3724C54.9999 44.5874 57.9999 39.4824 57.9999 33.9999C57.999 32.6082 57.8012 31.2237 57.4124 29.8874C58.2256 29.137 58.8752 28.2267 59.3204 27.2136C59.7657 26.2006 59.997 25.1065 59.9999 23.9999ZM43.9999 3.99991C44.3954 3.99991 44.7821 4.1172 45.111 4.33697C45.4399 4.55673 45.6963 4.86909 45.8476 5.23454C45.999 5.59999 46.0386 6.00212 45.9615 6.39009C45.8843 6.77805 45.6938 7.13441 45.4141 7.41412C45.1344 7.69382 44.778 7.88431 44.3901 7.96148C44.0021 8.03865 43.6 7.99904 43.2345 7.84767C42.8691 7.69629 42.5567 7.43994 42.3369 7.11105C42.1172 6.78215 41.9999 6.39547 41.9999 5.99991C41.9999 5.46947 42.2106 4.96077 42.5857 4.58569C42.9607 4.21062 43.4695 3.99991 43.9999 3.99991ZM54.0324 27.4449C53.616 27.6916 53.3032 28.0809 53.152 28.5406C53.0007 29.0003 53.0213 29.4992 53.2099 29.9449C53.7294 31.2338 53.9976 32.6102 53.9999 33.9999C53.9999 38.1324 51.6024 42.0674 47.2499 45.0824C42.6674 48.2499 36.5424 49.9999 29.9999 49.9999C23.4574 49.9999 17.3324 48.2499 12.7499 45.0824C8.39739 42.0674 5.99989 38.1324 5.99989 33.9999C6.00324 32.6149 6.26962 31.243 6.78489 29.9574C6.97389 29.5123 6.99522 29.0138 6.84492 28.5541C6.69462 28.0945 6.38287 27.7049 5.96739 27.4574C5.45864 27.1541 5.02361 26.7416 4.6937 26.2497C4.36379 25.7578 4.14724 25.1987 4.0597 24.6129C3.97215 24.0271 4.01578 23.4292 4.18745 22.8623C4.35912 22.2955 4.65453 21.7738 5.05236 21.335C5.45019 20.8962 5.94051 20.5512 6.4879 20.325C7.03528 20.0987 7.62608 19.9969 8.21762 20.0268C8.80917 20.0567 9.38669 20.2176 9.90848 20.4978C10.4303 20.7781 10.8833 21.1707 11.2349 21.6474C11.5251 22.046 11.9522 22.3234 12.4344 22.4263C12.9166 22.5292 13.4198 22.4503 13.8474 22.2049L13.9374 22.1499C18.3624 19.4749 24.0624 17.9999 29.9999 17.9999C35.9324 17.9999 41.6324 19.4749 46.0574 22.1499L46.1624 22.2124C46.5894 22.4528 47.0898 22.528 47.5686 22.4239C48.0474 22.3197 48.4713 22.0434 48.7599 21.6474C49.1093 21.1668 49.5615 20.77 50.0835 20.486C50.6054 20.202 51.1841 20.0379 51.7775 20.0055C52.3709 19.9732 52.964 20.0735 53.5138 20.2991C54.0635 20.5247 54.5561 20.8699 54.9557 21.3097C55.3553 21.7495 55.6519 22.2729 55.8239 22.8417C55.996 23.4105 56.0391 24.0105 55.9502 24.598C55.8613 25.1856 55.6426 25.7459 55.31 26.2384C54.9774 26.7308 54.5392 27.143 54.0274 27.4449H54.0324ZM19.9999 33.9999C19.2088 33.9999 18.4354 33.7653 17.7776 33.3258C17.1198 32.8863 16.6071 32.2615 16.3044 31.5306C16.0016 30.7997 15.9224 29.9955 16.0767 29.2195C16.2311 28.4436 16.6121 27.7309 17.1715 27.1715C17.7309 26.6121 18.4436 26.2311 19.2195 26.0768C19.9955 25.9224 20.7997 26.0016 21.5306 26.3044C22.2615 26.6071 22.8862 27.1198 23.3258 27.7776C23.7653 28.4354 23.9999 29.2088 23.9999 29.9999C23.9999 31.0608 23.5785 32.0782 22.8283 32.8283C22.0782 33.5785 21.0608 33.9999 19.9999 33.9999ZM43.9999 29.9999C43.9999 30.791 43.7653 31.5644 43.3258 32.2222C42.8862 32.88 42.2615 33.3927 41.5306 33.6954C40.7997 33.9982 39.9954 34.0774 39.2195 33.923C38.4436 33.7687 37.7309 33.3877 37.1715 32.8283C36.612 32.2689 36.2311 31.5562 36.0767 30.7803C35.9224 30.0043 36.0016 29.2001 36.3044 28.4692C36.6071 27.7383 37.1198 27.1136 37.7776 26.674C38.4354 26.2345 39.2088 25.9999 39.9999 25.9999C41.0608 25.9999 42.0782 26.4213 42.8283 27.1715C43.5785 27.9216 43.9999 28.939 43.9999 29.9999ZM39.7674 41.0624C39.8906 41.2945 39.9669 41.5486 39.9918 41.8102C40.0168 42.0717 39.99 42.3357 39.9129 42.5869C39.8358 42.8381 39.71 43.0717 39.5426 43.2742C39.3752 43.4768 39.1696 43.6444 38.9374 43.7674C36.1853 45.2299 33.1164 45.9948 29.9999 45.9948C26.8834 45.9948 23.8144 45.2299 21.0624 43.7674C20.8303 43.6443 20.6247 43.4767 20.4574 43.2741C20.29 43.0715 20.1642 42.838 20.0872 42.5868C20.0101 42.3356 19.9832 42.0717 20.0082 41.8102C20.0331 41.5486 20.1093 41.2945 20.2324 41.0624C20.3555 40.8303 20.5231 40.6247 20.7257 40.4574C20.9283 40.29 21.1618 40.1643 21.413 40.0872C21.6642 40.0101 21.9281 39.9833 22.1896 40.0082C22.4512 40.0331 22.7053 40.1093 22.9374 40.2324C25.112 41.3885 27.5371 41.9931 29.9999 41.9931C32.4627 41.9931 34.8878 41.3885 37.0624 40.2324C37.2945 40.1092 37.5486 40.0329 37.8102 40.008C38.0717 39.983 38.3357 40.0098 38.5869 40.0869C38.8381 40.164 39.0716 40.2898 39.2742 40.4572C39.4768 40.6246 39.6443 40.8302 39.7674 41.0624Z"/>
</mask>
<path d="M59.9999 23.9999C59.9995 22.4669 59.5587 20.9662 58.7299 19.6765C57.901 18.3869 56.7191 17.3625 55.3247 16.7254C53.9303 16.0883 52.3823 15.8652 50.8647 16.0827C49.3472 16.3002 47.9241 16.9492 46.7649 17.9524C42.5774 15.7274 37.5749 14.3824 32.3499 14.0699L33.6474 6.27741L38.0774 6.95741C38.3021 8.35483 39.0137 9.6278 40.0862 10.5513C41.1588 11.4749 42.5233 11.9895 43.9386 12.0043C45.3539 12.0191 46.7289 11.5331 47.8205 10.6321C48.9121 9.73118 49.65 8.47334 49.9039 7.08092C50.1578 5.6885 49.9113 4.25115 49.2079 3.02292C48.5045 1.79468 47.3896 0.854647 46.0602 0.368958C44.7307 -0.116732 43.2724 -0.116803 41.9429 0.368756C40.6134 0.854315 39.4984 1.79424 38.7949 3.02241L32.2949 2.02241C31.7749 1.94223 31.2442 2.0702 30.8179 2.37858C30.3916 2.68697 30.104 3.15092 30.0174 3.66991L28.2999 14.0399C22.8399 14.2749 17.5949 15.6349 13.2349 17.9524C11.6426 16.6073 9.58831 15.9368 7.50914 16.0835C5.42998 16.2302 3.49017 17.1826 2.1026 18.738C0.71503 20.2933 -0.0107191 22.3288 0.0798246 24.4112C0.170368 26.4936 1.07005 28.4584 2.58739 29.8874C2.19852 31.2237 2.00073 32.6082 1.99989 33.9999C1.99989 39.4824 4.99989 44.5874 10.4774 48.3724C15.7199 51.9999 22.6524 53.9999 29.9999 53.9999C37.3474 53.9999 44.2799 51.9999 49.5224 48.3724C54.9999 44.5874 57.9999 39.4824 57.9999 33.9999C57.999 32.6082 57.8012 31.2237 57.4124 29.8874C58.2256 29.137 58.8752 28.2267 59.3204 27.2136C59.7657 26.2006 59.997 25.1065 59.9999 23.9999ZM43.9999 3.99991C44.3954 3.99991 44.7821 4.1172 45.111 4.33697C45.4399 4.55673 45.6963 4.86909 45.8476 5.23454C45.999 5.59999 46.0386 6.00212 45.9615 6.39009C45.8843 6.77805 45.6938 7.13441 45.4141 7.41412C45.1344 7.69382 44.778 7.88431 44.3901 7.96148C44.0021 8.03865 43.6 7.99904 43.2345 7.84767C42.8691 7.69629 42.5567 7.43994 42.3369 7.11105C42.1172 6.78215 41.9999 6.39547 41.9999 5.99991C41.9999 5.46947 42.2106 4.96077 42.5857 4.58569C42.9607 4.21062 43.4695 3.99991 43.9999 3.99991ZM54.0324 27.4449C53.616 27.6916 53.3032 28.0809 53.152 28.5406C53.0007 29.0003 53.0213 29.4992 53.2099 29.9449C53.7294 31.2338 53.9976 32.6102 53.9999 33.9999C53.9999 38.1324 51.6024 42.0674 47.2499 45.0824C42.6674 48.2499 36.5424 49.9999 29.9999 49.9999C23.4574 49.9999 17.3324 48.2499 12.7499 45.0824C8.39739 42.0674 5.99989 38.1324 5.99989 33.9999C6.00324 32.6149 6.26962 31.243 6.78489 29.9574C6.97389 29.5123 6.99522 29.0138 6.84492 28.5541C6.69462 28.0945 6.38287 27.7049 5.96739 27.4574C5.45864 27.1541 5.02361 26.7416 4.6937 26.2497C4.36379 25.7578 4.14724 25.1987 4.0597 24.6129C3.97215 24.0271 4.01578 23.4292 4.18745 22.8623C4.35912 22.2955 4.65453 21.7738 5.05236 21.335C5.45019 20.8962 5.94051 20.5512 6.4879 20.325C7.03528 20.0987 7.62608 19.9969 8.21762 20.0268C8.80917 20.0567 9.38669 20.2176 9.90848 20.4978C10.4303 20.7781 10.8833 21.1707 11.2349 21.6474C11.5251 22.046 11.9522 22.3234 12.4344 22.4263C12.9166 22.5292 13.4198 22.4503 13.8474 22.2049L13.9374 22.1499C18.3624 19.4749 24.0624 17.9999 29.9999 17.9999C35.9324 17.9999 41.6324 19.4749 46.0574 22.1499L46.1624 22.2124C46.5894 22.4528 47.0898 22.528 47.5686 22.4239C48.0474 22.3197 48.4713 22.0434 48.7599 21.6474C49.1093 21.1668 49.5615 20.77 50.0835 20.486C50.6054 20.202 51.1841 20.0379 51.7775 20.0055C52.3709 19.9732 52.964 20.0735 53.5138 20.2991C54.0635 20.5247 54.5561 20.8699 54.9557 21.3097C55.3553 21.7495 55.6519 22.2729 55.8239 22.8417C55.996 23.4105 56.0391 24.0105 55.9502 24.598C55.8613 25.1856 55.6426 25.7459 55.31 26.2384C54.9774 26.7308 54.5392 27.143 54.0274 27.4449H54.0324ZM19.9999 33.9999C19.2088 33.9999 18.4354 33.7653 17.7776 33.3258C17.1198 32.8863 16.6071 32.2615 16.3044 31.5306C16.0016 30.7997 15.9224 29.9955 16.0767 29.2195C16.2311 28.4436 16.6121 27.7309 17.1715 27.1715C17.7309 26.6121 18.4436 26.2311 19.2195 26.0768C19.9955 25.9224 20.7997 26.0016 21.5306 26.3044C22.2615 26.6071 22.8862 27.1198 23.3258 27.7776C23.7653 28.4354 23.9999 29.2088 23.9999 29.9999C23.9999 31.0608 23.5785 32.0782 22.8283 32.8283C22.0782 33.5785 21.0608 33.9999 19.9999 33.9999ZM43.9999 29.9999C43.9999 30.791 43.7653 31.5644 43.3258 32.2222C42.8862 32.88 42.2615 33.3927 41.5306 33.6954C40.7997 33.9982 39.9954 34.0774 39.2195 33.923C38.4436 33.7687 37.7309 33.3877 37.1715 32.8283C36.612 32.2689 36.2311 31.5562 36.0767 30.7803C35.9224 30.0043 36.0016 29.2001 36.3044 28.4692C36.6071 27.7383 37.1198 27.1136 37.7776 26.674C38.4354 26.2345 39.2088 25.9999 39.9999 25.9999C41.0608 25.9999 42.0782 26.4213 42.8283 27.1715C43.5785 27.9216 43.9999 28.939 43.9999 29.9999ZM39.7674 41.0624C39.8906 41.2945 39.9669 41.5486 39.9918 41.8102C40.0168 42.0717 39.99 42.3357 39.9129 42.5869C39.8358 42.8381 39.71 43.0717 39.5426 43.2742C39.3752 43.4768 39.1696 43.6444 38.9374 43.7674C36.1853 45.2299 33.1164 45.9948 29.9999 45.9948C26.8834 45.9948 23.8144 45.2299 21.0624 43.7674C20.8303 43.6443 20.6247 43.4767 20.4574 43.2741C20.29 43.0715 20.1642 42.838 20.0872 42.5868C20.0101 42.3356 19.9832 42.0717 20.0082 41.8102C20.0331 41.5486 20.1093 41.2945 20.2324 41.0624C20.3555 40.8303 20.5231 40.6247 20.7257 40.4574C20.9283 40.29 21.1618 40.1643 21.413 40.0872C21.6642 40.0101 21.9281 39.9833 22.1896 40.0082C22.4512 40.0331 22.7053 40.1093 22.9374 40.2324C25.112 41.3885 27.5371 41.9931 29.9999 41.9931C32.4627 41.9931 34.8878 41.3885 37.0624 40.2324C37.2945 40.1092 37.5486 40.0329 37.8102 40.008C38.0717 39.983 38.3357 40.0098 38.5869 40.0869C38.8381 40.164 39.0716 40.2898 39.2742 40.4572C39.4768 40.6246 39.6443 40.8302 39.7674 41.0624Z" fill="url(#paint0_linear_5709_234)" stroke="#1D223B" stroke-width="2" mask="url(#path-1-inside-1_5709_234)"/>
<defs>
<linearGradient id="paint0_linear_5709_234" x1="59.9999" y1="27.0022" x2="0.0722656" y2="27.0022" gradientUnits="userSpaceOnUse">
<stop stop-color="#B66F1C"/>
<stop offset="1" stop-color="#F7C873"/>
</linearGradient>
</defs>
</svg>
