<svg width="45" height="49" viewBox="0 0 45 49" fill="none" xmlns="http://www.w3.org/2000/svg">
<path d="M3 0.5H15C15.2525 0.500078 15.5014 0.563948 15.7227 0.685547C15.9437 0.807069 16.1303 0.982475 16.2656 1.19531L16.2666 1.19629L26.3887 17.1035L26.7402 17.6553L27.1807 17.1709L41.8857 0.995117L41.8867 0.996094C42.1557 0.707191 42.5275 0.536008 42.9219 0.519531C43.3161 0.503086 43.7011 0.641927 43.9932 0.907227C44.2853 1.17269 44.4612 1.54336 44.4824 1.9375C44.5034 2.32957 44.3697 2.71417 44.1104 3.00879L28.668 19.9961L28.4111 20.2783L28.6162 20.6006L44.2656 45.1953C44.4097 45.4221 44.4905 45.6836 44.499 45.9521C44.5076 46.2206 44.4437 46.4863 44.3145 46.7217C44.1851 46.9572 43.9949 47.1542 43.7637 47.291C43.5325 47.4278 43.2686 47.4999 43 47.5H30.999C30.7474 47.5009 30.4995 47.4383 30.2783 47.3184C30.0572 47.1984 29.8689 47.0248 29.7324 46.8135L19.6123 30.9092L19.2607 30.3564L18.8203 30.8408L4.11035 47.0215L4.10645 47.0254C3.97472 47.1739 3.81452 47.2946 3.63574 47.3809C3.45712 47.467 3.26344 47.5176 3.06543 47.5283C2.86723 47.539 2.66844 47.5099 2.48145 47.4434C2.29451 47.3768 2.12245 47.274 1.97559 47.1406C1.8288 47.0072 1.71006 46.8457 1.62598 46.666C1.54189 46.4862 1.49364 46.2911 1.48535 46.0928C1.47709 45.8946 1.50847 45.6968 1.57715 45.5107C1.64595 45.3246 1.75147 45.1531 1.88672 45.0078L1.89062 45.0039L17.333 28.0039L17.5898 27.7207L17.3848 27.3994L1.73438 2.80664C1.58982 2.57985 1.50881 2.31763 1.5 2.04883C1.49125 1.78014 1.55524 1.514 1.68457 1.27832C1.8139 1.04267 2.00404 0.845904 2.23535 0.708984C2.46675 0.572092 2.73114 0.499916 3 0.5ZM6.2207 4.26855L31.6758 44.2686L31.8232 44.5H40.2686L39.7793 43.7314L14.3145 3.73145L14.167 3.5H5.73242L6.2207 4.26855Z" fill="url(#paint0_linear_5709_173)" stroke="#1D223B"/>
<defs>
<linearGradient id="paint0_linear_5709_173" x1="44.9999" y1="24.015" x2="0.984375" y2="24.015" gradientUnits="userSpaceOnUse">
<stop stop-color="#B66F1C"/>
<stop offset="1" stop-color="#F7C873"/>
</linearGradient>
</defs>
</svg>
