<svg width="676" height="44" viewBox="0 0 676 44" fill="none" xmlns="http://www.w3.org/2000/svg">
<path d="M338.251 0.783203L374.822 21.8701L375.197 22.0859L374.822 22.3027L338.252 43.4668L338.127 43.5391L338.002 43.4668L301.354 22.3027L300.979 22.0859L301.354 21.8701L338.002 0.783203L338.127 0.711914L338.251 0.783203ZM270.134 8.6875L293.02 21.8672L293.395 22.083L293.021 22.2998L270.135 35.5566L270.009 35.6289L269.884 35.5566L247.434 22.5518L224.983 35.5566L224.857 35.6299L224.732 35.5566L205.212 24.25H40.584L24.958 28.9609L24.8857 28.9824L24.8135 28.9609L1.92773 22.0615L1.12988 21.8203L1.92871 21.582L24.8145 14.7607L24.8857 14.7393L24.957 14.7607L41.6963 19.75H205.524L224.733 8.68848L224.857 8.61621L224.982 8.68848L247.433 21.6162L269.885 8.6875L270.009 8.61621L270.134 8.6875ZM451.519 8.6875L470.728 19.75H634.075L650.814 14.7607L650.886 14.7393L650.957 14.7607L673.843 21.582L674.642 21.8203L673.843 22.0615L650.958 28.9609L650.886 28.9824L650.813 28.9609L635.188 24.25H471.039L451.52 35.5566L451.394 35.6289L451.269 35.5566L428.779 22.5293L406.291 35.5566L406.165 35.6289L406.04 35.5566L383.154 22.2998L382.78 22.083L383.155 21.8672L406.04 8.6875L406.165 8.61621L406.29 8.6875L428.779 21.6387L451.27 8.6875L451.394 8.61621L451.519 8.6875Z" fill="#1D223B" stroke="#1D223B" stroke-width="0.5"/>
</svg>
