<svg width="549" height="44" viewBox="0 0 549 44" fill="none" xmlns="http://www.w3.org/2000/svg">
<path d="M269.251 0.783203L305.822 21.8701L306.197 22.0859L305.822 22.3027L269.252 43.4668L269.127 43.5391L269.002 43.4668L232.354 22.3027L231.979 22.0859L232.354 21.8701L269.002 0.783203L269.127 0.711914L269.251 0.783203ZM201.134 8.6875L224.02 21.8672L224.395 22.083L224.021 22.2998L201.135 35.5566L201.009 35.6289L200.884 35.5566L178.434 22.5518L155.983 35.5566L155.857 35.6299L155.732 35.5566L136.291 24.2959H41.2871L24.958 29.2188L24.8857 29.2402L24.8135 29.2188L1.92773 22.3193L1.12988 22.0781L1.92871 21.8398L24.8145 15.0176L24.8857 14.9971L24.957 15.0176L41.5205 19.9551H136.168L155.733 8.68848L155.857 8.61621L155.982 8.68848L178.433 21.6162L200.885 8.6875L201.009 8.61621L201.134 8.6875ZM382.519 8.6875L402.084 19.9551H507.479L524.043 15.0176L524.114 14.9971L524.186 15.0176L547.071 21.8398L547.87 22.0781L547.072 22.3193L524.187 29.2188L524.114 29.2402L524.042 29.2188L507.713 24.2959H401.959L382.52 35.5566L382.394 35.6289L382.269 35.5566L359.779 22.5293L337.291 35.5566L337.165 35.6289L337.04 35.5566L314.154 22.2998L313.78 22.083L314.155 21.8672L337.04 8.6875L337.165 8.61621L337.29 8.6875L359.779 21.6387L382.27 8.6875L382.394 8.61621L382.519 8.6875Z" fill="#F7C873" stroke="#F7C873" stroke-width="0.5"/>
</svg>
