<svg width="52" height="54" viewBox="0 0 52 54" fill="none" xmlns="http://www.w3.org/2000/svg">
<path d="M26 3.5C13.6161 3.5 3.5 13.1222 3.5 25C3.5 32.411 7.54342 39.3303 14.0869 43.2412L14.7275 43.6094C14.9617 43.7393 15.1571 43.9303 15.293 44.1611C15.4286 44.3917 15.5001 44.6544 15.5 44.9219V50.5H20.5V44C20.5 43.6022 20.6581 43.2208 20.9395 42.9395C21.2208 42.6581 21.6022 42.5 22 42.5C22.3978 42.5 22.7792 42.6581 23.0605 42.9395C23.3419 43.2208 23.5 43.6022 23.5 44V50.5H28.5V44C28.5 43.6022 28.6581 43.2208 28.9395 42.9395C29.2208 42.6581 29.6022 42.5 30 42.5C30.3978 42.5 30.7792 42.6581 31.0605 42.9395C31.3419 43.2208 31.5 43.6022 31.5 44V50.5H36.5V44.9219C36.4999 44.6544 36.5714 44.3917 36.707 44.1611C36.809 43.988 36.9443 43.8369 37.1045 43.7178L37.2725 43.6094C44.1915 39.7753 48.5 32.6473 48.5 25C48.5 13.1222 38.3839 3.5 26 3.5ZM17 22.5C18.7239 22.5 20.3777 23.1843 21.5967 24.4033C22.8157 25.6223 23.5 27.2761 23.5 29C23.5 30.2856 23.1185 31.5424 22.4043 32.6113C21.6901 33.6801 20.6749 34.5129 19.4873 35.0049C18.2996 35.4969 16.9923 35.6258 15.7314 35.375C14.4708 35.1241 13.3122 34.5056 12.4033 33.5967C11.4944 32.6878 10.8759 31.5292 10.625 30.2686C10.3742 29.0077 10.5031 27.7004 10.9951 26.5127C11.4871 25.3251 12.3198 24.3099 13.3887 23.5957C14.4576 22.8815 15.7144 22.5 17 22.5ZM35 22.5C36.7239 22.5 38.3777 23.1843 39.5967 24.4033C40.8157 25.6223 41.5 27.2761 41.5 29C41.5 30.2856 41.1185 31.5424 40.4043 32.6113C39.6901 33.6802 38.6749 34.5129 37.4873 35.0049C36.2996 35.4969 34.9923 35.6258 33.7314 35.375C32.4708 35.1241 31.3122 34.5056 30.4033 33.5967C29.4944 32.6878 28.8759 31.5292 28.625 30.2686C28.3742 29.0077 28.5031 27.7004 28.9951 26.5127C29.4871 25.3251 30.3199 24.3099 31.3887 23.5957C32.4576 22.8815 33.7144 22.5 35 22.5ZM18.3398 25.7666C17.7004 25.5017 16.9963 25.4324 16.3174 25.5674C15.6384 25.7024 15.0149 26.0359 14.5254 26.5254C14.0359 27.0149 13.7024 27.6384 13.5674 28.3174C13.4324 28.9963 13.5017 29.7004 13.7666 30.3398C14.0315 30.9792 14.4802 31.5257 15.0557 31.9102C15.6312 32.2947 16.3078 32.5 17 32.5C17.9283 32.5 18.8182 32.131 19.4746 31.4746C20.131 30.8182 20.5 29.9283 20.5 29C20.5 28.3078 20.2947 27.6312 19.9102 27.0557C19.5257 26.4802 18.9792 26.0315 18.3398 25.7666ZM36.3398 25.7666C35.7004 25.5017 34.9963 25.4324 34.3174 25.5674C33.6384 25.7024 33.0149 26.0359 32.5254 26.5254C32.0359 27.0149 31.7024 27.6384 31.5674 28.3174C31.4324 28.9963 31.5017 29.7004 31.7666 30.3398C32.0315 30.9792 32.4802 31.5257 33.0557 31.9102C33.6312 32.2947 34.3078 32.5 35 32.5C35.9283 32.5 36.8182 32.131 37.4746 31.4746C38.131 30.8182 38.5 29.9283 38.5 29C38.5 28.3078 38.2947 27.6312 37.9102 27.0557C37.5257 26.4802 36.9792 26.0315 36.3398 25.7666ZM12.5 45.79L12.2617 45.6445C4.97153 41.162 0.5 33.3448 0.5 25C0.5 11.5094 11.92 0.5 26 0.5C40.08 0.5 51.5 11.5094 51.5 25C51.5 33.3448 47.0285 41.162 39.7383 45.6445L39.5 45.79V50C39.5 50.9283 39.131 51.8182 38.4746 52.4746C37.8182 53.131 36.9283 53.5 36 53.5H16C15.0717 53.5 14.1818 53.131 13.5254 52.4746C12.869 51.8182 12.5 50.9283 12.5 50V45.79Z" fill="url(#paint0_linear_5699_17)" stroke="#1D223B"/>
<defs>
<linearGradient id="paint0_linear_5699_17" x1="26" y1="0" x2="26" y2="54" gradientUnits="userSpaceOnUse">
<stop stop-color="#B66F1C"/>
<stop offset="1" stop-color="#F7C873"/>
</linearGradient>
</defs>
</svg>
