<svg width="50" height="56" viewBox="0 0 50 56" fill="none" xmlns="http://www.w3.org/2000/svg">
<path d="M30.9561 27.6904C30.4993 27.5013 29.9966 27.4514 29.5117 27.5479C29.0268 27.6443 28.5811 27.8828 28.2314 28.2324C27.882 28.582 27.6443 29.0279 27.5479 29.5127C27.4515 29.9975 27.5003 30.5003 27.6895 30.957C27.8787 31.4138 28.1993 31.8044 28.6104 32.0791C29.0215 32.3538 29.5055 32.5 30 32.5C30.6629 32.4999 31.2988 32.2363 31.7676 31.7676C32.2363 31.2988 32.5 30.6629 32.5 30C32.5 29.5056 32.3528 29.0224 32.0781 28.6113C31.8034 28.2002 31.4129 27.8796 30.9561 27.6904ZM26.9561 11.6904C26.4993 11.5013 25.9966 11.4514 25.5117 11.5479C25.0268 11.6443 24.5811 11.8828 24.2314 12.2324C23.882 12.582 23.6443 13.0279 23.5479 13.5127C23.4515 13.9975 23.5003 14.5003 23.6895 14.957C23.8787 15.4138 24.1993 15.8044 24.6104 16.0791C25.0215 16.3538 25.5055 16.5 26 16.5C26.6629 16.4999 27.2988 16.2363 27.7676 15.7676C28.2363 15.2988 28.5 14.6629 28.5 14C28.5 13.5056 28.3528 13.0224 28.0781 12.6113C27.8034 12.2002 27.4129 11.8796 26.9561 11.6904ZM8.5 39.9141L8.20801 39.7803L2.48047 37.1582L2.47363 37.1553L2.42578 37.1328C1.63103 36.733 1.018 36.0465 0.711914 35.2109C0.405583 34.3743 0.429504 33.4521 0.779297 32.6328C0.793154 32.6017 0.8094 32.5687 0.831055 32.5254L6.44336 21.7305L6.49707 21.6279L6.49902 21.5117C6.56449 18.6319 7.2083 15.7942 8.3916 13.168C9.57501 10.5416 11.2747 8.17958 13.3887 6.22266C15.5025 4.26583 17.9877 2.75296 20.6973 1.77539C23.4069 0.797836 26.2858 0.375704 29.1621 0.532227H29.1631C40.3095 1.11849 49.2556 10.3278 49.5 21.4932C49.5693 24.7207 48.9131 27.9227 47.5811 30.8633C46.249 33.8038 44.2746 36.408 41.8027 38.4844L41.5947 38.6592L41.6289 38.9297L43.4883 53.8125C43.5126 54.0077 43.4984 54.2058 43.4463 54.3955C43.394 54.5855 43.3046 54.7635 43.1836 54.9189C43.0627 55.0743 42.9124 55.2045 42.7412 55.3018C42.6126 55.3748 42.4738 55.4285 42.3301 55.4609L42.1855 55.4863C42.123 55.4938 42.06 55.4971 41.9971 55.4971L41.8613 55.4912C41.5455 55.4621 41.2454 55.3335 41.0059 55.1221C40.7665 54.9107 40.6022 54.629 40.5342 54.3193L40.5107 54.1846L38.5107 38.1855C38.4781 37.9233 38.5158 37.6573 38.6191 37.4141C38.7225 37.1707 38.8881 36.9584 39.0996 36.7998H39.1006C41.4529 35.0287 43.3501 32.7232 44.6357 30.0742C45.9214 27.4252 46.5582 24.5082 46.4941 21.5645V21.5625L46.4795 21.1543C46.4602 20.7477 46.4271 20.3435 46.3809 19.9424L46.3301 19.5H40.7031L40.5527 19.6797L34.7705 26.6172L34.5439 26.8887L34.7246 27.1934C35.3896 28.3119 35.6376 29.6293 35.4248 30.9131C35.212 32.197 34.552 33.3648 33.5615 34.209C32.5711 35.0531 31.314 35.5197 30.0127 35.5264C28.7113 35.5331 27.4493 35.0791 26.4502 34.2451C25.4513 33.4112 24.7788 32.2512 24.5527 30.9697C24.3267 29.6882 24.5614 28.3676 25.2148 27.2422C25.8683 26.1168 26.8989 25.2583 28.124 24.8193C29.3492 24.3804 30.6906 24.3893 31.9102 24.8438L32.2422 24.9668L32.4688 24.6953L38.8467 17.04C38.9874 16.8711 39.1632 16.7349 39.3623 16.6416C39.5615 16.5483 39.7791 16.5 39.999 16.5H45.668L45.4307 15.832C44.2059 12.3929 41.9941 9.391 39.0723 7.20215C36.1504 5.01331 32.6477 3.73417 29.0029 3.52539H29.002C28.6585 3.49953 28.3183 3.5 28 3.5H27.5V8.69824L27.833 8.81641C29.0561 9.24885 30.0867 10.0999 30.7432 11.2188C31.3996 12.3378 31.6393 13.653 31.4199 14.9316C31.2005 16.2103 30.5368 17.3708 29.5449 18.207C28.5531 19.0432 27.2973 19.5019 26 19.502C24.7026 19.502 23.4461 19.0433 22.4541 18.207C21.4623 17.3708 20.7985 16.2103 20.5791 14.9316C20.3598 13.653 20.5994 12.3378 21.2559 11.2188C21.9123 10.0999 22.943 9.24887 24.166 8.81641L24.5 8.69824V3.82031L23.8887 3.95996C19.8011 4.89161 16.1513 7.18438 13.5371 10.4619C11.0046 13.6371 9.58933 17.5541 9.50391 21.6074L9.5 22C9.49763 22.2372 9.43784 22.4704 9.32617 22.6797L9.32324 22.6846L3.55566 33.7695L3.31348 34.2354L3.79102 34.4541L10.624 37.5869C10.8853 37.7065 11.1065 37.8989 11.2617 38.1406C11.417 38.3826 11.5002 38.6646 11.5 38.9521V48.5H24C24.3977 48.5001 24.7793 48.6582 25.0605 48.9395C25.3417 49.2207 25.5 49.6023 25.5 50C25.5 50.3977 25.3417 50.7793 25.0605 51.0605C24.7793 51.3418 24.3977 51.4999 24 51.5H12C11.0717 51.5 10.1808 51.131 9.52441 50.4746C8.86822 49.8183 8.5 48.9281 8.5 48V39.9141Z" fill="url(#paint0_linear_5699_15)" stroke="#1D223B"/>
<defs>
<linearGradient id="paint0_linear_5699_15" x1="25.0014" y1="0" x2="25.0014" y2="55.9975" gradientUnits="userSpaceOnUse">
<stop stop-color="#B66F1C"/>
<stop offset="1" stop-color="#F7C873"/>
</linearGradient>
</defs>
</svg>
