<svg width="50" height="50" viewBox="0 0 50 50" fill="none" xmlns="http://www.w3.org/2000/svg">
<path d="M32 0.5H48.001C48.3986 0.500129 48.7803 0.658264 49.0615 0.939453C49.3427 1.22073 49.501 1.60229 49.501 2V18H49.5L49.501 18.001C49.5016 18.2313 49.4491 18.4592 49.3477 18.666C49.2462 18.8728 49.0976 19.0529 48.915 19.1934L28.1133 35.1934L27.6621 35.541L30.4746 38.3535C30.7997 38.6785 31.0575 39.0646 31.2334 39.4893C31.4093 39.9139 31.5 40.3694 31.5 40.8291C31.5 41.2886 31.4092 41.7435 31.2334 42.168C31.0575 42.5926 30.7996 42.9787 30.4746 43.3037L27.3018 46.4795C26.9768 46.8048 26.5908 47.0632 26.166 47.2393C25.7411 47.4154 25.2851 47.5059 24.8252 47.5059C24.3654 47.5058 23.9101 47.4153 23.4854 47.2393C23.0606 47.0632 22.6746 46.8047 22.3496 46.4795L16.9951 41.125L9.6416 48.4785C8.9853 49.1344 8.0958 49.5029 7.16797 49.5029C6.24014 49.5029 5.35064 49.1344 4.69434 48.4785L1.52148 45.3086C1.19647 44.9836 0.938607 44.5975 0.762695 44.1729C0.586884 43.7483 0.496124 43.2935 0.496094 42.834C0.496094 42.3743 0.586754 41.9188 0.762695 41.4941C0.938636 41.0695 1.19641 40.6834 1.52148 40.3584L8.875 33.0049L3.52148 27.6514C3.19641 27.3264 2.93863 26.9403 2.7627 26.5156C2.58679 26.091 2.49609 25.6354 2.49609 25.1758C2.49616 24.7163 2.58686 24.2614 2.7627 23.8369C2.93863 23.4122 3.19642 23.0262 3.52148 22.7012L6.69434 19.5264V19.5254C7.01927 19.2002 7.40541 18.9427 7.83008 18.7666C8.25497 18.5905 8.71094 18.499 9.1709 18.499C9.63071 18.4991 10.086 18.5905 10.5107 18.7666C10.9354 18.9427 11.3215 19.2002 11.6465 19.5254L11.6475 19.5264L14.0625 21.9365L14.4648 22.3379L14.8115 21.8877L30.8115 1.08496C30.9516 0.902976 31.1318 0.755722 31.3379 0.654297C31.5439 0.552934 31.7704 0.500045 32 0.5ZM10.6465 35.4766L3.29297 42.8301L3.64746 43.1836L6.81934 46.3535L7.17285 46.707L7.52637 46.3535L14.5244 39.3535L14.8779 39L11.001 35.123L10.6465 35.4766ZM8.82227 21.6465L5.64648 24.8242L5.29395 25.1777L5.64648 25.5312L24.4717 44.3535L24.8252 44.707L25.1787 44.3535L28.3535 41.1816L28.708 40.8281L28.3545 40.4736L9.5293 21.6465L9.17578 21.293L8.82227 21.6465ZM32.5889 3.69531L16.8721 24.1299L16.6045 24.4775L16.9141 24.7881L19.6465 27.5234L20 27.877L20.3545 27.5234L32.9395 14.9414V14.9404C33.2206 14.6592 33.6023 14.5012 34 14.501C34.3978 14.5008 34.7791 14.6592 35.0605 14.9404C35.342 15.2216 35.5008 15.6031 35.501 16.001C35.501 16.349 35.3796 16.6842 35.1611 16.9512L35.0615 17.0615L22.123 30L25.5225 33.3994L25.8701 33.1309L46.3057 17.4111L46.501 17.2607V3.5H32.7393L32.5889 3.69531Z" fill="url(#paint0_linear_5699_5)" stroke="#1D223B"/>
<defs>
<linearGradient id="paint0_linear_5699_5" x1="24.9983" y1="0" x2="24.9983" y2="50.0031" gradientUnits="userSpaceOnUse">
<stop stop-color="#B66F1C"/>
<stop offset="1" stop-color="#F7C873"/>
</linearGradient>
</defs>
</svg>
