<svg width="56" height="51" viewBox="0 0 56 51" fill="none" xmlns="http://www.w3.org/2000/svg">
<path d="M2 30.5H2.00098C17.0541 30.4651 31.5136 36.3686 42.2412 46.9287L42.251 46.9375C42.3969 47.074 42.5141 47.2385 42.5957 47.4209C42.6773 47.6035 42.7213 47.8011 42.7256 48.001C42.7299 48.2007 42.6946 48.3992 42.6211 48.585C42.5475 48.7709 42.4369 48.9402 42.2969 49.083C42.1569 49.2258 41.9901 49.3398 41.8057 49.417C41.6212 49.4942 41.4226 49.5336 41.2227 49.5332C41.0229 49.5327 40.8255 49.4919 40.6416 49.4141C40.4576 49.3361 40.2907 49.2223 40.1514 49.0791L40.1436 49.0713L39.6641 48.6055C29.5455 38.8893 16.0454 33.4681 2 33.5C1.60217 33.5 1.22076 33.3419 0.939453 33.0605C0.658149 32.7792 0.5 32.3978 0.5 32C0.5 31.6022 0.658149 31.2208 0.939453 30.9395C1.22076 30.6581 1.60217 30.5 2 30.5ZM32 0.5C32.3246 0.5 32.6407 0.605072 32.9004 0.799805L48.9004 12.7998C49.0866 12.9395 49.2377 13.1209 49.3418 13.3291C49.4459 13.5374 49.5 13.7671 49.5 14V22.6523L50.0293 22.6221C51.3486 22.5451 52.6712 22.5 54 22.5C54.3978 22.5 54.7792 22.6581 55.0605 22.9395C55.3419 23.2208 55.5 23.6022 55.5 24C55.5 24.3978 55.3419 24.7792 55.0605 25.0605C54.8145 25.3066 54.4917 25.458 54.1484 25.4922L54 25.5C46.7599 25.4863 39.5729 26.7391 32.7646 29.2021L31.7041 29.5859L32.7012 30.1143C34.2622 30.9411 35.7886 31.8322 37.2803 32.7881L37.4727 32.9121L37.6914 32.8467C42.6558 31.3837 47.7933 30.5982 52.9648 30.5088L54 30.5C54.3978 30.5 54.7792 30.6581 55.0605 30.9395C55.3419 31.2208 55.5 31.6022 55.5 32C55.5 32.3978 55.3419 32.7792 55.0605 33.0605C54.7792 33.3419 54.3978 33.5 54 33.5C49.8743 33.4973 45.7613 33.9616 41.7402 34.8848L40.6982 35.124L41.5508 35.7705C42.9135 36.8042 44.236 37.8932 45.5195 39.0361L45.6982 39.1943L45.9336 39.1562C48.267 38.7741 50.6241 38.5576 52.9873 38.5098L54 38.5C54.3978 38.5 54.7792 38.6581 55.0605 38.9395C55.3419 39.2208 55.5 39.6022 55.5 40C55.5 40.3978 55.3419 40.7792 55.0605 41.0605C54.7792 41.3419 54.3978 41.5 54 41.5C52.4838 41.5 50.985 41.5738 49.4893 41.7178L48.4619 41.8164L49.1768 42.5615C50.5532 43.9958 51.8719 45.4964 53.1328 47.0635L53.1377 47.0693L53.1426 47.0742C53.2731 47.227 53.3711 47.4051 53.4316 47.5967C53.4921 47.7881 53.5139 47.9896 53.4951 48.1895C53.4762 48.3895 53.4167 48.5839 53.3213 48.7607C53.2259 48.9376 53.0963 49.0941 52.9395 49.2197C52.7828 49.3452 52.6023 49.4376 52.4092 49.4922C52.2158 49.5468 52.0128 49.5623 51.8135 49.5371C51.6142 49.5119 51.4217 49.4465 51.248 49.3457C51.0745 49.2448 50.9233 49.1097 50.8027 48.9492L50.7979 48.9443L50.793 48.9385L50.2412 48.2559C44.4848 41.2425 37.2622 35.5693 29.0771 31.6377C20.6286 27.5795 11.3727 25.4813 2 25.5C1.60218 25.5 1.22076 25.3419 0.939453 25.0605C0.658149 24.7792 0.5 24.3978 0.5 24C0.5 23.6022 0.658149 23.2208 0.939453 22.9395C1.22076 22.6581 1.60218 22.5 2 22.5C5.99454 22.5007 9.98116 22.8633 13.9102 23.584L14.5 23.6924V14C14.5 13.7671 14.5541 13.5374 14.6582 13.3291C14.7623 13.1209 14.9134 12.9395 15.0996 12.7998L31.0996 0.799805C31.3593 0.605072 31.6754 0.5 32 0.5ZM2 38.5H2.00098C11.7398 38.4852 21.2649 41.3562 29.373 46.751C29.7041 46.9713 29.9342 47.3143 30.0127 47.7041C30.0911 48.0939 30.0111 48.4989 29.791 48.8301C29.5707 49.1612 29.2278 49.3913 28.8379 49.4697C28.4965 49.5383 28.1437 49.4861 27.8389 49.3242L27.7119 49.249C20.0953 44.1821 11.148 41.4854 2 41.5L1.85156 41.4922C1.50826 41.458 1.18554 41.3066 0.939453 41.0605C0.658149 40.7792 0.5 40.3978 0.5 40C0.5 39.6022 0.658149 39.2208 0.939453 38.9395C1.22076 38.6581 1.60217 38.5 2 38.5ZM27.5 27.6396L27.8027 27.7695L27.8203 27.7773L28.0176 27.8613L28.2148 27.7773C30.7921 26.6708 33.4384 25.7312 36.1367 24.9658L36.5 24.8633V19.5H27.5V27.6396ZM46.5 14.75L46.2998 14.5996L32.2998 4.09961L32 3.875L31.7002 4.09961L17.7002 14.5996L17.5 14.75V24.3447L17.8809 24.4385C19.8963 24.9345 21.8804 25.5277 23.833 26.2188L24.5 26.4551V18C24.5 17.6022 24.6581 17.2208 24.9395 16.9395C25.2208 16.6581 25.6022 16.5 26 16.5H38C38.3978 16.5 38.7792 16.6581 39.0605 16.9395C39.3419 17.2208 39.5 17.6022 39.5 18V24.1045L40.1055 23.9736C42.0699 23.5503 44.0543 23.2196 46.0586 22.9814L46.5 22.9287V14.75Z" fill="url(#paint0_linear_5699_9)" stroke="#1D223B"/>
<defs>
<linearGradient id="paint0_linear_5699_9" x1="28" y1="0" x2="28" y2="50.0487" gradientUnits="userSpaceOnUse">
<stop stop-color="#B66F1C"/>
<stop offset="1" stop-color="#F7C873"/>
</linearGradient>
</defs>
</svg>
