<svg width="400" height="408" viewBox="0 0 400 408" fill="none" xmlns="http://www.w3.org/2000/svg">
<path d="M199.34 54.1995C199.222 54.6035 198.818 57.968 198.473 61.6262C195.187 94.8518 192.085 136.687 170.08 163.206C167.654 166.107 167.14 168.37 168.867 168.37C169.447 168.37 172.101 167.731 174.754 166.974C182.641 165.351 190.601 163.492 201.876 163.492C210.622 163.492 220.993 164.829 227.498 167.143C233.04 169.112 233.326 167.723 228.652 161.398C217.744 146.604 211.975 129.495 206.837 96.6001C204.757 83.6052 201.295 57.6154 201.295 55.3528C201.295 54.0747 201.008 53.4943 200.428 53.4943C199.906 53.4943 199.45 53.8396 199.333 54.1922L199.34 54.1995Z" fill="url(#paint0_linear_5767_95)"/>
<path d="M138.637 164.521C138.563 164.771 138.321 166.82 138.107 169.046C136.094 189.313 134.19 214.818 120.695 230.994C119.211 232.764 118.887 234.145 119.953 234.145C120.306 234.145 121.937 233.756 123.562 233.293C128.398 232.302 133.279 231.17 140.195 231.17C145.56 231.17 151.926 231.986 155.909 233.396C159.305 234.601 159.481 233.749 156.615 229.892C149.926 220.871 146.384 210.433 143.23 190.371C141.959 182.445 139.835 166.6 139.835 165.219C139.835 164.44 139.658 164.088 139.306 164.088C138.989 164.088 138.703 164.301 138.629 164.514L138.637 164.521Z" fill="url(#paint1_linear_5767_95)"/>
<path d="M231.93 255.17C231.93 254.699 232.32 254.317 232.79 254.325C234.128 254.347 235.311 254.391 236.098 254.45C241.779 254.883 242.029 256.316 241.912 261.48C241.794 266.644 241.956 271.823 242.382 276.972C243.213 287.102 245.065 297.151 247.917 306.907C248.402 308.56 247.99 309.985 245.991 309.25C241.096 307.45 236.01 304.358 232.856 300.053C232.246 299.223 231.938 298.202 231.938 297.166V255.162L231.93 255.17Z" fill="url(#paint2_linear_5767_95)"/>
<path d="M232.827 200.689C233.084 200.689 233.209 200.954 233.209 201.527C233.209 202.548 234.753 214.279 235.679 220.141C237.965 234.988 240.53 242.708 245.388 249.386C247.468 252.243 247.343 252.868 244.874 251.979C241.978 250.936 237.362 250.326 233.467 250.326C232.937 250.326 232.423 250.341 231.923 250.355V204.634C231.93 204.539 231.938 204.443 231.952 204.348C232.107 202.702 232.283 201.182 232.335 200.998C232.386 200.844 232.592 200.682 232.82 200.682L232.827 200.689Z" fill="url(#paint3_linear_5767_95)"/>
<path d="M30.0109 319.782C35.2074 322.236 37.5814 325.137 38.8677 330.83C39.588 333.872 39.5071 337.412 38.6545 340.387C49.2385 338.404 60.043 334.437 70.1714 330.794C81.1743 326.827 91.6113 321.861 101.659 315.882C108.281 311.937 115.69 307.816 119.358 300.683C117.652 300.94 115.675 301.865 113.897 302.336C108.075 303.864 102.269 305.465 96.4476 306.964C88.1862 309.087 79.844 310.894 71.4429 312.4C63.2697 313.861 38.287 316.719 34.0314 317.013C32.7819 317.101 25.7038 317.755 30.0182 319.797L30.0109 319.782Z" fill="url(#paint4_linear_5767_95)"/>
<path d="M276.023 157.921C276.023 157.921 276.074 157.921 276.111 157.896C276.148 157.87 276.184 157.833 276.229 157.776C276.309 157.662 276.405 157.492 276.5 157.284C276.64 156.963 276.78 156.546 276.897 156.086L277.008 155.607C278.103 149.321 278.544 147.076 279.213 144.681L279.514 143.634C280.308 140.753 280.94 139.12 282.388 137.928C283.652 136.888 285.541 136.181 288.701 135.274L290.135 134.87C291.502 134.479 292.509 134.132 293.156 133.798C293.479 133.634 293.714 133.477 293.854 133.319C293.993 133.168 294.045 133.016 294.008 132.865C293.979 132.714 293.854 132.562 293.641 132.405C293.428 132.241 293.119 132.077 292.722 131.907C292.024 131.604 291.046 131.283 289.782 130.929L289.223 130.778C284.144 129.454 281.785 128.168 280.808 126.302L280.719 126.119C280.536 125.715 280.249 124.782 279.918 123.553C279.587 122.323 279.213 120.804 278.838 119.215C278.191 116.434 277.566 113.458 277.243 111.529L277.125 110.773C277.015 109.82 276.853 109.127 276.655 108.673C276.552 108.446 276.449 108.282 276.331 108.175C276.214 108.068 276.096 108.017 275.964 108.017C275.751 108.017 275.567 108.131 275.427 108.333C275.288 108.534 275.207 108.824 275.207 109.158C275.207 109.991 274.81 112.305 274.244 114.965C273.752 117.298 273.134 119.896 272.546 122.014L272.296 122.891C271.951 124.089 271.554 125.179 271.142 126.049C270.731 126.913 270.304 127.569 269.893 127.89C269.716 128.054 269.4 128.25 268.974 128.464C268.548 128.685 268.011 128.924 267.409 129.17C266.35 129.605 265.071 130.059 263.77 130.463L263.212 130.633C261.646 131.1 260.294 131.573 259.338 131.976C258.86 132.178 258.478 132.361 258.214 132.512C258.081 132.588 257.986 132.657 257.92 132.714C257.89 132.745 257.861 132.77 257.846 132.789C257.831 132.815 257.824 132.834 257.824 132.846C257.824 132.884 257.846 132.934 257.898 132.991C257.949 133.048 258.015 133.111 258.111 133.174C258.302 133.306 258.574 133.451 258.919 133.609C259.603 133.918 260.536 134.258 261.565 134.58C267.203 136.194 270.121 137.758 271.326 139.826C271.642 140.33 271.995 141.169 272.355 142.228C272.715 143.287 273.09 144.567 273.443 145.942C274.06 148.35 274.619 151.067 274.957 153.444L275.089 154.441C275.2 155.367 275.361 156.231 275.53 156.874C275.618 157.196 275.707 157.454 275.795 157.643C275.839 157.738 275.883 157.807 275.92 157.858C275.949 157.896 275.979 157.915 276.001 157.927H276.023V157.921Z" fill="url(#paint5_linear_5767_95)"/>
<path d="M374.99 317.255C372.705 316.821 370.389 316.623 368.089 316.278C362.981 315.499 357.836 314.926 352.698 314.375C342.084 313.244 331.581 311.855 321.085 310.004C317.763 309.417 314.456 308.792 311.148 308.124C309.59 307.808 302.402 305.2 301.24 305.942L298.242 307.859C294.265 310.827 280.704 315.624 282.858 314.044C287.084 310.944 290.473 308.013 293.214 303.929C281.572 300.844 271.23 297.318 263.711 293.344C261.455 292.874 261.91 294.578 265.247 301.681C269.172 309.967 274.097 323.388 277.066 327.48C278.191 328.935 279.808 330.558 280.763 331.006C284.519 332.968 297.573 336.156 311.692 338.506C316.624 339.344 320.262 340.189 319.814 340.358C319.366 340.526 313.537 342.15 306.929 343.942C298.3 346.352 294.831 347.527 294.714 348.144C294.545 349.099 299.866 353.132 304.967 355.762C306.459 356.555 307.642 357.305 307.775 357.547C306.885 358.179 297.683 356.945 291.693 355.879C276.743 353.404 256.677 344.243 245.248 335.384C244.072 334.319 243.624 334.378 243.624 335.605C243.624 336.611 247.879 341.033 253.149 345.345C259.647 350.723 265.755 354.307 276.118 358.781C277.426 359.339 276.081 359.768 272.083 360.067C268.775 360.287 259.536 360.346 251.635 360.177C238.78 359.927 225.829 359.626 214.503 352.75C220.265 354.219 226.087 355.696 232.025 355.879C232.959 355.916 233.914 355.336 233.054 354.52C231.915 353.338 230.452 352.522 229.049 351.663C220.442 346.381 213.239 338.683 209.218 329.375C209.137 329.184 207.432 324.542 206.08 326.128C198.855 334.598 185.963 343.193 190.395 337.999C194.092 333.687 195.827 330.999 198.855 324.784C203.449 315.264 206.139 303.393 207.983 284.191C209.498 269.242 209.836 266.274 209.946 268.845C210.056 272.768 212.239 288.106 213.643 294.717C215.495 303.562 218.406 312.744 219.361 312.744C220.258 312.744 220.258 311.907 219.53 307.426C216.818 292.874 215.841 245.052 216.274 217.828V174.105C216.274 173.106 215.605 172.232 214.643 171.982C206.69 169.462 194.423 169.771 186.308 172.548C185.375 172.819 184.743 173.679 184.743 174.648C184.772 174.935 184.684 219.091 184.772 219.348C184.64 253.147 183.875 267.604 182.273 278.593C175.224 326.907 178.73 266.443 178.907 248.783C178.907 248.379 178.583 248.078 178.172 248.078H170.175C169.771 248.078 169.44 248.409 169.44 248.813V257.114C169.44 257.51 169.131 257.834 168.734 257.848L161.671 258.127C161.281 258.142 160.973 258.458 160.965 258.847C160.061 299.845 152.167 334.863 151.109 284.676C151.263 271.218 151.109 257.753 151.352 244.295C151.403 240.651 151.072 237.801 147.125 236.993C143.392 236.229 139.54 236.053 135.755 236.464C133.168 236.743 126.766 236.979 126.766 240.659V275.603C126.442 312.113 127.155 319.032 116.549 334.576C115.035 336.589 110.838 340.563 110.831 339.674C110.831 339.395 111.051 338.947 111.39 338.778C112.793 337.882 117.174 331.329 119.298 324.784C121.988 316.667 121.805 313.023 121.077 312.575C120.856 312.465 117.769 314.03 114.241 316.16C106.899 320.531 92.059 328.479 88.5825 329.824C85.1059 331.227 85.3926 332.402 89.8173 334.973C91.4858 335.928 92.8749 336.802 93.213 337.074C93.2718 337.125 93.2571 337.177 93.1762 337.169C91.3755 336.978 80.3799 334.51 78.8364 334.584C77.6604 334.584 74.0221 335.708 70.1487 337.331C57.6389 342.444 45.3056 346.778 31.7228 348.027C25.2915 348.622 19.1028 347.182 14.9501 341.878C11.6132 337.617 13.5609 332.806 19.044 332.262C18.0665 333.996 17.846 336.097 18.5369 337.97C20.1171 342.231 25.7252 343.759 29.6869 342.194C33.3472 340.901 35.1553 336.868 34.3615 333.173C33.4427 328.06 29.5398 323.587 24.8285 321.545C17.2286 318.254 7.85731 320.67 4.78501 326.775C-0.382051 337.052 10.7826 351.009 21.0138 357.062C23.16 358.722 27.0261 360.742 32.6562 363.145C58.0946 374.457 91.7944 379.078 123.157 377.858C126.126 375.809 130.97 372.68 133.785 371.262C134.417 370.939 135.035 371.725 134.572 372.261C133.05 373.914 130.75 376.793 131.323 377.139C131.712 377.528 133.954 377.359 137.761 376.801C144.986 375.684 153.057 376.015 159.223 377.697C165.728 379.467 181.737 385.506 188.41 387.886C206.631 394.783 244.682 407.448 248.357 407.367C249.423 407.367 250.819 407.147 251.547 406.809C280.925 396.87 312.383 382.81 335.793 362.057C334.396 361.176 332.992 360.302 331.596 359.42C331.375 359.281 331.133 359.112 331.104 358.847C331.059 358.421 331.596 358.193 332.03 358.142C334.764 357.819 337.652 358.752 340.217 357.753C341.386 357.297 342.364 356.489 343.327 355.681C356.005 344.993 368.258 333.577 378.893 320.825C381.187 318.07 376.997 317.622 374.976 317.24L374.99 317.255ZM195.929 183.045C195.929 180.797 197.752 178.975 199.994 178.975C202.236 178.975 204.066 180.797 204.066 183.045V206.985C204.066 207.051 204.051 207.11 204.044 207.169H195.944C195.944 207.11 195.922 207.044 195.922 206.985V183.045H195.929ZM99.4091 365.26C83.1949 365.275 67.2528 361.382 51.9427 356.041C53.1113 354.88 54.9268 354.205 56.4776 353.58C57.5507 353.147 58.6092 352.706 59.6308 352.265C68.9433 348.431 74.5587 346.631 67.9878 349.709C66.1356 350.546 62.8868 352.06 60.8141 353.014C58.4621 354.08 57.0583 355.027 57.1685 355.424C57.5066 356.32 69.5533 359.905 78.682 361.808C83.5551 362.814 89.0456 363.431 98.2919 363.938C102.334 364.166 106.377 364.371 110.419 364.628C106.737 365.062 103.069 365.26 99.4164 365.268L99.4091 365.26ZM138.967 245.412C141.216 245.412 143.031 247.233 143.031 249.474V272.951H134.895V249.474C134.895 247.226 136.718 245.412 138.959 245.412H138.967ZM146.17 345.713C145.288 344.684 149.205 343.421 150.227 342.943C154.196 341.099 157.952 338.815 161.436 336.17C169.3 330.191 177.062 321.39 180.928 312.193C181.266 311.51 181.575 310.959 181.729 310.783C181.781 310.724 181.832 310.783 181.832 310.856C181.722 325.137 172.681 338.903 162.369 348.152C161.796 348.666 161.179 349.187 160.429 349.334C159.789 349.459 159.143 349.298 158.511 349.136C154.872 348.218 151.234 347.292 147.596 346.374C146.817 346.175 146.368 345.955 146.17 345.72V345.713ZM280.594 379.328C269.554 384.815 258.353 389.634 251.179 391.926L248.6 392.8C248.453 392.851 248.298 392.851 248.151 392.8L236.332 389.171C223.22 385.087 206.587 379.034 190.116 372.371C178.128 367.501 170.285 364.702 165.743 363.688C162.943 363.071 162.105 363.189 156.497 364.526C153.16 365.356 149.492 366.413 148.397 366.81C148.029 366.942 149 365.98 149.08 365.899C154.159 361.095 161.105 360.192 167.654 358.833C175.57 357.187 183.479 355.542 191.394 353.896C190.123 354.16 188.66 355.24 187.484 355.813C186.22 356.438 184.948 357.055 183.67 357.657C180.832 359.001 177.959 360.28 174.975 361.271C173.968 361.609 173.291 362.168 173.291 362.785C173.291 363.571 174.975 364.408 180.575 366.428C184.61 367.941 192.791 371.078 198.781 373.429C219.736 381.774 245.167 390.56 248.254 390.56C250.217 390.56 261.249 386.247 276.941 379.364C283.108 376.676 289.657 373.767 291.509 372.981C298.175 370.072 292.406 373.429 280.587 379.306L280.594 379.328ZM356.931 323.587L353.256 327.708C349.052 332.468 343.848 337.118 339.306 340.247C338.189 340.975 339.196 339.689 341.658 337.052C347.597 330.837 351.742 325.857 351.742 324.902C351.742 324.285 349.332 323.616 342.106 322.272C328.097 319.693 328.156 319.583 342.606 320.928C347.759 321.376 353.308 321.993 354.932 322.162L356.476 322.367C357.056 322.448 357.321 323.146 356.924 323.587H356.931Z" fill="url(#paint6_linear_5767_95)"/>
<path d="M200.508 22.1005L208 0.0833369C312.88 4.204 397.01 89.0047 400 194.107L377.343 200.525L399.913 208.197C398.415 244.857 387.04 278.977 368.383 307.962C368.082 308.432 367.545 308.689 366.994 308.631C365.09 308.432 363.142 308.234 361.143 308.021C360.041 307.903 359.467 306.669 360.077 305.744C377.747 279.107 388.941 247.799 391.403 214.074C391.447 213.435 391.072 212.833 390.47 212.598L360.327 200.646C359.71 200.404 359.71 199.522 360.327 199.28L390.477 187.32C391.072 187.085 391.454 186.483 391.403 185.844C384.545 91.1626 308.921 15.5291 214.202 8.59452C213.562 8.55045 212.959 8.92487 212.724 9.51989L207.873 21.6773H207.918L205.507 27.6863H205.47L200.678 39.6895C200.435 40.3065 199.561 40.3065 199.311 39.6895L194.518 27.6863H194.496L192.086 21.6773H192.115L187.264 9.51989C187.029 8.92487 186.426 8.55045 185.786 8.59452C91.1477 15.5071 15.5602 91.0082 8.57766 185.579C8.53356 186.218 8.90873 186.821 9.50409 187.056L39.8372 199.096C40.4546 199.338 40.4546 200.212 39.8372 200.462L9.48947 212.502C8.89412 212.737 8.51159 213.34 8.56304 213.979C11.0253 247.895 22.3077 279.358 40.1388 306.104C40.756 307.022 40.1755 308.263 39.0733 308.381C37.0741 308.594 35.1186 308.8 33.2223 308.998C32.6711 309.057 32.1343 308.8 31.833 308.33C12.8022 278.914 1.29076 244.191 0.00974611 206.871L23.6603 199.417L0 193.201C3.46683 87.7528 88.6149 2.9694 194.241 0L200.508 22.1005ZM26.1591 212.333C27.0778 211.966 28.0848 212.598 28.1657 213.589L28.1581 213.597C30.7968 247.153 43.0567 277.998 62.1813 303.393C62.8575 304.296 62.3282 305.59 61.211 305.737L57.632 306.214C57.0955 306.287 56.5657 306.06 56.2497 305.626C37.2427 279.857 25.0049 248.784 22.1605 215.044C22.109 214.397 22.4842 213.788 23.0869 213.552L26.1591 212.333ZM371.838 213.692C371.919 212.708 372.918 212.069 373.844 212.436L376.916 213.655C377.519 213.898 377.901 214.5 377.842 215.147V215.154C374.998 248.681 362.878 279.571 344.055 305.237C343.739 305.67 343.202 305.898 342.665 305.825C341.482 305.663 340.291 305.501 339.093 305.332C337.983 305.171 337.454 303.885 338.123 302.989C357.057 277.697 369.192 247.028 371.838 213.692ZM215.326 22.1622C301.74 29.5081 370.602 98.3833 377.857 184.778C377.908 185.425 377.534 186.027 376.931 186.27L373.859 187.497C372.94 187.864 371.933 187.232 371.852 186.241C365.244 102.042 298.08 34.8563 213.864 28.1641C212.872 28.0833 212.239 27.0768 212.607 26.1586L213.834 23.0876C214.077 22.4853 214.68 22.1108 215.326 22.1622ZM184.713 22.1546C185.36 22.1032 185.963 22.4782 186.205 23.0805L187.433 26.151C187.8 27.0692 187.168 28.083 186.176 28.1565H186.183C102.033 34.8267 34.898 101.887 28.1728 185.976C28.0919 186.96 27.0923 187.599 26.1662 187.232L23.094 186.013C22.4913 185.77 22.1093 185.168 22.1681 184.521C29.5402 98.2365 98.3655 29.4786 184.713 22.1546Z" fill="url(#paint7_linear_5767_95)"/>
<path d="M119.918 99.5023L128.539 102.69C128.863 102.808 128.863 103.263 128.539 103.381L119.918 106.569C119.815 106.606 119.741 106.687 119.697 106.79L116.507 115.406C116.39 115.729 115.934 115.729 115.817 115.406L112.627 106.79C112.59 106.687 112.509 106.613 112.406 106.569L103.785 103.381C103.461 103.263 103.461 102.808 103.785 102.69L112.406 99.5023C112.509 99.4656 112.583 99.3848 112.627 99.282L115.817 90.6652C115.934 90.342 116.39 90.342 116.507 90.6652L119.697 99.282C119.734 99.3848 119.815 99.4583 119.918 99.5023Z" fill="url(#paint8_linear_5767_95)"/>
<path d="M310.967 204.648L316.039 206.521C316.362 206.639 316.362 207.094 316.039 207.212L310.967 209.085C310.864 209.122 310.791 209.202 310.747 209.305L308.873 214.374C308.755 214.697 308.299 214.697 308.182 214.374L306.307 209.305C306.271 209.202 306.19 209.129 306.087 209.085L301.015 207.212C300.692 207.094 300.692 206.639 301.015 206.521L306.087 204.648C306.19 204.611 306.263 204.53 306.307 204.428L308.182 199.359C308.299 199.036 308.755 199.036 308.873 199.359L310.747 204.428C310.784 204.53 310.864 204.604 310.967 204.648Z" fill="url(#paint9_linear_5767_95)"/>
<defs>
<linearGradient id="paint0_linear_5767_95" x1="400" y1="203.683" x2="0" y2="203.683" gradientUnits="userSpaceOnUse">
<stop stop-color="#B66F1C"/>
<stop offset="1" stop-color="#F7C873"/>
</linearGradient>
<linearGradient id="paint1_linear_5767_95" x1="400" y1="203.683" x2="0" y2="203.683" gradientUnits="userSpaceOnUse">
<stop stop-color="#B66F1C"/>
<stop offset="1" stop-color="#F7C873"/>
</linearGradient>
<linearGradient id="paint2_linear_5767_95" x1="400" y1="203.683" x2="0" y2="203.683" gradientUnits="userSpaceOnUse">
<stop stop-color="#B66F1C"/>
<stop offset="1" stop-color="#F7C873"/>
</linearGradient>
<linearGradient id="paint3_linear_5767_95" x1="400" y1="203.683" x2="0" y2="203.683" gradientUnits="userSpaceOnUse">
<stop stop-color="#B66F1C"/>
<stop offset="1" stop-color="#F7C873"/>
</linearGradient>
<linearGradient id="paint4_linear_5767_95" x1="400" y1="203.683" x2="0" y2="203.683" gradientUnits="userSpaceOnUse">
<stop stop-color="#B66F1C"/>
<stop offset="1" stop-color="#F7C873"/>
</linearGradient>
<linearGradient id="paint5_linear_5767_95" x1="400" y1="203.683" x2="0" y2="203.683" gradientUnits="userSpaceOnUse">
<stop stop-color="#B66F1C"/>
<stop offset="1" stop-color="#F7C873"/>
</linearGradient>
<linearGradient id="paint6_linear_5767_95" x1="400" y1="203.683" x2="0" y2="203.683" gradientUnits="userSpaceOnUse">
<stop stop-color="#B66F1C"/>
<stop offset="1" stop-color="#F7C873"/>
</linearGradient>
<linearGradient id="paint7_linear_5767_95" x1="400" y1="203.683" x2="0" y2="203.683" gradientUnits="userSpaceOnUse">
<stop stop-color="#B66F1C"/>
<stop offset="1" stop-color="#F7C873"/>
</linearGradient>
<linearGradient id="paint8_linear_5767_95" x1="400" y1="203.683" x2="0" y2="203.683" gradientUnits="userSpaceOnUse">
<stop stop-color="#B66F1C"/>
<stop offset="1" stop-color="#F7C873"/>
</linearGradient>
<linearGradient id="paint9_linear_5767_95" x1="400" y1="203.683" x2="0" y2="203.683" gradientUnits="userSpaceOnUse">
<stop stop-color="#B66F1C"/>
<stop offset="1" stop-color="#F7C873"/>
</linearGradient>
</defs>
</svg>
