<svg width="268" height="109" viewBox="0 0 268 109" fill="none" xmlns="http://www.w3.org/2000/svg">
<path d="M23.488 44.16C20.416 44.16 17.472 43.7547 14.656 42.944C11.84 42.0907 9.32267 40.8107 7.104 39.104C4.928 37.3547 3.2 35.1787 1.92 32.576C0.64 29.9733 0 26.9013 0 23.36C0 19.264 0.725333 15.7653 2.176 12.864C3.66933 9.92 5.632 7.53067 8.064 5.696C10.496 3.81867 13.1627 2.45333 16.064 1.6C18.9653 0.704 21.824 0.256001 24.64 0.256001C25.9627 0.256001 27.3493 0.362667 28.8 0.576C30.2507 0.789333 31.5947 1.04533 32.832 1.344C34.0693 1.64267 35.0293 1.92 35.712 2.176L35.072 6.528C32.768 5.54667 30.4853 4.69333 28.224 3.968C26.0053 3.24267 23.5093 2.88 20.736 2.88C16.2133 3.904 12.7573 6.144 10.368 9.6C7.97867 13.0133 6.784 17.2587 6.784 22.336C6.784 26.6027 7.552 30.208 9.088 33.152C10.6667 36.0533 12.8 38.2507 15.488 39.744C18.176 41.1947 21.248 41.92 24.704 41.92C26.9653 41.92 29.2053 41.6427 31.424 41.088C33.6427 40.4907 35.4133 39.616 36.736 38.464V41.984C35.456 42.496 34.0267 42.9227 32.448 43.264C30.8693 43.5627 29.2907 43.776 27.712 43.904C26.176 44.0747 24.768 44.16 23.488 44.16Z" fill="url(#paint0_linear_5767_96)"/>
<path d="M45.6855 43.392L64.6935 0H65.6535L84.6615 43.392H77.6855L72.8855 31.872H53.8775L49.1415 43.392H45.6855ZM54.8375 29.44H71.8615L63.4135 8.704L54.8375 29.44Z" fill="url(#paint1_linear_5767_96)"/>
<path d="M123.504 44.288L108.656 23.168H103.728V43.392H97.4555V1.024H111.28C114.053 1.024 116.549 1.45067 118.768 2.304C120.986 3.11467 122.736 4.33067 124.016 5.952C125.338 7.53067 126 9.49333 126 11.84C126 14.8693 124.848 17.28 122.544 19.072C120.24 20.8213 117.317 22.016 113.776 22.656L130.928 43.392L123.504 44.288ZM103.728 21.248H107.824C110.938 21.248 113.306 20.8 114.928 19.904C116.592 19.008 117.744 17.8773 118.384 16.512C119.024 15.104 119.344 13.6533 119.344 12.16C119.344 11.9467 119.28 11.4773 119.152 10.752C119.066 9.984 118.81 9.13067 118.384 8.192C117.957 7.21067 117.253 6.29333 116.271 5.44C115.333 4.544 114.01 3.86133 112.304 3.392C111.066 3.392 109.594 3.49867 107.888 3.712C106.224 3.92533 104.837 4.18133 103.728 4.48V21.248Z" fill="url(#paint2_linear_5767_96)"/>
<path d="M152.924 43.392V4.096C152.241 3.92533 151.559 3.79733 150.876 3.712C150.193 3.62667 149.425 3.584 148.572 3.584L139.932 5.568L139.548 1.024H172.508L172.188 5.568L163.484 3.584C162.631 3.584 161.863 3.62667 161.18 3.712C160.497 3.79733 159.815 3.92533 159.132 4.096V43.392H152.924Z" fill="url(#paint3_linear_5767_96)"/>
<path d="M176.386 43.392L195.394 0H196.354L215.362 43.392H208.386L203.586 31.872H184.577L179.842 43.392H176.386ZM185.538 29.44H202.562L194.114 8.704L185.538 29.44Z" fill="url(#paint4_linear_5767_96)"/>
<path d="M3.456 107.392L5.824 65.024H11.776L26.56 97.344L40.704 65.024H47.232L49.6 107.392H43.072L41.344 70.976H41.088L24.96 107.392H24.064L8.256 72.448H8L6.272 107.392H3.456Z" fill="url(#paint5_linear_5767_96)"/>
<path d="M62.123 107.392L81.131 64H82.091L101.099 107.392H94.123L89.323 95.872H70.315L65.579 107.392H62.123ZM71.275 93.44H88.299L79.851 72.704L71.275 93.44Z" fill="url(#paint6_linear_5767_96)"/>
<path d="M132.419 108.16C129.432 108.16 126.531 107.755 123.715 106.944C120.942 106.091 118.424 104.811 116.163 103.104C113.944 101.397 112.174 99.2427 110.851 96.64C109.571 94.0373 108.931 90.9653 108.931 87.424C108.931 83.328 109.678 79.8293 111.171 76.928C112.707 73.984 114.691 71.5733 117.123 69.696C119.598 67.8187 122.264 66.4533 125.123 65.6C128.024 64.704 130.84 64.256 133.571 64.256C134.894 64.256 136.28 64.3627 137.731 64.576C139.182 64.7893 140.526 65.0453 141.763 65.344C143 65.6427 143.96 65.9413 144.643 66.24L144.003 70.528C141.528 69.4613 139.139 68.5867 136.835 67.904C134.531 67.2213 132.142 66.88 129.667 66.88C125.4 67.9467 122.008 70.2293 119.491 73.728C116.974 77.184 115.715 81.408 115.715 86.4C115.715 90.6667 116.483 94.2507 118.019 97.152C119.598 100.053 121.731 102.251 124.419 103.744C127.107 105.195 130.179 105.92 133.635 105.92C134.616 105.92 135.598 105.877 136.579 105.792C137.56 105.664 138.52 105.493 139.459 105.28V89.152H145.667V105.984C144.387 106.496 142.958 106.923 141.379 107.264C139.8 107.563 138.222 107.776 136.643 107.904C135.107 108.075 133.699 108.16 132.419 108.16Z" fill="url(#paint7_linear_5767_96)"/>
<path d="M162.543 107.392V65.024H168.431V107.392H162.543Z" fill="url(#paint8_linear_5767_96)"/>
<path d="M205.901 108.16C202.829 108.16 199.885 107.755 197.069 106.944C194.253 106.091 191.735 104.811 189.517 103.104C187.341 101.355 185.613 99.1787 184.333 96.576C183.053 93.9733 182.413 90.9013 182.413 87.36C182.413 83.264 183.138 79.7653 184.589 76.864C186.082 73.92 188.045 71.5307 190.477 69.696C192.909 67.8187 195.575 66.4533 198.477 65.6C201.378 64.704 204.237 64.256 207.053 64.256C208.375 64.256 209.762 64.3627 211.213 64.576C212.663 64.7893 214.007 65.0453 215.245 65.344C216.482 65.6427 217.442 65.92 218.125 66.176L217.485 70.528C215.181 69.5467 212.898 68.6933 210.637 67.968C208.418 67.2427 205.922 66.88 203.149 66.88C198.626 67.904 195.17 70.144 192.781 73.6C190.391 77.0133 189.197 81.2587 189.197 86.336C189.197 90.6027 189.965 94.208 191.501 97.152C193.079 100.053 195.213 102.251 197.901 103.744C200.589 105.195 203.66 105.92 207.117 105.92C209.378 105.92 211.618 105.643 213.837 105.088C216.055 104.491 217.826 103.616 219.149 102.464V105.984C217.869 106.496 216.439 106.923 214.861 107.264C213.282 107.563 211.703 107.776 210.125 107.904C208.589 108.075 207.181 108.16 205.901 108.16Z" fill="url(#paint9_linear_5767_96)"/>
<path d="M228.098 107.392L247.106 64H248.066L267.074 107.392H260.098L255.298 95.872H236.29L231.554 107.392H228.098ZM237.25 93.44H254.274L245.826 72.704L237.25 93.44Z" fill="url(#paint10_linear_5767_96)"/>
<defs>
<linearGradient id="paint0_linear_5767_96" x1="267.074" y1="54.0798" x2="0" y2="54.0798" gradientUnits="userSpaceOnUse">
<stop stop-color="#B66F1C"/>
<stop offset="1" stop-color="#F7C873"/>
</linearGradient>
<linearGradient id="paint1_linear_5767_96" x1="267.074" y1="54.0798" x2="0" y2="54.0798" gradientUnits="userSpaceOnUse">
<stop stop-color="#B66F1C"/>
<stop offset="1" stop-color="#F7C873"/>
</linearGradient>
<linearGradient id="paint2_linear_5767_96" x1="267.074" y1="54.0798" x2="0" y2="54.0798" gradientUnits="userSpaceOnUse">
<stop stop-color="#B66F1C"/>
<stop offset="1" stop-color="#F7C873"/>
</linearGradient>
<linearGradient id="paint3_linear_5767_96" x1="267.074" y1="54.0798" x2="0" y2="54.0798" gradientUnits="userSpaceOnUse">
<stop stop-color="#B66F1C"/>
<stop offset="1" stop-color="#F7C873"/>
</linearGradient>
<linearGradient id="paint4_linear_5767_96" x1="267.074" y1="54.0798" x2="0" y2="54.0798" gradientUnits="userSpaceOnUse">
<stop stop-color="#B66F1C"/>
<stop offset="1" stop-color="#F7C873"/>
</linearGradient>
<linearGradient id="paint5_linear_5767_96" x1="267.074" y1="54.0798" x2="0" y2="54.0798" gradientUnits="userSpaceOnUse">
<stop stop-color="#B66F1C"/>
<stop offset="1" stop-color="#F7C873"/>
</linearGradient>
<linearGradient id="paint6_linear_5767_96" x1="267.074" y1="54.0798" x2="0" y2="54.0798" gradientUnits="userSpaceOnUse">
<stop stop-color="#B66F1C"/>
<stop offset="1" stop-color="#F7C873"/>
</linearGradient>
<linearGradient id="paint7_linear_5767_96" x1="267.074" y1="54.0798" x2="0" y2="54.0798" gradientUnits="userSpaceOnUse">
<stop stop-color="#B66F1C"/>
<stop offset="1" stop-color="#F7C873"/>
</linearGradient>
<linearGradient id="paint8_linear_5767_96" x1="267.074" y1="54.0798" x2="0" y2="54.0798" gradientUnits="userSpaceOnUse">
<stop stop-color="#B66F1C"/>
<stop offset="1" stop-color="#F7C873"/>
</linearGradient>
<linearGradient id="paint9_linear_5767_96" x1="267.074" y1="54.0798" x2="0" y2="54.0798" gradientUnits="userSpaceOnUse">
<stop stop-color="#B66F1C"/>
<stop offset="1" stop-color="#F7C873"/>
</linearGradient>
<linearGradient id="paint10_linear_5767_96" x1="267.074" y1="54.0798" x2="0" y2="54.0798" gradientUnits="userSpaceOnUse">
<stop stop-color="#B66F1C"/>
<stop offset="1" stop-color="#F7C873"/>
</linearGradient>
</defs>
</svg>
