<svg width="29" height="17" viewBox="0 0 29 17" fill="none" xmlns="http://www.w3.org/2000/svg">
<path d="M28.5424 7.87276C28.4414 7.84336 27.6003 7.7423 26.6858 7.65593C18.3794 6.83457 7.92064 6.05914 1.29095 0.557659C0.565542 -0.048717 -9.1545e-05 -0.177341 -9.15639e-05 0.254472C-9.15702e-05 0.399635 0.15968 1.06298 0.348837 1.72631C0.754698 3.69795 1.21933 5.68797 1.21933 8.5067C1.21933 10.6933 0.885087 13.286 0.306596 14.9122C-0.18558 16.2977 0.161515 16.3694 1.74272 15.2007C5.44139 12.4739 9.71855 11.0314 17.9423 9.74701C21.191 9.227 27.6885 8.36154 28.2541 8.36154C28.5737 8.36154 28.7187 8.28988 28.7187 8.14472C28.7187 8.01425 28.6324 7.90032 28.5443 7.87092L28.5424 7.87276Z" fill="url(#paint0_linear_5712_612)"/>
<defs>
<linearGradient id="paint0_linear_5712_612" x1="28.7187" y1="8.00952" x2="-9.19028e-05" y2="8.00952" gradientUnits="userSpaceOnUse">
<stop stop-color="#4F5CA1"/>
<stop offset="1" stop-color="#1D223B"/>
</linearGradient>
</defs>
</svg>
