<svg width="1164" height="44" viewBox="0 0 1164 44" fill="none" xmlns="http://www.w3.org/2000/svg">
<path d="M581.772 0.783203L618.343 21.8701L618.718 22.0859L618.344 22.3027L581.773 43.4668L581.647 43.5391L581.522 43.4668L544.875 22.3027L544.499 22.0859L544.875 21.8701L581.523 0.783203L581.647 0.711914L581.772 0.783203ZM699.011 8.7832L718.055 19.75H1122.08L1138.81 14.7607L1138.89 14.7393L1138.96 14.7607L1161.84 21.583L1162.64 21.8203L1161.84 22.0615L1138.96 28.9609L1138.89 28.9824L1138.81 28.9609L1123.19 24.25H718.695L699.011 35.6523L698.886 35.7246L698.76 35.6523L675.885 22.4014L653.011 35.6523L652.886 35.7246L652.76 35.6523L629.875 22.3955L629.5 22.1787L629.875 21.9619L652.761 8.7832L652.886 8.71094L653.011 8.7832L675.885 21.9551L698.761 8.7832L698.886 8.71094L699.011 8.7832ZM510.134 8.6875L533.02 21.8672L533.395 22.083L533.021 22.2998L510.135 35.5566L510.009 35.6289L509.884 35.5566L487.434 22.5518L464.983 35.5566L464.857 35.6299L464.732 35.5566L445.212 24.25H40.584L24.958 28.9609L24.8857 28.9824L24.8135 28.9609L1.92773 22.0615L1.12988 21.8203L1.92871 21.582L24.8145 14.7607L24.8857 14.7393L24.957 14.7607L41.6963 19.75H445.524L464.733 8.68848L464.857 8.61621L464.982 8.68848L487.433 21.6162L509.885 8.6875L510.009 8.61621L510.134 8.6875Z" fill="#1D223B" stroke="#F7C873" stroke-width="0.5"/>
</svg>
