<svg width="52" height="44" viewBox="0 0 52 44" fill="none" xmlns="http://www.w3.org/2000/svg">
<path d="M2 30.5C2.39783 30.5 2.77924 30.6581 3.06055 30.9395C3.34185 31.2208 3.5 31.6022 3.5 32V40.5H12C12.3978 40.5 12.7792 40.6581 13.0605 40.9395C13.3419 41.2208 13.5 41.6022 13.5 42C13.5 42.3978 13.3419 42.7792 13.0605 43.0605C12.7792 43.3419 12.3978 43.5 12 43.5H2C1.60217 43.5 1.22076 43.3419 0.939453 43.0605C0.658149 42.7792 0.5 42.3978 0.5 42V32C0.5 31.6022 0.658149 31.2208 0.939453 30.9395C1.22076 30.6581 1.60217 30.5 2 30.5ZM50 30.5C50.3978 30.5 50.7792 30.6581 51.0605 30.9395C51.3419 31.2208 51.5 31.6022 51.5 32V42C51.5 42.3978 51.3419 42.7792 51.0605 43.0605C50.7792 43.3419 50.3978 43.5 50 43.5H40C39.6022 43.5 39.2208 43.3419 38.9395 43.0605C38.6581 42.7792 38.5 42.3978 38.5 42C38.5 41.6022 38.6581 41.2208 38.9395 40.9395C39.2208 40.6581 39.6022 40.5 40 40.5H48.5V32C48.5 31.6022 48.6581 31.2208 48.9395 30.9395C49.2208 30.6581 49.6022 30.5 50 30.5ZM37.752 17.0137L27.752 22.7256L27.5 22.8701V35.4141L28.248 34.9863L38.248 29.2744L38.5 29.1299V16.5859L37.752 17.0137ZM25.752 7.86816L15.7822 13.5654L15.0225 14L15.7822 14.4346L25.752 20.1318L26 20.2734L26.248 20.1318L36.2178 14.4346L36.9775 14L36.2178 13.5654L26.248 7.86816L26 7.72656L25.752 7.86816ZM2 0.5H12C12.3978 0.5 12.7792 0.658148 13.0605 0.939453C13.3419 1.22076 13.5 1.60218 13.5 2C13.5 2.39782 13.3419 2.77924 13.0605 3.06055C12.7792 3.34185 12.3978 3.5 12 3.5H3.5V12C3.5 12.3978 3.34185 12.7792 3.06055 13.0605C2.77924 13.3419 2.39782 13.5 2 13.5C1.60218 13.5 1.22076 13.3419 0.939453 13.0605C0.658149 12.7792 0.5 12.3978 0.5 12V2C0.5 1.60218 0.658149 1.22076 0.939453 0.939453C1.22076 0.658149 1.60218 0.5 2 0.5ZM40 0.5H50C50.3978 0.5 50.7792 0.658149 51.0605 0.939453C51.3419 1.22076 51.5 1.60217 51.5 2V12C51.5 12.3978 51.3419 12.7792 51.0605 13.0605C50.7792 13.3419 50.3978 13.5 50 13.5C49.6022 13.5 49.2208 13.3419 48.9395 13.0605C48.6581 12.7792 48.5 12.3978 48.5 12V3.5H40C39.6022 3.5 39.2208 3.34185 38.9395 3.06055C38.6581 2.77924 38.5 2.39783 38.5 2C38.5 1.60217 38.6581 1.22076 38.9395 0.939453C39.2208 0.658149 39.6022 0.5 40 0.5ZM24.5 22.8701L24.248 22.7256L14.248 17.0137L13.5 16.5859V29.1299L13.752 29.2744L23.752 34.9863L24.5 35.4141V22.8701ZM10.5 13.9951C10.4977 13.7298 10.5657 13.4687 10.6973 13.2383C10.8286 13.0085 11.0181 12.8163 11.2471 12.6836L11.248 12.6846L25.248 4.68457C25.4746 4.55505 25.7312 4.48638 25.9922 4.48633C26.2533 4.48633 26.5106 4.555 26.7373 4.68457L40.7373 12.6846V12.6836C40.9664 12.8163 41.1557 13.0083 41.2871 13.2383C41.4188 13.4687 41.4877 13.7297 41.4854 13.9951V30.0068C41.4888 30.2713 41.4217 30.5322 41.292 30.7627C41.1634 30.991 40.9771 31.1815 40.752 31.3154L26.752 39.3154C26.5254 39.445 26.2688 39.5136 26.0078 39.5137C25.7467 39.5137 25.4894 39.445 25.2627 39.3154L11.2471 31.3154C11.0183 31.1827 10.8285 30.9914 10.6973 30.7617C10.5985 30.5888 10.536 30.3985 10.5117 30.2021L10.5 30.0049V13.9951Z" fill="#1D223B" stroke="#F5E5B8"/>
</svg>
