<svg width="50" height="50" viewBox="0 0 50 50" fill="none" xmlns="http://www.w3.org/2000/svg">
<path d="M3.5 46.4995H12.3799L11.5264 45.646L4.35352 38.4741L3.5 37.6206V46.4995ZM25.6465 12.4741L4.47363 33.646L4.12012 33.9995L16 45.8794L37.8799 23.9995L37.5264 23.646L26.3535 12.4741L26 12.1206L25.6465 12.4741ZM28.123 9.99951L28.4766 10.353L39.6465 21.5259L40 21.8794L46.707 15.1724L46.3535 14.8188L35.1836 3.646L34.8301 3.29248L28.123 9.99951ZM0.5 34.8257C0.498547 34.3666 0.588803 33.9119 0.764648 33.4878C0.940517 33.0637 1.1985 32.6784 1.52441 32.355L32.3535 1.52588C32.6785 1.20079 33.0646 0.943031 33.4893 0.76709C33.9139 0.591154 34.3694 0.500488 34.8291 0.500488C35.2886 0.500532 35.7435 0.591269 36.168 0.76709C36.5926 0.94301 36.9787 1.20084 37.3037 1.52588L48.4766 12.6958C48.8016 13.0208 49.0594 13.4069 49.2354 13.8315C49.4113 14.2562 49.502 14.7117 49.502 15.1714C49.5019 15.6309 49.4112 16.0857 49.2354 16.5103C49.0594 16.9349 48.8016 17.321 48.4766 17.646L41.8643 24.2593L41.6641 24.4595L41.7324 24.7339L43.457 31.6362C43.5198 31.8877 43.5166 32.1512 43.4473 32.4009C43.3953 32.5881 43.3074 32.7627 43.1895 32.9155L43.0615 33.061L33.0615 43.061C32.7801 43.3422 32.3987 43.5006 32.001 43.5005C31.6032 43.5003 31.2216 43.3414 30.9404 43.0601C30.6593 42.7787 30.5009 42.3973 30.501 41.9995C30.5012 41.6016 30.6599 41.2202 30.9414 40.939L40.1406 31.7407L40.3418 31.5405L40.2725 31.2661L39.4023 27.7905L39.1885 26.9351L38.5645 27.5591L17.6465 48.4741L17.6455 48.4751C17.3221 48.8011 16.9368 49.0599 16.5127 49.2358C16.0885 49.4117 15.633 49.501 15.1738 49.4995H4C3.07189 49.4995 2.18174 49.1313 1.52539 48.4751C0.869013 47.8187 0.5 46.9278 0.5 45.9995V34.8257Z" fill="#1D223B" stroke="#F5E5B8"/>
</svg>
