<svg width="50" height="52" viewBox="0 0 50 52" fill="none" xmlns="http://www.w3.org/2000/svg">
<path d="M47.1484 34.4854C47.3486 34.4979 47.5442 34.5502 47.7236 34.6396C47.9032 34.7292 48.0638 34.8544 48.1943 35.0068C48.3247 35.1592 48.4236 35.3363 48.4844 35.5273C48.5452 35.7185 48.5663 35.9204 48.5479 36.1201C48.5294 36.3197 48.4716 36.5137 48.377 36.6904C48.2822 36.8673 48.1523 37.0234 47.9961 37.1494C47.8401 37.2753 47.6605 37.3686 47.4678 37.4238L47.46 37.4258L47.4531 37.4287L31.4531 42.5234L29.957 43L31.4531 43.4766L47.4531 48.5693C47.6408 48.629 47.8152 48.7246 47.9658 48.8516C48.1164 48.9786 48.2405 49.1346 48.3311 49.3096C48.4215 49.4844 48.4774 49.675 48.4941 49.8711C48.5108 50.0673 48.4884 50.2654 48.4287 50.4531C48.369 50.6409 48.2725 50.8152 48.1455 50.9658C48.0186 51.1164 47.8633 51.2405 47.6885 51.3311C47.5135 51.4216 47.3222 51.4775 47.126 51.4941C46.9297 51.5108 46.7317 51.4885 46.5439 51.4287L25.1514 44.6211L25 44.5723L24.8486 44.6211L3.45605 51.4287C3.26829 51.4884 3.07034 51.5098 2.87402 51.4932C2.67775 51.4765 2.48647 51.4216 2.31152 51.3311C2.13664 51.2405 1.98146 51.1164 1.85449 50.9658C1.72747 50.8152 1.631 50.6409 1.57129 50.4531C1.51169 50.2656 1.48926 50.0681 1.50586 49.8721C1.52254 49.6758 1.57845 49.4845 1.66895 49.3096C1.75949 49.1346 1.88356 48.9786 2.03418 48.8516C2.18474 48.7246 2.35922 48.629 2.54688 48.5693L18.5469 43.4766L20.043 43L18.5469 42.5234L2.54688 37.4287L2.54004 37.4258L2.53223 37.4238C2.3395 37.3686 2.15997 37.2753 2.00391 37.1494C1.84771 37.0234 1.71784 36.8673 1.62305 36.6904C1.52837 36.5137 1.46961 36.3198 1.45117 36.1201C1.43276 35.9203 1.45481 35.7185 1.51562 35.5273C1.57644 35.3362 1.67527 35.1592 1.80566 35.0068C1.93612 34.8545 2.09592 34.7292 2.27539 34.6396C2.45498 34.5501 2.65128 34.4979 2.85156 34.4854C3.05163 34.4728 3.25222 34.5001 3.44141 34.5664L3.44922 34.5693L3.45605 34.5713L24.8486 41.376L25 41.4248L25.1514 41.376L46.5439 34.5713L46.5508 34.5693L46.5576 34.5664C46.747 34.5 46.9482 34.4728 47.1484 34.4854ZM25 0.513672C25.2773 0.513687 25.5489 0.591093 25.7852 0.736328L25.793 0.740234C26.0539 0.894796 29.4992 3.04475 32.873 6.63184C36.2547 10.2272 39.5 15.197 39.5 21C39.5 24.8456 37.9722 28.5337 35.2529 31.2529C32.5337 33.9722 28.8456 35.5 25 35.5C21.1544 35.5 17.4663 33.9722 14.7471 31.2529C12.0278 28.5337 10.5 24.8456 10.5 21C10.5 16.142 12.8626 11.0678 17.4199 6.34766V6.34668C19.4623 4.2228 21.7421 2.34025 24.2139 0.736328C24.4502 0.591049 24.7226 0.513672 25 0.513672ZM24.668 20.1787C23.1539 21.5237 20.5 24.3754 20.5 28C20.5 29.1934 20.9745 30.3377 21.8184 31.1816C22.6623 32.0255 23.8066 32.5 25 32.5C26.1934 32.5 27.3377 32.0255 28.1816 31.1816C29.0255 30.3377 29.5 29.1934 29.5 28C29.5 24.3754 26.8461 21.5237 25.332 20.1787L25 19.8838L24.668 20.1787ZM24.71 4.00781C23.2249 5.0637 20.4365 7.23875 18.0146 10.1709C15.5978 13.097 13.5 16.833 13.5 21C13.4992 23.9429 14.6308 26.7731 16.6602 28.9043L17.5225 29.8096V28.5596C17.5224 28.4497 17.5162 28.3416 17.5107 28.251C17.505 28.1552 17.5 28.0762 17.5 28C17.5 24.6616 19.0769 21.9027 20.7236 19.9336C22.3638 17.9724 24.0382 16.8373 24.167 16.751C24.4135 16.5865 24.7037 16.499 25 16.499C25.296 16.499 25.5857 16.5858 25.832 16.75C25.9528 16.8308 27.6317 17.967 29.2764 19.9336C30.9231 21.9027 32.5 24.6617 32.5 28C32.5 28.1927 32.4997 28.3502 32.4814 28.5L32.2988 29.9971L33.3398 28.9043C35.3692 26.7731 36.5008 23.9428 36.5 21C36.5 16.833 34.4028 13.097 31.9863 10.1709C29.5646 7.23851 26.7754 5.06273 25.2891 4.00684L25 3.80176L24.71 4.00781Z" fill="#1D223B" stroke="#F5E5B8"/>
</svg>
