<svg width="50" height="52" viewBox="0 0 50 52" fill="none" xmlns="http://www.w3.org/2000/svg">
<path d="M10 0.5H46C46.9283 0.5 47.8182 0.869013 48.4746 1.52539C49.131 2.18177 49.5 3.07174 49.5 4V48C49.5 48.9283 49.131 49.8182 48.4746 50.4746C47.8182 51.131 46.9283 51.5 46 51.5H10C9.07174 51.5 8.18177 51.131 7.52539 50.4746C6.86901 49.8182 6.5 48.9283 6.5 48V41.5H2C1.60217 41.5 1.22076 41.3419 0.939453 41.0605C0.658149 40.7792 0.5 40.3978 0.5 40C0.5 39.6022 0.658149 39.2208 0.939453 38.9395C1.22076 38.6581 1.60217 38.5 2 38.5H6.5V27.5H2C1.60217 27.5 1.22076 27.3419 0.939453 27.0605C0.658149 26.7792 0.5 26.3978 0.5 26C0.5 25.6022 0.658149 25.2208 0.939453 24.9395C1.22076 24.6581 1.60218 24.5 2 24.5H6.5V13.5H2C1.60218 13.5 1.22076 13.3419 0.939453 13.0605C0.658149 12.7792 0.5 12.3978 0.5 12C0.5 11.6022 0.658149 11.2208 0.939453 10.9395C1.18554 10.6934 1.50826 10.542 1.85156 10.5078L2 10.5H6.5V4C6.5 3.07174 6.86901 2.18177 7.52539 1.52539C8.18177 0.869013 9.07174 0.5 10 0.5ZM9.5 48.5H46.5V3.5H9.5V48.5ZM28.0078 12.4922C29.9234 12.4923 31.7944 13.072 33.375 14.1543C34.9555 15.2366 36.1716 16.7716 36.8643 18.5576C37.5569 20.3436 37.6943 22.2971 37.2568 24.1621C36.8193 26.027 35.8277 27.7162 34.4131 29.0078L33.8428 29.5293L34.5508 29.8359C37.1881 30.9799 39.4805 32.7943 41.1992 35.0986L41.2002 35.0996C41.3184 35.2572 41.4042 35.4371 41.4531 35.6279C41.5019 35.8186 41.5131 36.0171 41.4854 36.2119C41.4575 36.4069 41.3914 36.5951 41.291 36.7646C41.1907 36.934 41.0579 37.0821 40.9004 37.2002C40.7428 37.3184 40.5629 37.4042 40.3721 37.4531C40.1814 37.5019 39.9829 37.5131 39.7881 37.4854C39.5931 37.4575 39.4049 37.3914 39.2354 37.291C39.066 37.1907 38.9179 37.0579 38.7998 36.9004C37.5423 35.2237 35.9117 33.8621 34.0371 32.9248C32.1627 31.9877 30.0957 31.5 28 31.5C25.9043 31.5 23.8373 31.9877 21.9629 32.9248C20.0883 33.8621 18.4577 35.2237 17.2002 36.9004C17.082 37.0582 16.9333 37.1915 16.7637 37.292C16.5941 37.3925 16.4061 37.4585 16.2109 37.4863C16.0158 37.5142 15.8169 37.5031 15.626 37.4541C15.435 37.4051 15.2553 37.3187 15.0977 37.2002C14.7798 36.9612 14.5696 36.6056 14.5137 36.2119C14.4578 35.8182 14.561 35.4185 14.7998 35.1006L14.8008 35.0996C16.5235 32.7934 18.8204 30.9787 21.4629 29.8369L22.1729 29.5293L21.6025 29.0078C20.1878 27.7161 19.1963 26.0272 18.7588 24.1621C18.3213 22.2971 18.4578 20.3436 19.1504 18.5576C19.8431 16.7715 21.06 15.2366 22.6406 14.1543C24.2213 13.072 26.0922 12.4922 28.0078 12.4922ZM29.2686 15.625C28.0077 15.3742 26.7004 15.5031 25.5127 15.9951C24.3251 16.4871 23.3099 17.3198 22.5957 18.3887C21.8815 19.4576 21.5 20.7144 21.5 22C21.5 23.7239 22.1843 25.3777 23.4033 26.5967C24.6223 27.8157 26.2761 28.5 28 28.5C29.2856 28.5 30.5424 28.1185 31.6113 27.4043C32.6801 26.6901 33.5129 25.6749 34.0049 24.4873C34.4969 23.2996 34.6258 21.9923 34.375 20.7314C34.1241 19.4708 33.5056 18.3122 32.5967 17.4033C31.6878 16.4944 30.5292 15.8759 29.2686 15.625Z" fill="#1D223B" stroke="#F5E5B8"/>
</svg>
