<svg width="53" height="56" viewBox="0 0 53 56" fill="none" xmlns="http://www.w3.org/2000/svg">
<path d="M49.251 38.7031C49.5942 38.506 50.0022 38.4537 50.3848 38.5557C50.7681 38.6579 51.0954 38.9081 51.2949 39.251C51.4923 39.5944 51.5464 40.002 51.4443 40.3848C51.3421 40.768 51.0919 41.0954 50.749 41.2949L50.748 41.2959L26.748 55.2949C26.5187 55.4287 26.2577 55.5 25.9922 55.5C25.7268 55.4999 25.4656 55.4286 25.2363 55.2949L1.24121 41.2979C0.903975 41.0947 0.660354 40.7671 0.5625 40.3857C0.464591 40.0037 0.521021 39.5975 0.719727 39.2568C0.918458 38.9164 1.24345 38.6683 1.62402 38.5654C2.00233 38.4632 2.40521 38.5129 2.74707 38.7041H2.74805L25.748 52.1172L26 52.2637L26.252 52.1172L49.252 38.7041L49.251 38.7031ZM49.8135 26.502C50.0099 26.4733 50.2101 26.484 50.4023 26.5332C50.5948 26.5825 50.7761 26.6703 50.9346 26.79C51.0928 26.9096 51.2262 27.0591 51.3262 27.2305C51.4262 27.402 51.4914 27.5922 51.5176 27.7891C51.5437 27.9859 51.5303 28.1862 51.4785 28.3779C51.4267 28.5697 51.3366 28.7493 51.2148 28.9062C51.0931 29.0631 50.9414 29.1942 50.7686 29.292L50.7627 29.2959L26.7627 43.2949C26.5335 43.4286 26.2732 43.4999 26.0078 43.5C25.7423 43.5 25.4813 43.4287 25.252 43.2949H25.251L1.27148 29.3076C0.95685 29.0961 0.733666 28.7727 0.647461 28.4033C0.560874 28.0319 0.619548 27.6416 0.810547 27.3115C1.00169 26.9813 1.31138 26.7358 1.67676 26.626C2.03838 26.5173 2.42754 26.5493 2.7666 26.7148L25.748 40.1172L26 40.2637L26.252 40.1172L49.252 26.7041L49.2578 26.7012C49.4281 26.5989 49.617 26.5307 49.8135 26.502ZM26.0078 0.5C26.2731 0.500055 26.5335 0.570545 26.7627 0.704102L50.7627 14.7041C50.9891 14.8362 51.1771 15.0256 51.3076 15.2529C51.4382 15.4803 51.5068 15.7379 51.5068 16C51.5068 16.2621 51.4381 16.5198 51.3076 16.7471C51.1771 16.9743 50.989 17.1638 50.7627 17.2959L26.7627 31.2949C26.5335 31.4286 26.2732 31.4999 26.0078 31.5C25.7423 31.5 25.4803 31.4287 25.251 31.2949L1.25195 17.2959V17.2949L1.25 17.2939L1.08691 17.1855C0.931644 17.0664 0.800872 16.9175 0.702148 16.7471C0.570912 16.5204 0.501 16.2629 0.5 16.001C0.500598 15.7383 0.570526 15.4803 0.702148 15.2529C0.800851 15.0825 0.931638 14.9336 1.08691 14.8145L1.25 14.7051L1.25195 14.7041L25.252 0.704102C25.4813 0.570393 25.7423 0.5 26.0078 0.5ZM25.748 3.88281L5.71777 15.5684L4.97754 16L5.71777 16.4316L25.748 28.1162L26 28.2637L26.252 28.1162L46.2822 16.4316L47.0225 16L46.2822 15.5684L26.252 3.88281L26 3.73633L25.748 3.88281Z" fill="#1D223B" stroke="#F5E5B8"/>
</svg>
