<svg width="60" height="40" viewBox="0 0 60 40" fill="none" xmlns="http://www.w3.org/2000/svg">
<path d="M55.1025 0.620117C55.6198 0.48032 56.163 0.462369 56.6885 0.567383C57.2139 0.672412 57.7081 0.897744 58.1318 1.22559L58.1338 1.22754C58.5598 1.55283 58.9046 1.97237 59.1416 2.45312C59.3785 2.93386 59.5015 3.46308 59.5 3.99902V36C59.4997 36.5364 59.376 37.0658 59.1387 37.5469C58.9013 38.0279 58.5564 38.4478 58.1309 38.7744C57.7053 39.101 57.2106 39.3258 56.6846 39.4307C56.1585 39.5355 55.6149 39.5183 55.0967 39.3799H55.0977L54.3037 39.165C49.5933 37.8886 40.7783 35.5 30 35.5C20.5688 35.5 12.6412 37.3283 7.65918 38.6406L5.70898 39.165L4.91406 39.3799C4.61587 39.4594 4.30861 39.4998 4 39.5L3.82617 39.4961C2.9612 39.4531 2.14068 39.0899 1.52539 38.4746C0.869015 37.8182 0.500002 36.9283 0.5 36V4L0.505859 3.7998C0.533043 3.33295 0.653857 2.87569 0.861328 2.45508C1.09846 1.97436 1.44311 1.5541 1.86816 1.22754C2.29308 0.901194 2.78716 0.676526 3.3125 0.571289C3.83808 0.466031 4.38138 0.483403 4.89941 0.621094V0.620117L5.76758 0.855469C10.4728 2.12438 19.2771 4.5 30 4.5C40.7229 4.5 49.5272 2.12438 54.2324 0.855469L55.1025 0.620117ZM3.5 28.793V36.6562L4.13281 36.4824L4.91406 36.2666C9.44693 35.0404 18.8214 32.5001 29.999 32.5C31.0346 32.5017 32.0496 32.5228 33.043 32.5625L34.3203 32.6133L17 15.293L3.5 28.793ZM32.9502 27L38.8564 32.9062L38.9795 33.0283L39.1514 33.0488C43.2572 33.5353 47.3281 34.2828 51.3389 35.2871L53.0908 35.7266L38.6572 21.293L32.9502 27ZM55.8691 3.51758L55.0137 3.75C50.1393 5.06599 41.1114 7.5 30 7.5C18.8879 7.5 9.85954 5.06593 4.98535 3.75H4.98633L4.13086 3.51758L3.5 3.3457V24.5498L14.5234 13.5264C15.1796 12.8706 16.0694 12.5021 16.9971 12.502C17.9249 12.502 18.8154 12.8705 19.4717 13.5264L30.8252 24.8799L36.1787 19.5264C36.5037 19.2013 36.8898 18.9435 37.3145 18.7676C37.739 18.5917 38.1938 18.501 38.6533 18.501C39.113 18.501 39.5685 18.5916 39.9932 18.7676C40.3647 18.9215 40.7066 19.1378 41.0039 19.4072L41.1289 19.5264L56.5 34.8975V3.3457L55.8691 3.51758ZM48.043 12.6904C48.4996 12.5013 49.0025 12.4515 49.4873 12.5479C49.9723 12.6443 50.4179 12.8828 50.7676 13.2324C51.1172 13.5821 51.3557 14.0277 51.4521 14.5127C51.5485 14.9975 51.4987 15.5004 51.3096 15.957C51.1203 16.4137 50.7997 16.8045 50.3887 17.0791C49.9776 17.3536 49.4943 17.5 49 17.5C48.337 17.5 47.7013 17.2364 47.2324 16.7676C46.7636 16.2987 46.5 15.663 46.5 15C46.5 14.5057 46.6464 14.0224 46.9209 13.6113C47.1955 13.2003 47.5863 12.8797 48.043 12.6904Z" fill="#1D223B" stroke="#F5E5B8"/>
</svg>
