<svg width="60" height="48" viewBox="0 0 60 48" fill="none" xmlns="http://www.w3.org/2000/svg">
<path d="M3.99512 13.5L3.50293 13.5039L3.5 13.9961C3.44702 21.1411 5.6321 26.8686 9.69336 29.3281C11.8351 30.6248 14.3199 30.8257 16.8447 29.9902L17.6143 29.7354L17.041 29.1611L10.9443 23.0654C10.6767 22.7822 10.5302 22.4054 10.5352 22.0156C10.5402 21.6247 10.6973 21.2511 10.9736 20.9746C11.2502 20.698 11.6245 20.5402 12.0156 20.5352C12.4065 20.5302 12.7839 20.6781 13.0674 20.9473L19.7344 27.6143L19.9893 26.8447C20.8247 24.3199 20.6242 21.8328 19.3271 19.6934C16.8677 15.6325 11.1409 13.4394 3.99512 13.5ZM55.0146 3.49219C44.8299 3.4601 36.7449 6.66113 33.2344 12.4531C31.1021 15.9568 30.959 20.0684 32.7021 24.1943L32.9902 24.8779L33.5156 24.3535L46.9316 10.9551C47.2152 10.6857 47.5932 10.538 47.9844 10.543C48.3754 10.5481 48.7489 10.7059 49.0254 10.9824C49.3019 11.259 49.4598 11.6324 49.4648 12.0234C49.4698 12.4102 49.3252 12.7839 49.0615 13.0664L35.6387 26.4912L35.1123 27.0176L35.7988 27.3057C39.9249 29.0411 44.0335 28.8941 47.5391 26.7725C53.5229 23.1486 56.7356 14.641 56.4941 3.99414L56.4834 3.5166L56.0068 3.50488L55.0146 3.49219ZM26.5 38.626L19.8496 31.9756L19.5273 32.1348C17.7628 33.009 15.8245 33.4745 13.8555 33.499C11.8423 33.4978 9.86834 32.9432 8.15039 31.8936L8.14844 31.8926L7.66602 31.584C2.75177 28.2679 0.0409756 21.0539 0.576172 11.9746C0.597602 11.6076 0.753746 11.2609 1.01367 11.001C1.27354 10.7413 1.61953 10.5859 1.98633 10.5645C11.3584 10.0145 18.7428 12.9178 21.9043 18.1357C23.9368 21.5091 24.0224 25.5841 22.1309 29.5342L21.9785 29.8525L22.2285 30.1035L26.2959 34.1855L26.9033 34.7959L27.1318 33.9648C27.7933 31.5554 28.9681 29.3175 30.5752 27.4043L30.7891 27.1494L30.6367 26.8535C27.7995 21.34 27.8129 15.6091 30.6602 10.9062C34.9854 3.76749 45.1398 -0.153403 57.998 0.591797C58.365 0.613227 58.7118 0.768395 58.9717 1.02832C59.1991 1.25573 59.3459 1.54961 59.3936 1.86523L59.4082 2.00195C60.1634 14.8599 56.2326 25.0147 49.0938 29.335H49.0928C46.7747 30.7441 44.1121 31.4848 41.3994 31.4766C38.5763 31.4411 35.8011 30.7423 33.2988 29.4346L32.9346 29.2441L32.6777 29.5645C30.7414 31.9729 29.6339 34.9356 29.5107 38.0127L29.5 38.6279V46C29.5 46.3977 29.3417 46.7793 29.0605 47.0605C28.7793 47.3418 28.3977 47.4999 28 47.5C27.6022 47.5 27.2208 47.3418 26.9395 47.0605C26.6581 46.7792 26.5 46.3978 26.5 46V38.626Z" fill="#1D223B" stroke="#F5E5B8"/>
</svg>
