<svg width="52" height="58" viewBox="0 0 52 58" fill="none" xmlns="http://www.w3.org/2000/svg">
<path d="M31.7061 42.5278C32.0963 42.4499 32.5019 42.5297 32.833 42.7505C33.1642 42.9713 33.3936 43.3152 33.4717 43.7056C33.5498 44.0959 33.4698 44.5013 33.249 44.8325L25.249 56.8325C25.1397 56.9965 24.9988 57.1379 24.835 57.2476C24.6713 57.3571 24.4871 57.4335 24.2939 57.4722C23.9037 57.5501 23.4981 57.4693 23.167 57.2485C22.836 57.0277 22.6064 56.6846 22.5283 56.2944C22.4503 55.9041 22.5302 55.4987 22.751 55.1675L30.751 43.1675C30.9718 42.8362 31.3157 42.6059 31.7061 42.5278ZM23.9375 2.86084C27.71 0.750253 32.1021 0.025813 36.3525 0.812988C40.6031 1.60021 44.4445 3.84972 47.2109 7.17139C49.9773 10.493 51.4946 14.6777 51.5 19.0005C51.4946 23.9052 49.5433 28.6075 46.0752 32.0757C42.6068 35.5439 37.9039 37.4944 32.999 37.4995H26.8027L26.6543 37.7222L19.249 48.8325C19.1397 48.9965 18.9988 49.1379 18.835 49.2476C18.6713 49.3571 18.4871 49.4335 18.2939 49.4722C18.1009 49.5107 17.9021 49.5103 17.709 49.4722C17.5156 49.4339 17.331 49.3579 17.167 49.2485C17.0032 49.1393 16.8625 48.999 16.7529 48.8354C16.6433 48.6717 16.567 48.4877 16.5283 48.2944C16.4897 48.1011 16.4891 47.9019 16.5273 47.7085C16.5656 47.5152 16.6417 47.3314 16.751 47.1675L22.6787 38.2769L23.1973 37.4995H13C9.68479 37.4995 6.50534 36.1826 4.16113 33.8384C1.81705 31.4942 0.5 28.3146 0.5 24.9995C0.500104 21.6844 1.81702 18.5048 4.16113 16.1606C6.43202 13.8899 9.48688 12.5829 12.6895 12.5034L13 12.4995C13.7191 12.5001 14.4367 12.5621 15.1455 12.6831L15.5498 12.7515L15.6963 12.3696C17.2494 8.33547 20.165 4.97145 23.9375 2.86084ZM33.4424 3.55322C29.4197 3.43461 25.5086 4.88423 22.5342 7.59521C19.5597 10.3063 17.7547 14.0669 17.501 18.0835V18.0864C17.4896 18.2834 17.4393 18.4762 17.3535 18.6538C17.2676 18.8316 17.1474 18.9912 17 19.1226C16.7025 19.3876 16.3118 19.5233 15.9141 19.5005C15.5162 19.4776 15.1432 19.298 14.8779 19.0005C14.6457 18.74 14.5123 18.4077 14.498 18.062L14.499 17.9136C14.5331 17.3197 14.5958 16.7334 14.6865 16.1548L14.7666 15.647L14.2559 15.5815C13.8397 15.5281 13.4205 15.5004 13.001 15.4995H13C10.4804 15.4995 8.06382 16.5011 6.28223 18.2827C4.50091 20.0642 3.5001 22.4802 3.5 24.9995C3.5 27.519 4.50075 29.9357 6.28223 31.7173C8.06382 33.4989 10.4804 34.4995 13 34.4995H33.001C37.1101 34.4946 41.0495 32.8602 43.9551 29.9546C46.7698 27.1398 48.3921 23.3549 48.4951 19.3853L48.5 19.0005V18.9976C48.4834 14.9732 46.904 11.1126 44.0947 8.23096C41.2853 5.34925 37.4652 3.6719 33.4424 3.55322Z" fill="#1D223B" stroke="#F5E5B8"/>
</svg>
