<svg width="48" height="50" viewBox="0 0 48 50" fill="none" xmlns="http://www.w3.org/2000/svg">
<path d="M5.5 15.3799L5.64648 15.5264L9.06152 18.9385C9.20068 19.0778 9.31049 19.2438 9.38574 19.4258C9.46096 19.6078 9.50015 19.803 9.5 20V46.5H16.5V34C16.5 32.0109 17.2898 30.1028 18.6963 28.6963C20.1028 27.2898 22.0109 26.5 24 26.5C25.9891 26.5 27.8972 27.2898 29.3037 28.6963C30.7102 30.1028 31.5 32.0109 31.5 34V46.5H38.5V20L38.5068 19.8525C38.5212 19.706 38.5578 19.5623 38.6143 19.4258C38.6707 19.2893 38.7466 19.1617 38.8398 19.0479L38.9385 18.9385L42.3535 15.5264L42.5 15.3799V3.5H37.5V10C37.5 10.3978 37.3419 10.7792 37.0605 11.0605C36.7792 11.3419 36.3978 11.5 36 11.5H28C27.6022 11.5 27.2208 11.3419 26.9395 11.0605C26.6581 10.7792 26.5 10.3978 26.5 10V3.5H21.5V10C21.5 10.3978 21.3419 10.7792 21.0605 11.0605C20.7792 11.3419 20.3978 11.5 20 11.5H12C11.6022 11.5 11.2208 11.3419 10.9395 11.0605C10.6581 10.7792 10.5 10.3978 10.5 10V3.5H5.5V15.3799ZM24 29.5C22.8065 29.5 21.6623 29.9744 20.8184 30.8184C19.9744 31.6623 19.5 32.8065 19.5 34V46.5H28.5V34C28.5 32.8065 28.0256 31.6623 27.1816 30.8184C26.3377 29.9744 25.1935 29.5 24 29.5ZM6.5 20.6201L3.52637 17.6465L3.52441 17.6455L3.40527 17.5205C3.13524 17.2245 2.91849 16.8836 2.76465 16.5127C2.61069 16.1414 2.52249 15.7463 2.50391 15.3457L2.5 15.1738V4C2.5 3.07174 2.86901 2.18177 3.52539 1.52539C4.18177 0.869013 5.07174 0.5 6 0.5H12C12.3978 0.5 12.7792 0.658148 13.0605 0.939453C13.3419 1.22076 13.5 1.60218 13.5 2V8.5H18.5V2C18.5 1.60218 18.6581 1.22076 18.9395 0.939453C19.2208 0.658148 19.6022 0.5 20 0.5H28C28.3978 0.5 28.7792 0.658149 29.0605 0.939453C29.3419 1.22076 29.5 1.60217 29.5 2V8.5H34.5V2C34.5 1.60217 34.6581 1.22076 34.9395 0.939453C35.2208 0.658149 35.6022 0.5 36 0.5H42C42.9283 0.5 43.8182 0.869013 44.4746 1.52539C45.131 2.18177 45.5 3.07174 45.5 4V15.1738C45.5015 15.633 45.4113 16.0885 45.2354 16.5127C45.0595 16.9367 44.8015 17.3222 44.4756 17.6455L44.4736 17.6465L41.5 20.6201V46.5H46C46.3978 46.5 46.7792 46.6581 47.0605 46.9395C47.3419 47.2208 47.5 47.6022 47.5 48C47.5 48.3978 47.3419 48.7792 47.0605 49.0605C46.7792 49.3419 46.3978 49.5 46 49.5H2C1.60217 49.5 1.22076 49.3419 0.939453 49.0605C0.658149 48.7792 0.5 48.3978 0.5 48C0.5 47.6022 0.658149 47.2208 0.939453 46.9395C1.22076 46.6581 1.60217 46.5 2 46.5H6.5V20.6201Z" fill="url(#paint0_linear_5699_14)" stroke="#1D223B"/>
<defs>
<linearGradient id="paint0_linear_5699_14" x1="24" y1="0" x2="24" y2="50" gradientUnits="userSpaceOnUse">
<stop stop-color="#B66F1C"/>
<stop offset="1" stop-color="#F7C873"/>
</linearGradient>
</defs>
</svg>
