<svg width="60" height="48" viewBox="0 0 60 48" fill="none" xmlns="http://www.w3.org/2000/svg">
<path d="M6 0.5H22C22.3978 0.5 22.7792 0.658148 23.0605 0.939453C23.3419 1.22076 23.5 1.60218 23.5 2V24.5H36.5V14C36.5 13.6022 36.6581 13.2208 36.9395 12.9395C37.2208 12.6581 37.6022 12.5 38 12.5H54C54.3978 12.5 54.7792 12.6581 55.0605 12.9395C55.3419 13.2208 55.5 13.6022 55.5 14V44.5H58C58.3978 44.5 58.7792 44.6581 59.0605 44.9395C59.3419 45.2208 59.5 45.6022 59.5 46C59.5 46.3978 59.3419 46.7792 59.0605 47.0605C58.7792 47.3419 58.3978 47.5 58 47.5H2C1.60217 47.5 1.22076 47.3419 0.939453 47.0605C0.658149 46.7792 0.5 46.3978 0.5 46C0.5 45.6022 0.658149 45.2208 0.939453 44.9395C1.22076 44.6581 1.60217 44.5 2 44.5H4.5V2C4.5 1.60218 4.65815 1.22076 4.93945 0.939453C5.22076 0.658149 5.60218 0.5 6 0.5ZM7.5 44.5H20.5V3.5H7.5V44.5ZM23.5 44.5H36.5V27.5H23.5V44.5ZM39.5 44.5H52.5V15.5H39.5V44.5ZM14 32.5C14.3978 32.5 14.7792 32.6581 15.0605 32.9395C15.3419 33.2208 15.5 33.6022 15.5 34V38C15.5 38.3978 15.3419 38.7792 15.0605 39.0605C14.7792 39.3419 14.3978 39.5 14 39.5C13.6022 39.5 13.2208 39.3419 12.9395 39.0605C12.6581 38.7792 12.5 38.3978 12.5 38V34C12.5 33.6022 12.6581 33.2208 12.9395 32.9395C13.2208 32.6581 13.6022 32.5 14 32.5ZM30 32.5C30.3978 32.5 30.7792 32.6581 31.0605 32.9395C31.3419 33.2208 31.5 33.6022 31.5 34V38C31.5 38.3978 31.3419 38.7792 31.0605 39.0605C30.7792 39.3419 30.3978 39.5 30 39.5C29.6022 39.5 29.2208 39.3419 28.9395 39.0605C28.6581 38.7792 28.5 38.3978 28.5 38V34C28.5 33.6022 28.6581 33.2208 28.9395 32.9395C29.2208 32.6581 29.6022 32.5 30 32.5ZM46 32.5C46.3978 32.5 46.7792 32.6581 47.0605 32.9395C47.3419 33.2208 47.5 33.6022 47.5 34V38C47.5 38.3978 47.3419 38.7792 47.0605 39.0605C46.7792 39.3419 46.3978 39.5 46 39.5C45.6022 39.5 45.2208 39.3419 44.9395 39.0605C44.6581 38.7792 44.5 38.3978 44.5 38V34C44.5 33.6022 44.6581 33.2208 44.9395 32.9395C45.2208 32.6581 45.6022 32.5 46 32.5ZM14 20.5C14.3978 20.5 14.7792 20.6581 15.0605 20.9395C15.3419 21.2208 15.5 21.6022 15.5 22V26C15.5 26.3978 15.3419 26.7792 15.0605 27.0605C14.7792 27.3419 14.3978 27.5 14 27.5C13.6022 27.5 13.2208 27.3419 12.9395 27.0605C12.6581 26.7792 12.5 26.3978 12.5 26V22C12.5 21.6022 12.6581 21.2208 12.9395 20.9395C13.2208 20.6581 13.6022 20.5 14 20.5ZM46 20.5C46.3978 20.5 46.7792 20.6581 47.0605 20.9395C47.3419 21.2208 47.5 21.6022 47.5 22V26C47.5 26.3978 47.3419 26.7792 47.0605 27.0605C46.7792 27.3419 46.3978 27.5 46 27.5C45.6022 27.5 45.2208 27.3419 44.9395 27.0605C44.6581 26.7792 44.5 26.3978 44.5 26V22C44.5 21.6022 44.6581 21.2208 44.9395 20.9395C45.2208 20.6581 45.6022 20.5 46 20.5ZM14 8.5C14.3978 8.5 14.7792 8.65815 15.0605 8.93945C15.3419 9.22076 15.5 9.60218 15.5 10V14C15.5 14.3978 15.3419 14.7792 15.0605 15.0605C14.7792 15.3419 14.3978 15.5 14 15.5C13.6022 15.5 13.2208 15.3419 12.9395 15.0605C12.6581 14.7792 12.5 14.3978 12.5 14V10C12.5 9.60218 12.6581 9.22076 12.9395 8.93945C13.1855 8.69337 13.5083 8.54195 13.8516 8.50781L14 8.5Z" fill="url(#paint0_linear_5699_7)" stroke="#1D223B"/>
<defs>
<linearGradient id="paint0_linear_5699_7" x1="30" y1="0" x2="30" y2="48" gradientUnits="userSpaceOnUse">
<stop stop-color="#B66F1C"/>
<stop offset="1" stop-color="#F7C873"/>
</linearGradient>
</defs>
</svg>
