<svg width="60" height="44" viewBox="0 0 60 44" fill="none" xmlns="http://www.w3.org/2000/svg">
<path d="M10 40.4995H50C50.3978 40.4995 50.7793 40.6578 51.0605 40.939C51.3418 41.2202 51.4999 41.6018 51.5 41.9995C51.5 42.3973 51.3418 42.7788 51.0605 43.0601C50.7792 43.3414 50.3978 43.4995 50 43.4995H10C9.60217 43.4995 9.22076 43.3414 8.93945 43.0601C8.65824 42.7788 8.5 42.3973 8.5 41.9995C8.50008 41.6018 8.65822 41.2202 8.93945 40.939C9.22074 40.6578 9.60225 40.4995 10 40.4995ZM30 10.4995C34.6412 10.4995 39.0922 12.3437 42.374 15.6255C45.6558 18.9073 47.4999 23.3583 47.5 27.9995C47.4989 28.6494 47.4624 29.2989 47.3906 29.9448L47.3291 30.4995H58C58.3978 30.4995 58.7793 30.6578 59.0605 30.939C59.3418 31.2202 59.4999 31.6018 59.5 31.9995C59.5 32.3973 59.3418 32.7788 59.0605 33.0601C58.7792 33.3414 58.3978 33.4995 58 33.4995H2C1.60217 33.4995 1.22076 33.3414 0.939453 33.0601C0.658245 32.7788 0.5 32.3973 0.5 31.9995C0.500081 31.6018 0.658221 31.2202 0.939453 30.939C1.22074 30.6578 1.60225 30.4995 2 30.4995H12.6709L12.6094 29.9448C12.5376 29.2989 12.5011 28.6494 12.5 27.9995C12.5001 23.3583 14.3442 18.9073 17.626 15.6255C20.9078 12.3437 25.3588 10.4995 30 10.4995ZM31.0381 13.5103C29.0495 13.3675 27.0528 13.6366 25.1729 14.3003C23.2926 14.9642 21.5686 16.0087 20.1104 17.3687C18.6523 18.7284 17.4906 20.3745 16.6973 22.2036C15.904 24.0329 15.4962 26.0066 15.5 28.0005C15.5015 28.6935 15.5521 29.386 15.6523 30.0718L15.7148 30.4995H44.2852L44.3477 30.0718C44.6362 28.0989 44.514 26.0874 43.9902 24.1636C43.4664 22.2398 42.5517 20.4443 41.3027 18.8901C40.0537 17.3359 38.4975 16.056 36.7314 15.1304C34.9654 14.2047 33.0269 13.6531 31.0381 13.5103ZM55.8936 14.5044C56.0898 14.4904 56.2869 14.5155 56.4736 14.5776C56.6605 14.6399 56.8336 14.7386 56.9824 14.8677C57.1313 14.9967 57.2536 15.1534 57.3418 15.3296C57.4299 15.5057 57.482 15.6976 57.4961 15.894C57.5101 16.0905 57.4851 16.2882 57.4229 16.4751C57.3606 16.6619 57.2628 16.8351 57.1338 16.9839C57.0048 17.1327 56.8471 17.2541 56.6709 17.3423L52.6719 19.3423H52.6709C52.4947 19.4305 52.303 19.4835 52.1064 19.4976C51.9099 19.5116 51.7124 19.4866 51.5254 19.4243C51.3384 19.362 51.1655 19.2634 51.0166 19.1343C50.8677 19.0051 50.7453 18.8478 50.6572 18.6714C50.4796 18.3157 50.4505 17.904 50.5762 17.5269C50.702 17.1497 50.9726 16.8375 51.3281 16.6597L55.3281 14.6597H55.3291C55.5052 14.5716 55.6971 14.5184 55.8936 14.5044ZM4.10645 14.5044C4.30294 14.5186 4.49479 14.5714 4.6709 14.6597H4.67188L8.6709 16.6597C9.02661 16.8376 9.29709 17.1495 9.42285 17.5269C9.54856 17.9043 9.5198 18.3166 9.3418 18.6724C9.16377 19.0282 8.85112 19.2986 8.47363 19.4243C8.09628 19.5499 7.68479 19.5202 7.3291 19.3423H7.32812L3.32812 17.3423C3.15187 17.2543 2.99438 17.1327 2.86523 16.9839C2.73609 16.8351 2.63754 16.662 2.5752 16.4751C2.5129 16.2882 2.48799 16.0905 2.50195 15.894C2.51599 15.6974 2.56895 15.5049 2.65723 15.3286C2.74543 15.1524 2.86769 14.9957 3.0166 14.8667C3.16557 14.7377 3.33838 14.6388 3.52539 14.5767C3.71237 14.5145 3.90992 14.4902 4.10645 14.5044ZM17.3281 0.656738C17.6842 0.478688 18.0969 0.449808 18.4746 0.575684C18.8523 0.701595 19.1647 0.972485 19.3428 1.32861L21.3428 5.32861C21.4308 5.5048 21.4831 5.69659 21.4971 5.89307C21.511 6.08963 21.4861 6.28717 21.4238 6.47412C21.3615 6.66115 21.263 6.83495 21.1338 6.98389C21.0048 7.13249 20.8478 7.25422 20.6719 7.34229C20.4955 7.43045 20.3031 7.48358 20.1064 7.49756C19.9099 7.51153 19.7124 7.48661 19.5254 7.42432C19.3385 7.36201 19.1655 7.26333 19.0166 7.13428C18.8677 7.00514 18.7454 6.84766 18.6572 6.67139L16.6572 2.67139C16.4792 2.31526 16.4503 1.90263 16.5762 1.5249C16.7021 1.14739 16.9722 0.834782 17.3281 0.656738ZM41.5254 0.575684C41.9031 0.449809 42.3158 0.478688 42.6719 0.656738C43.0278 0.834782 43.2979 1.14739 43.4238 1.5249C43.5497 1.90263 43.5208 2.31526 43.3428 2.67139L41.3428 6.67139C41.1647 7.02744 40.8523 7.29842 40.4746 7.42432C40.0969 7.55015 39.6842 7.52032 39.3281 7.34229C38.9722 7.16418 38.702 6.85167 38.5762 6.47412C38.4504 6.09652 38.4793 5.68462 38.6572 5.32861L40.6572 1.32861C40.8353 0.972484 41.1477 0.701594 41.5254 0.575684Z" fill="url(#paint0_linear_5699_11)" stroke="#1D223B"/>
<defs>
<linearGradient id="paint0_linear_5699_11" x1="30" y1="-0.00146484" x2="30" y2="43.9998" gradientUnits="userSpaceOnUse">
<stop stop-color="#B66F1C"/>
<stop offset="1" stop-color="#F7C873"/>
</linearGradient>
</defs>
</svg>
