<svg width="52" height="54" viewBox="0 0 52 54" fill="none" xmlns="http://www.w3.org/2000/svg">
<path d="M9.74316 33.1035L3.74316 36.7041L3.5 36.8496V50.5H10.5V32.6494L9.74316 33.1035ZM48.5 36.8496L48.2568 36.7041L42.2568 33.1035L41.5 32.6494V50.5H48.5V36.8496ZM38.5 24.8701L38.248 24.7256L26.248 17.8682L26 17.7266L25.752 17.8682L13.752 24.7256L13.5 24.8701V50.5H20.5V40C20.5 38.5413 21.0799 37.1428 22.1113 36.1113C23.0784 35.1443 24.368 34.5742 25.7275 34.5068L26 34.5C27.4587 34.5 28.8572 35.0799 29.8887 36.1113C30.9201 37.1428 31.5 38.5413 31.5 40V50.5H38.5V24.8701ZM10.5 24.0078C10.4977 23.7423 10.5655 23.4805 10.6973 23.25C10.829 23.0195 11.02 22.8281 11.25 22.6953L11.249 22.6943L24.248 15.2744L24.5 15.1299V9.5H20C19.6022 9.5 19.2208 9.34185 18.9395 9.06055C18.6581 8.77924 18.5 8.39782 18.5 8C18.5 7.60218 18.6581 7.22076 18.9395 6.93945C19.2208 6.65815 19.6022 6.5 20 6.5H24.5V2C24.5 1.60218 24.6581 1.22076 24.9395 0.939453C25.2208 0.658149 25.6022 0.5 26 0.5C26.3978 0.5 26.7792 0.658149 27.0605 0.939453C27.3419 1.22076 27.5 1.60217 27.5 2V6.5H32C32.3978 6.5 32.7792 6.65815 33.0605 6.93945C33.3419 7.22076 33.5 7.60217 33.5 8C33.5 8.39783 33.3419 8.77924 33.0605 9.06055C32.7792 9.34185 32.3978 9.5 32 9.5H27.5V15.1309L27.752 15.2744L40.752 22.6836C40.9812 22.8163 41.1713 23.0082 41.3027 23.2383C41.4343 23.4687 41.5023 23.7298 41.5 23.9951V29.1504L41.7432 29.2959L50.7725 34.7139C50.9944 34.8472 51.1782 35.0354 51.3057 35.2607C51.4332 35.4861 51.5001 35.741 51.5 36V52C51.5 52.3978 51.3419 52.7792 51.0605 53.0605C50.7792 53.3419 50.3978 53.5 50 53.5H30C29.6022 53.5 29.2208 53.3419 28.9395 53.0605C28.6581 52.7792 28.5 52.3978 28.5 52V40C28.5 39.337 28.2364 38.7013 27.7676 38.2324C27.2987 37.7636 26.663 37.5 26 37.5C25.337 37.5 24.7013 37.7636 24.2324 38.2324C23.7636 38.7013 23.5 39.337 23.5 40V52C23.5 52.3978 23.3419 52.7792 23.0605 53.0605C22.7792 53.3419 22.3978 53.5 22 53.5H2C1.60217 53.5 1.22076 53.3419 0.939453 53.0605C0.658149 52.7792 0.5 52.3978 0.5 52V36L0.512695 35.8066C0.53749 35.6153 0.598759 35.4297 0.694336 35.2607C0.821747 35.0355 1.00479 34.8462 1.22656 34.7129L10.2568 29.3086L10.5 29.1631V24.0078Z" fill="url(#paint0_linear_5699_12)" stroke="#1D223B"/>
<defs>
<linearGradient id="paint0_linear_5699_12" x1="26" y1="0" x2="26" y2="54" gradientUnits="userSpaceOnUse">
<stop stop-color="#B66F1C"/>
<stop offset="1" stop-color="#F7C873"/>
</linearGradient>
</defs>
</svg>
