<svg width="52" height="42" viewBox="0 0 52 42" fill="none" xmlns="http://www.w3.org/2000/svg">
<path d="M4 0.5H17.3311L17.6143 0.511719C18.1776 0.558429 18.7215 0.740301 19.2002 1.04102L19.4336 1.20117L26.3672 6.40039L26.501 6.5H48C48.9283 6.5 49.8182 6.86901 50.4746 7.52539C51.131 8.18177 51.5 9.07174 51.5 10V38.2227C51.4986 39.0914 51.1534 39.9247 50.5391 40.5391C49.9245 41.1536 49.0907 41.4989 48.2217 41.5H4C3.07174 41.5 2.18177 41.131 1.52539 40.4746C0.869013 39.8182 0.5 38.9283 0.5 38V4C0.5 3.07174 0.869013 2.18177 1.52539 1.52539C2.18177 0.869013 3.07174 0.5 4 0.5ZM3.5 38.5H48.5V9.5H26L25.8789 9.49512C25.5974 9.47232 25.3268 9.37061 25.0996 9.2002L17.6328 3.59961L17.499 3.5H3.5V38.5ZM26 16.5C26.3978 16.5 26.7792 16.6581 27.0605 16.9395C27.3419 17.2208 27.5 17.6022 27.5 18V22.5H32C32.3978 22.5 32.7792 22.6581 33.0605 22.9395C33.3419 23.2208 33.5 23.6022 33.5 24C33.5 24.3978 33.3419 24.7792 33.0605 25.0605C32.7792 25.3419 32.3978 25.5 32 25.5H27.5V30C27.5 30.3978 27.3419 30.7792 27.0605 31.0605C26.7792 31.3419 26.3978 31.5 26 31.5C25.6022 31.5 25.2208 31.3419 24.9395 31.0605C24.6581 30.7792 24.5 30.3978 24.5 30V25.5H20C19.6022 25.5 19.2208 25.3419 18.9395 25.0605C18.6581 24.7792 18.5 24.3978 18.5 24C18.5 23.6022 18.6581 23.2208 18.9395 22.9395C19.2208 22.6581 19.6022 22.5 20 22.5H24.5V18C24.5 17.6022 24.6581 17.2208 24.9395 16.9395C25.2208 16.6581 25.6022 16.5 26 16.5Z" fill="#1D223B" stroke="#F5E5B8"/>
</svg>
