<svg width="64" height="52" viewBox="0 0 64 52" fill="none" xmlns="http://www.w3.org/2000/svg">
<path d="M45.6807 0.693359C47.1607 0.726519 48.5714 1.33014 49.6182 2.37695C50.6647 3.42369 51.2676 4.83368 51.3008 6.31348C51.3338 7.79043 50.7957 9.22271 49.8008 10.3145L47.2334 12.8809L46.7783 13.3359L47.3311 13.6641C51.3453 16.0546 55.802 17.6083 60.4326 18.2305H60.4365C61.0891 18.3135 61.7051 18.579 62.2139 18.9961C62.7226 19.4131 63.1031 19.9653 63.3125 20.5889L63.3135 20.5908C63.5237 21.2069 63.5563 21.8702 63.4072 22.5039C63.2581 23.1374 62.9335 23.7162 62.4707 24.1738L62.4688 24.1768L42.1729 44.4736L42.1719 44.4746C41.8495 44.7992 41.4662 45.0575 41.0439 45.2334C40.6219 45.4092 40.1691 45.4988 39.7119 45.499C39.3284 45.4982 38.9474 45.436 38.584 45.3135L38.3535 45.2266C37.8257 45.0067 37.3585 44.6606 36.9941 44.2168C36.5775 43.7093 36.3115 43.0946 36.2275 42.4434V42.4404L36.0996 41.5742C35.4066 37.2548 33.9012 33.1026 31.6611 29.3389L31.333 28.7871L30.8779 29.2412L10.3115 49.8096C9.21983 50.8042 7.78731 51.3416 6.31055 51.3086C4.83073 51.2754 3.42077 50.6725 2.37402 49.626C1.32719 48.5791 0.72356 47.1686 0.69043 45.6885C0.657402 44.2115 1.19447 42.7783 2.18945 41.6865L23.4834 20.3955L23.8701 20.0088L23.4492 19.6582C22.7378 19.0662 22.2162 18.687 21.9902 18.5293C21.5729 18.2363 21.2246 17.8558 20.9697 17.4141C20.7146 16.9719 20.5593 16.4793 20.5146 15.9707C20.47 15.4621 20.5367 14.9496 20.7109 14.4697C20.8852 13.99 21.163 13.5547 21.5234 13.1934L31.1816 3.52539L31.1826 3.52637C31.5442 3.16553 31.9808 2.8882 32.4609 2.71387C32.941 2.53964 33.4532 2.47278 33.9619 2.51758C34.4708 2.5624 34.964 2.71806 35.4062 2.97363C35.8483 3.22914 36.2296 3.57781 36.5225 3.99609L36.5234 3.99805C36.6798 4.21952 37.0581 4.74039 37.6504 5.45215L38.001 5.87305L38.3877 5.48535L41.6826 2.18945C42.7739 1.1966 44.2053 0.660369 45.6807 0.693359ZM4.30469 43.8174C4.02715 44.0577 3.79911 44.3501 3.63672 44.6797C3.46824 45.0216 3.37299 45.3955 3.35645 45.7764C3.33997 46.1571 3.40285 46.5374 3.54102 46.8926C3.67921 47.2477 3.88972 47.5704 4.15918 47.8398C4.42875 48.1094 4.75212 48.3198 5.10742 48.458C5.46262 48.5961 5.84288 48.6591 6.22363 48.6426C6.60433 48.626 6.9775 48.5307 7.31934 48.3623C7.64831 48.2002 7.9396 47.9722 8.17969 47.6953L8.18066 47.6963L29.3184 26.5586L29.625 26.251L29.3643 25.9043C28.4506 24.6891 27.4649 23.5295 26.4131 22.4316L26.0596 22.0625L4.30469 43.8174ZM33.3105 5.64648L23.6455 15.3135L23.2236 15.7363L23.7129 16.0771C25.0597 17.0165 37.0326 25.8523 39.2041 42.0459L39.3379 43.0488L40.0527 42.333L60.3301 22.0479L61.0449 21.333L60.043 21.1992C43.8521 19.0328 35.0161 7.0563 34.0732 5.71289L33.7314 5.22559L33.3105 5.64648ZM45.7754 3.35742C45.3946 3.37398 45.0216 3.46928 44.6797 3.6377C44.4232 3.76405 44.1881 3.92906 43.9834 4.12695L43.8184 4.30371L40.4209 7.69824L40.0596 8.06055L40.4287 8.41406C41.5279 9.46515 42.6889 10.45 43.9043 11.3643L44.251 11.625L47.6953 8.18066L47.6943 8.17969C47.9711 7.93971 48.1992 7.64912 48.3613 7.32031C48.5298 6.97834 48.626 6.60451 48.6426 6.22363C48.6591 5.84283 48.5962 5.46266 48.458 5.10742C48.3199 4.75229 48.1092 4.42965 47.8398 4.16016C47.5703 3.89058 47.2469 3.67923 46.8916 3.54102C46.5364 3.4029 46.1561 3.34089 45.7754 3.35742Z" fill="#1D223B" stroke="#F5E5B8"/>
</svg>
