<svg width="56" height="56" viewBox="0 0 56 56" fill="none" xmlns="http://www.w3.org/2000/svg">
<path d="M12.5 47.0166L12.2109 46.8818C10.3276 46.0054 8.57682 44.8677 7.01074 43.5029C4.03804 40.9005 0.500316 36.2807 0.5 29.001C0.504477 25.1566 2.03354 21.4704 4.75195 18.752C7.47023 16.0337 11.1558 14.5046 15 14.5C19.3119 14.5 23.0505 16.0741 25.6484 18.6455L26.5 19.4883V9.5H22C21.6022 9.5 21.2208 9.34185 20.9395 9.06055C20.6581 8.77924 20.5 8.39782 20.5 8C20.5 7.60218 20.6581 7.22076 20.9395 6.93945C21.2208 6.65815 21.6022 6.5 22 6.5H26.5V2C26.5 1.60218 26.6581 1.22076 26.9395 0.939453C27.2208 0.658148 27.6022 0.5 28 0.5C28.3978 0.5 28.7792 0.658149 29.0605 0.939453C29.3419 1.22076 29.5 1.60217 29.5 2V6.5H34C34.3978 6.5 34.7792 6.65815 35.0605 6.93945C35.3419 7.22076 35.5 7.60217 35.5 8C35.5 8.39783 35.3419 8.77924 35.0605 9.06055C34.7792 9.34185 34.3978 9.5 34 9.5H29.5V19.4883L30.3516 18.6455C32.9493 16.0743 36.6875 14.5002 40.999 14.5C44.8434 14.5045 48.5296 16.0335 51.248 18.752C53.8815 21.3854 55.3988 24.9267 55.4951 28.6406L55.5 29.001C55.4997 36.2807 51.962 40.9005 48.9893 43.5029C47.4232 44.8677 45.6724 46.0054 43.7891 46.8818L43.5 47.0166V52C43.5 52.9283 43.131 53.8182 42.4746 54.4746C41.8182 55.131 40.9283 55.5 40 55.5H16C15.0717 55.5 14.1818 55.131 13.5254 54.4746C12.869 53.8182 12.5 52.9283 12.5 52V47.0166ZM52.5 28.999C52.4964 25.9504 51.2836 23.0278 49.1279 20.8721C46.9722 18.7164 44.0496 17.5036 41.001 17.5H41C34.3948 17.5 29.5 21.8851 29.5 28V44C29.5 44.3978 29.3419 44.7792 29.0605 45.0605C28.7792 45.3419 28.3978 45.5 28 45.5C27.6022 45.5 27.2208 45.3419 26.9395 45.0605C26.6581 44.7792 26.5 44.3978 26.5 44V28C26.5 21.8851 21.6052 17.5 15 17.5H14.999C11.9504 17.5036 9.02779 18.7164 6.87207 20.8721C4.71635 23.0278 3.50357 25.9504 3.5 28.999V29C3.5 34.8877 6.21938 38.782 8.94434 41.1963C11.6321 43.5776 14.3338 44.5291 14.4746 44.5762V44.5771C14.7732 44.6767 15.0328 44.8677 15.2168 45.123C15.4008 45.3784 15.5 45.6852 15.5 46V52.5H40.5V46L40.5049 45.8828C40.5263 45.6095 40.6221 45.3466 40.7832 45.123C40.9672 44.8677 41.2268 44.6767 41.5254 44.5771L41.5283 44.5762C41.7755 44.4923 44.5033 43.5264 47.1777 41.125C49.8641 38.7129 52.5 34.8462 52.5 29V28.999Z" fill="#1D223B" stroke="#F5E5B8"/>
</svg>
