<svg width="56" height="56" viewBox="0 0 56 56" fill="none" xmlns="http://www.w3.org/2000/svg">
<path d="M29.5 10C29.5 10.3978 29.3419 10.7792 29.0605 11.0605C28.7792 11.3419 28.3978 11.5 28 11.5C27.6022 11.5 27.2208 11.3419 26.9395 11.0605C26.6581 10.7792 26.5 10.3978 26.5 10V7.5459L25.9492 7.60254C21.2469 8.08235 16.854 10.1694 13.5117 13.5117C10.1694 16.854 8.08235 21.2469 7.60254 25.9492L7.5459 26.5H10C10.3978 26.5 10.7792 26.6581 11.0605 26.9395C11.3419 27.2208 11.5 27.6022 11.5 28C11.5 28.3978 11.3419 28.7792 11.0605 29.0605C10.7792 29.3419 10.3978 29.5 10 29.5H7.5459L7.60254 30.0508C8.08235 34.7531 10.1694 39.146 13.5117 42.4883C16.854 45.8306 21.2469 47.9177 25.9492 48.3975L26.5 48.4541V46C26.5 45.6022 26.6581 45.2208 26.9395 44.9395C27.2208 44.6581 27.6022 44.5 28 44.5C28.3978 44.5 28.7792 44.6581 29.0605 44.9395C29.3419 45.2208 29.5 45.6022 29.5 46V48.4541L30.0508 48.3975C34.7531 47.9177 39.146 45.8306 42.4883 42.4883C45.8306 39.146 47.9177 34.7531 48.3975 30.0508L48.4541 29.5H46C45.6022 29.5 45.2208 29.3419 44.9395 29.0605C44.6581 28.7792 44.5 28.3978 44.5 28C44.5 27.6022 44.6581 27.2208 44.9395 26.9395C45.2208 26.6581 45.6022 26.5 46 26.5H48.4541L48.3975 25.9492C47.9177 21.2469 45.8306 16.854 42.4883 13.5117C39.146 10.1694 34.7531 8.08235 30.0508 7.60254L29.5 7.5459V10ZM28 18.5C30.5196 18.5 32.9362 19.5006 34.7178 21.2822C36.4994 23.0638 37.5 25.4804 37.5 28L37.4932 28.3516C37.4282 30.1073 36.8781 31.8136 35.8994 33.2783C34.8556 34.8405 33.3716 36.0583 31.6357 36.7773C29.8998 37.4964 27.9893 37.6839 26.1465 37.3174C24.3037 36.9508 22.6108 36.0463 21.2822 34.7178C19.9537 33.3892 19.0492 31.6963 18.6826 29.8535C18.3161 28.0107 18.5036 26.1002 19.2227 24.3643C19.9417 22.6284 21.1595 21.1444 22.7217 20.1006C24.2839 19.0567 26.1211 18.5 28 18.5ZM30.4873 21.9951C29.2996 21.5031 27.9923 21.3742 26.7314 21.625C25.4708 21.8759 24.3122 22.4944 23.4033 23.4033C22.4944 24.3122 21.8759 25.4708 21.625 26.7314C21.3742 27.9923 21.5031 29.2996 21.9951 30.4873C22.4871 31.6749 23.3198 32.6901 24.3887 33.4043C25.4576 34.1185 26.7144 34.5 28 34.5C29.7239 34.5 31.3777 33.8157 32.5967 32.5967C33.8157 31.3777 34.5 29.7239 34.5 28C34.5 26.7144 34.1185 25.4576 33.4043 24.3887C32.6901 23.3198 31.6749 22.4871 30.4873 21.9951ZM26.5 51.4561L26.042 51.417C20.5083 50.947 15.3186 48.5354 11.3916 44.6084C7.46458 40.6814 5.05302 35.4917 4.58301 29.958L4.54395 29.5H2C1.60217 29.5 1.22076 29.3419 0.939453 29.0605C0.658149 28.7792 0.5 28.3978 0.5 28C0.5 27.6022 0.658149 27.2208 0.939453 26.9395C1.22076 26.6581 1.60218 26.5 2 26.5H4.54395L4.58301 26.042C5.05302 20.5083 7.46458 15.3186 11.3916 11.3916C15.3186 7.46458 20.5083 5.05302 26.042 4.58301L26.5 4.54395V2C26.5 1.60218 26.6581 1.22076 26.9395 0.939453C27.2208 0.658149 27.6022 0.5 28 0.5C28.3978 0.5 28.7792 0.658149 29.0605 0.939453C29.3419 1.22076 29.5 1.60217 29.5 2V4.54395L29.958 4.58301C35.4917 5.05302 40.6814 7.46458 44.6084 11.3916C48.5354 15.3186 50.947 20.5083 51.417 26.042L51.4561 26.5H54C54.3978 26.5 54.7792 26.6581 55.0605 26.9395C55.3419 27.2208 55.5 27.6022 55.5 28C55.5 28.3978 55.3419 28.7792 55.0605 29.0605C54.7792 29.3419 54.3978 29.5 54 29.5H51.4561L51.417 29.958C50.947 35.4917 48.5354 40.6814 44.6084 44.6084C40.6814 48.5354 35.4917 50.947 29.958 51.417L29.5 51.4561V54C29.5 54.3978 29.3419 54.7792 29.0605 55.0605C28.7792 55.3419 28.3978 55.5 28 55.5C27.6022 55.5 27.2208 55.3419 26.9395 55.0605C26.6581 54.7792 26.5 54.3978 26.5 54V51.4561Z" fill="#1D223B" stroke="#F5E5B8"/>
</svg>
