<svg width="60" height="44" viewBox="0 0 60 44" fill="none" xmlns="http://www.w3.org/2000/svg">
<path d="M31.5 39.9941L31.9277 40.0576C35.9544 40.6479 40.0456 40.6479 44.0723 40.0576L44.5 39.9941V33.0459L43.9355 33.1191C42.2139 33.3435 40.4808 33.4691 38.7451 33.4951L38.001 33.5H38C36.0157 33.501 34.0331 33.3689 32.0664 33.1045L31.5 33.0283V39.9941ZM55.7109 29.0742C53.7357 30.4733 51.0658 31.6167 47.8818 32.3887L47.5 32.4814V39.376L48.1348 39.1992C50.6195 38.5054 52.6782 37.5797 54.1279 36.5391C55.5544 35.515 56.5 34.297 56.5 33V28.5156L55.7109 29.0742ZM43.5 21C43.5 24.4149 40.405 27.4893 35.0586 29.4375L35.1973 30.4062C36.12 30.4669 37.0559 30.5 38 30.5C43.206 30.5 47.7731 29.5674 51.0557 28.2012C52.6951 27.5188 54.0354 26.7196 54.9746 25.8564C55.9065 25 56.5 24.0255 56.5 23C56.5 22.2342 56.1449 21.479 55.5576 20.7822C54.9682 20.0829 54.1172 19.4083 53.0508 18.79C50.9167 17.5528 47.8525 16.5035 44.0732 15.9404L43.5 15.8555V21ZM27.9355 21.1191C26.2139 21.3435 24.4808 21.4691 22.7451 21.4951L22.001 21.5H21.999C20.0147 21.5028 18.0322 21.3755 16.0645 21.1191L15.5 21.0459V27.9941L15.9268 28.0576C17.9371 28.3546 19.9668 28.5012 21.999 28.499V28.5C24.0317 28.5022 26.0624 28.3547 28.0732 28.0576L28.5 27.9941V21.0459L27.9355 21.1191ZM39.7109 17.0742C37.7357 18.4733 35.0658 19.6167 31.8818 20.3887L31.5 20.4814V27.376L32.1348 27.1992C34.6195 26.5054 36.6782 25.5797 38.1279 24.5391C39.5544 23.515 40.5 22.297 40.5 21V16.5156L39.7109 17.0742ZM22 3.5C16.794 3.5 12.2269 4.43265 8.94434 5.79883C7.30487 6.48116 5.9646 7.28042 5.02539 8.14355C4.09353 8.99998 3.5 9.9745 3.5 11C3.5 12.0255 4.09353 13 5.02539 13.8564C5.9646 14.7196 7.30487 15.5188 8.94434 16.2012C12.2269 17.5674 16.794 18.5 22 18.5C27.206 18.5 31.7731 17.5674 35.0557 16.2012C36.6951 15.5188 38.0354 14.7196 38.9746 13.8564C39.9065 13 40.5 12.0255 40.5 11C40.5 9.9745 39.9065 8.99998 38.9746 8.14355C38.0354 7.28042 36.6951 6.48116 35.0557 5.79883C31.7731 4.43265 27.206 3.5 22 3.5ZM28.5 32.458L28.1172 32.3662C27.0677 32.1141 26.0318 31.8052 25.0156 31.4414L24.9199 31.4072L24.8184 31.4131C23.8968 31.4676 22.9588 31.5 22 31.5C21.331 31.5 20.6723 31.4829 20.0186 31.458L19.5 31.4385V33C19.5 34.297 20.4456 35.515 21.8721 36.5391C23.3218 37.5797 25.3805 38.5054 27.8652 39.1992L28.5 39.376V32.458ZM16.5 31.1768L16.0654 31.1191C11.396 30.5044 7.47368 29.1744 4.73438 27.3818C1.9915 25.5868 0.5 23.3783 0.5 21V11C0.5 8.14616 2.65605 5.52809 6.52051 3.5957C10.3659 1.67298 15.7845 0.5 22 0.5C28.2155 0.5 33.6341 1.67298 37.4795 3.5957C41.344 5.52809 43.5 8.14616 43.5 11V12.8311L43.9346 12.8877C48.7085 13.52 52.6296 14.8613 55.3418 16.6523C58.0552 18.4444 59.5 20.6412 59.5 23V33C59.5 35.8538 57.344 38.4719 53.4795 40.4043C49.6341 42.327 44.2155 43.5 38 43.5C31.7845 43.5 26.3659 42.327 22.5205 40.4043C18.656 38.4719 16.5 35.8538 16.5 33V31.1768ZM12.5 20.4814L12.1182 20.3887C8.9342 19.6167 6.26425 18.4733 4.28906 17.0742L3.5 16.5156V21C3.5 22.297 4.44557 23.515 5.87207 24.5391C7.32177 25.5797 9.38045 26.5054 11.8652 27.1992L12.5 27.376V20.4814Z" fill="#1D223B" stroke="#F5E5B8"/>
</svg>
