<svg width="60" height="46" viewBox="0 0 60 46" fill="none" xmlns="http://www.w3.org/2000/svg">
<mask id="path-1-inside-1_5709_127" fill="white">
<path d="M23.9996 25C23.9996 25.5934 23.8236 26.1734 23.494 26.6667C23.1644 27.1601 22.6958 27.5446 22.1476 27.7717C21.5995 27.9987 20.9963 28.0581 20.4143 27.9424C19.8324 27.8266 19.2978 27.5409 18.8783 27.1213C18.4587 26.7018 18.173 26.1672 18.0572 25.5853C17.9415 25.0034 18.0009 24.4002 18.228 23.852C18.455 23.3038 18.8395 22.8353 19.3329 22.5056C19.8262 22.176 20.4062 22 20.9996 22C21.7952 22 22.5583 22.3161 23.1209 22.8787C23.6835 23.4413 23.9996 24.2044 23.9996 25ZM38.9996 22C38.4062 22 37.8262 22.176 37.3329 22.5056C36.8395 22.8353 36.455 23.3038 36.228 23.852C36.0009 24.4002 35.9415 25.0034 36.0572 25.5853C36.173 26.1672 36.4587 26.7018 36.8783 27.1213C37.2978 27.5409 37.8324 27.8266 38.4143 27.9424C38.9963 28.0581 39.5995 27.9987 40.1476 27.7717C40.6958 27.5446 41.1644 27.1601 41.494 26.6667C41.8236 26.1734 41.9996 25.5934 41.9996 25C41.9996 24.2044 41.6835 23.4413 41.1209 22.8787C40.5583 22.3161 39.7952 22 38.9996 22ZM57.6121 38.225L40.8621 45.6525C40.3584 45.8764 39.8143 45.995 39.2632 46.0009C38.712 46.0068 38.1655 45.8999 37.6572 45.6868C37.1488 45.4738 36.6894 45.159 36.3072 44.7619C35.925 44.3647 35.6281 43.8936 35.4346 43.3775L33.4071 37.8775C32.2871 37.9525 31.1513 37.9909 29.9996 37.9925C28.8479 37.9942 27.7121 37.9559 26.5921 37.8775L24.5646 43.3775C24.3708 43.8934 24.0737 44.3643 23.6914 44.7612C23.3092 45.1581 22.8498 45.4728 22.3416 45.6858C21.8333 45.8988 21.2869 46.0058 20.7359 46C20.1849 45.9943 19.6408 45.8761 19.1371 45.6525L2.38709 38.225C1.52256 37.847 0.820316 37.1744 0.405502 36.3269C-0.00931117 35.4794 -0.109747 34.5122 0.122092 33.5975L7.49959 4.50003C7.69429 3.7433 8.10544 3.05977 8.68269 2.53314C9.25993 2.00652 9.97822 1.65965 10.7496 1.53503L19.7646 0.0525268C20.7584 -0.107318 21.7762 0.108184 22.6199 0.65712C23.4636 1.20606 24.073 2.04918 24.3296 3.02253L25.1446 6.23253C26.7329 6.07753 28.3513 6.00003 29.9996 6.00003C31.6479 6.00003 33.2646 6.07753 34.8496 6.23253L35.6646 3.02253C35.9207 2.04888 36.53 1.20541 37.3738 0.656387C38.2177 0.107363 39.2357 -0.107899 40.2296 0.0525268L49.2496 1.53503C50.021 1.65965 50.7393 2.00652 51.3165 2.53314C51.8937 3.05977 52.3049 3.7433 52.4996 4.50003L59.8821 33.595C60.1142 34.5106 60.0134 35.4789 59.5976 36.327C59.1818 37.1751 58.4781 37.8478 57.6121 38.225ZM55.9996 34.57L48.6171 5.50003C48.6171 5.50003 48.6171 5.50003 48.5971 5.50003L39.5821 4.00003C39.5756 3.9963 39.5683 3.99433 39.5608 3.99433C39.5534 3.99433 39.5461 3.9963 39.5396 4.00003L38.8321 6.78503C40.0821 7.02003 41.3321 7.30003 42.5396 7.64003C43.0157 7.76138 43.4304 8.0537 43.7047 8.46125C43.9791 8.8688 44.0938 9.36307 44.027 9.8498C43.9603 10.3365 43.7167 10.7817 43.3428 11.1003C42.9689 11.419 42.4907 11.5888 41.9996 11.5775C41.817 11.577 41.6354 11.5518 41.4596 11.5025C37.7245 10.489 33.8698 9.98361 29.9996 10C26.1295 9.98279 22.2748 10.4873 18.5396 11.5C18.2844 11.5789 18.0161 11.6059 17.7503 11.5794C17.4845 11.5529 17.2268 11.4734 16.9922 11.3456C16.7577 11.2179 16.5511 11.0445 16.3847 10.8356C16.2182 10.6267 16.0953 10.3866 16.0232 10.1294C15.9511 9.87229 15.9312 9.6033 15.9647 9.33833C15.9982 9.07336 16.0844 8.81779 16.2183 8.58669C16.3522 8.35559 16.531 8.15365 16.7442 7.99278C16.9574 7.83191 17.2006 7.71536 17.4596 7.65003C18.6646 7.31003 19.9046 7.03003 21.1646 6.79503L20.4571 4.00003C20.4571 4.00003 20.4571 4.00003 20.4271 4.00003L11.4021 5.48253C11.3947 5.48051 11.387 5.48051 11.3796 5.48253L3.99959 34.5825L20.7496 42C20.758 42.0046 20.7675 42.007 20.7771 42.007C20.7867 42.007 20.7962 42.0046 20.8046 42L22.4996 37.43C20.8013 37.1702 19.12 36.8096 17.4646 36.35C16.9715 36.1925 16.5587 35.8499 16.313 35.3943C16.0673 34.9387 16.0078 34.4056 16.147 33.907C16.2862 33.4085 16.6133 32.9833 17.0595 32.7209C17.5057 32.4585 18.0362 32.3793 18.5396 32.5C22.2746 33.5139 26.1295 34.0185 29.9996 34C33.8697 34.0185 37.7246 33.5139 41.4596 32.5C41.9705 32.3568 42.5173 32.4224 42.9798 32.6824C43.4423 32.9423 43.7826 33.3754 43.9258 33.8863C44.0691 34.3971 44.0035 34.944 43.7435 35.4065C43.4835 35.869 43.0505 36.2093 42.5396 36.3525C40.8825 36.8114 39.1995 37.1713 37.4996 37.43L39.1871 42C39.1951 42.0044 39.2042 42.0067 39.2133 42.0067C39.2225 42.0067 39.2315 42.0044 39.2396 42L55.9996 34.57Z"/>
</mask>
<path d="M23.9996 25C23.9996 25.5934 23.8236 26.1734 23.494 26.6667C23.1644 27.1601 22.6958 27.5446 22.1476 27.7717C21.5995 27.9987 20.9963 28.0581 20.4143 27.9424C19.8324 27.8266 19.2978 27.5409 18.8783 27.1213C18.4587 26.7018 18.173 26.1672 18.0572 25.5853C17.9415 25.0034 18.0009 24.4002 18.228 23.852C18.455 23.3038 18.8395 22.8353 19.3329 22.5056C19.8262 22.176 20.4062 22 20.9996 22C21.7952 22 22.5583 22.3161 23.1209 22.8787C23.6835 23.4413 23.9996 24.2044 23.9996 25ZM38.9996 22C38.4062 22 37.8262 22.176 37.3329 22.5056C36.8395 22.8353 36.455 23.3038 36.228 23.852C36.0009 24.4002 35.9415 25.0034 36.0572 25.5853C36.173 26.1672 36.4587 26.7018 36.8783 27.1213C37.2978 27.5409 37.8324 27.8266 38.4143 27.9424C38.9963 28.0581 39.5995 27.9987 40.1476 27.7717C40.6958 27.5446 41.1644 27.1601 41.494 26.6667C41.8236 26.1734 41.9996 25.5934 41.9996 25C41.9996 24.2044 41.6835 23.4413 41.1209 22.8787C40.5583 22.3161 39.7952 22 38.9996 22ZM57.6121 38.225L40.8621 45.6525C40.3584 45.8764 39.8143 45.995 39.2632 46.0009C38.712 46.0068 38.1655 45.8999 37.6572 45.6868C37.1488 45.4738 36.6894 45.159 36.3072 44.7619C35.925 44.3647 35.6281 43.8936 35.4346 43.3775L33.4071 37.8775C32.2871 37.9525 31.1513 37.9909 29.9996 37.9925C28.8479 37.9942 27.7121 37.9559 26.5921 37.8775L24.5646 43.3775C24.3708 43.8934 24.0737 44.3643 23.6914 44.7612C23.3092 45.1581 22.8498 45.4728 22.3416 45.6858C21.8333 45.8988 21.2869 46.0058 20.7359 46C20.1849 45.9943 19.6408 45.8761 19.1371 45.6525L2.38709 38.225C1.52256 37.847 0.820316 37.1744 0.405502 36.3269C-0.00931117 35.4794 -0.109747 34.5122 0.122092 33.5975L7.49959 4.50003C7.69429 3.7433 8.10544 3.05977 8.68269 2.53314C9.25993 2.00652 9.97822 1.65965 10.7496 1.53503L19.7646 0.0525268C20.7584 -0.107318 21.7762 0.108184 22.6199 0.65712C23.4636 1.20606 24.073 2.04918 24.3296 3.02253L25.1446 6.23253C26.7329 6.07753 28.3513 6.00003 29.9996 6.00003C31.6479 6.00003 33.2646 6.07753 34.8496 6.23253L35.6646 3.02253C35.9207 2.04888 36.53 1.20541 37.3738 0.656387C38.2177 0.107363 39.2357 -0.107899 40.2296 0.0525268L49.2496 1.53503C50.021 1.65965 50.7393 2.00652 51.3165 2.53314C51.8937 3.05977 52.3049 3.7433 52.4996 4.50003L59.8821 33.595C60.1142 34.5106 60.0134 35.4789 59.5976 36.327C59.1818 37.1751 58.4781 37.8478 57.6121 38.225ZM55.9996 34.57L48.6171 5.50003C48.6171 5.50003 48.6171 5.50003 48.5971 5.50003L39.5821 4.00003C39.5756 3.9963 39.5683 3.99433 39.5608 3.99433C39.5534 3.99433 39.5461 3.9963 39.5396 4.00003L38.8321 6.78503C40.0821 7.02003 41.3321 7.30003 42.5396 7.64003C43.0157 7.76138 43.4304 8.0537 43.7047 8.46125C43.9791 8.8688 44.0938 9.36307 44.027 9.8498C43.9603 10.3365 43.7167 10.7817 43.3428 11.1003C42.9689 11.419 42.4907 11.5888 41.9996 11.5775C41.817 11.577 41.6354 11.5518 41.4596 11.5025C37.7245 10.489 33.8698 9.98361 29.9996 10C26.1295 9.98279 22.2748 10.4873 18.5396 11.5C18.2844 11.5789 18.0161 11.6059 17.7503 11.5794C17.4845 11.5529 17.2268 11.4734 16.9922 11.3456C16.7577 11.2179 16.5511 11.0445 16.3847 10.8356C16.2182 10.6267 16.0953 10.3866 16.0232 10.1294C15.9511 9.87229 15.9312 9.6033 15.9647 9.33833C15.9982 9.07336 16.0844 8.81779 16.2183 8.58669C16.3522 8.35559 16.531 8.15365 16.7442 7.99278C16.9574 7.83191 17.2006 7.71536 17.4596 7.65003C18.6646 7.31003 19.9046 7.03003 21.1646 6.79503L20.4571 4.00003C20.4571 4.00003 20.4571 4.00003 20.4271 4.00003L11.4021 5.48253C11.3947 5.48051 11.387 5.48051 11.3796 5.48253L3.99959 34.5825L20.7496 42C20.758 42.0046 20.7675 42.007 20.7771 42.007C20.7867 42.007 20.7962 42.0046 20.8046 42L22.4996 37.43C20.8013 37.1702 19.12 36.8096 17.4646 36.35C16.9715 36.1925 16.5587 35.8499 16.313 35.3943C16.0673 34.9387 16.0078 34.4056 16.147 33.907C16.2862 33.4085 16.6133 32.9833 17.0595 32.7209C17.5057 32.4585 18.0362 32.3793 18.5396 32.5C22.2746 33.5139 26.1295 34.0185 29.9996 34C33.8697 34.0185 37.7246 33.5139 41.4596 32.5C41.9705 32.3568 42.5173 32.4224 42.9798 32.6824C43.4423 32.9423 43.7826 33.3754 43.9258 33.8863C44.0691 34.3971 44.0035 34.944 43.7435 35.4065C43.4835 35.869 43.0505 36.2093 42.5396 36.3525C40.8825 36.8114 39.1995 37.1713 37.4996 37.43L39.1871 42C39.1951 42.0044 39.2042 42.0067 39.2133 42.0067C39.2225 42.0067 39.2315 42.0044 39.2396 42L55.9996 34.57Z" fill="url(#paint0_linear_5709_127)" stroke="#1D223B" stroke-width="2" mask="url(#path-1-inside-1_5709_127)"/>
<defs>
<linearGradient id="paint0_linear_5709_127" x1="60.0043" y1="23.0008" x2="0" y2="23.0008" gradientUnits="userSpaceOnUse">
<stop stop-color="#B66F1C"/>
<stop offset="1" stop-color="#F7C873"/>
</linearGradient>
</defs>
</svg>
