<svg width="56" height="44" viewBox="0 0 56 44" fill="none" xmlns="http://www.w3.org/2000/svg">
<path d="M28 0.5C28.3694 0.5 31.9497 0.492189 36.5029 0.896484C41.0655 1.30163 46.5602 2.11596 50.7773 3.74414V3.74512C51.5891 4.06348 52.3133 4.57114 52.8906 5.22461C53.468 5.87806 53.8817 6.6591 54.0977 7.50391L54.0986 7.50586C54.7333 9.95164 55.5 14.4682 55.5 22C55.5 29.532 54.7334 34.0442 54.0986 36.4951L54.0977 36.4961C53.8821 37.3413 53.4689 38.1235 52.8916 38.7773C52.3142 39.4312 51.5874 39.9382 50.7754 40.2568C46.7401 41.8143 41.5326 42.6296 37.0898 43.0518C32.6548 43.4731 29.0238 43.5 28.165 43.5H27.835C26.9762 43.5 23.3472 43.4731 18.9131 43.0518C14.4711 42.6296 9.26289 41.8145 5.22363 40.2568C4.41158 39.9382 3.68578 39.4312 3.1084 38.7773C2.53107 38.1235 2.11794 37.3413 1.90234 36.4961L1.90137 36.4941C1.26667 34.0484 0.5 29.5318 0.5 22C0.500001 14.4682 1.26667 9.95164 1.90137 7.50586L1.90234 7.50391C2.11827 6.6591 2.53204 5.87806 3.10938 5.22461C3.68674 4.57114 4.41086 4.06348 5.22266 3.74512L5.22168 3.74414C9.43894 2.11574 14.9342 1.30166 19.4971 0.896484C24.0503 0.492189 27.6306 0.5 28 0.5ZM27.9453 3.5C27.4139 3.5 23.9391 3.5131 19.6377 3.89648C15.3476 4.27887 10.186 5.03319 6.30273 6.5332L6.29492 6.53711C5.92715 6.68616 5.60002 6.92022 5.34082 7.2207C5.08337 7.51917 4.89972 7.87414 4.80566 8.25684C4.20247 10.5777 3.5 14.8267 3.5 22C3.5 28.7245 4.11769 32.8804 4.70703 35.2979L4.82422 35.7588C4.92002 36.1389 5.10419 36.4911 5.36133 36.7871C5.62033 37.0852 5.94634 37.318 6.3125 37.4658L6.32031 37.4688C10.3487 39.0206 15.7492 39.7751 20.126 40.1445C24.515 40.515 27.9272 40.5029 28 40.5029H28.0684C28.0984 40.5029 28.1411 40.5021 28.1953 40.502C28.3042 40.5016 28.461 40.5013 28.6602 40.499C29.0588 40.4945 29.629 40.4843 30.334 40.4629C31.7441 40.4201 33.695 40.3314 35.8906 40.1465C40.2686 39.7777 45.671 39.0232 49.6973 37.4688L49.7051 37.4658C50.0712 37.318 50.3973 37.0852 50.6562 36.7871C50.9151 36.4891 51.1001 36.1341 51.1953 35.751L51.21 35.6914V35.6787C51.8094 33.3441 52.5 29.1077 52.5 22C52.5 14.8265 51.7968 10.5772 51.1885 8.24609C51.0928 7.86497 50.9091 7.51151 50.6514 7.21484C50.3923 6.91663 50.0656 6.68398 49.6992 6.53613L49.6924 6.5332L48.9229 6.25195C44.9992 4.89104 39.9954 4.2073 35.8906 3.86035C31.504 3.48958 28.0913 3.49998 28.0127 3.5H27.9453ZM24.0723 12.5C24.3435 12.5131 24.6061 12.6003 24.832 12.751H24.833L36.833 20.751C37.0388 20.8879 37.2075 21.0741 37.3242 21.292C37.4408 21.5098 37.502 21.753 37.502 22C37.502 22.247 37.4408 22.4902 37.3242 22.708C37.2368 22.8712 37.12 23.0166 36.9805 23.1367L36.833 23.249L24.833 31.249H24.832C24.6061 31.3997 24.3435 31.4869 24.0723 31.5C23.8011 31.5131 23.5314 31.4514 23.292 31.3232C23.0526 31.195 22.8523 31.0045 22.7129 30.7715C22.5734 30.5384 22.4998 30.2716 22.5 30V14L22.5137 13.7969C22.5409 13.5966 22.6084 13.4032 22.7129 13.2285C22.8523 12.9955 23.0526 12.805 23.292 12.6768C23.5314 12.5486 23.8011 12.4869 24.0723 12.5ZM25.5 27.1963L26.2773 26.6787L32.6719 22.416L33.2979 21.999L32.6719 21.584L26.2764 17.334L25.5 16.8174V27.1963Z" fill="url(#paint0_linear_5709_321)" stroke="#1D223B"/>
<defs>
<linearGradient id="paint0_linear_5709_321" x1="56" y1="21.9999" x2="0" y2="21.9999" gradientUnits="userSpaceOnUse">
<stop stop-color="#B66F1C"/>
<stop offset="1" stop-color="#F7C873"/>
</linearGradient>
</defs>
</svg>
